<?xml version="1.0" standalone="no"?>
<!DOCTYPE svg PUBLIC "-//W3C//DTD SVG 1.1//EN" "http://www.w3.org/Graphics/SVG/1.1/DTD/svg11.dtd" >
<svg xmlns="http://www.w3.org/2000/svg">
<metadata></metadata>
<defs>
<font id="descartesbold" horiz-adv-x="1261" >
<font-face units-per-em="2048" ascent="1536" descent="-512" />
<missing-glyph horiz-adv-x="430" />
<glyph horiz-adv-x="0" />
<glyph horiz-adv-x="682" />
<glyph unicode=" "  horiz-adv-x="430" />
<glyph unicode="&#x09;" horiz-adv-x="430" />
<glyph unicode="&#xa0;" horiz-adv-x="430" />
<glyph unicode="!" horiz-adv-x="557" d="M72 188q0 81 60 140t147 59t146.5 -59t59.5 -140q0 -89 -57.5 -143.5t-148.5 -54.5t-149 54.5t-58 143.5zM94 1434h369l-21 -918h-327z" />
<glyph unicode="&#x22;" horiz-adv-x="942" d="M51 1434h359l-50 -631h-260zM532 1434h359l-49 -631h-260z" />
<glyph unicode="#" horiz-adv-x="1562" d="M41 317v304h260l59 202h-176v303h262l89 308h348l-88 -308h202l88 308h349l-88 -308h176v-303h-262l-60 -202h176v-304h-262l-90 -317h-348l90 317h-203l-90 -317h-348l90 317h-174zM649 621h203l59 202h-202z" />
<glyph unicode="$" horiz-adv-x="765" d="M41 1098q0 97 45.5 170t124.5 114v236h328v-184h102l84 -349h-178q-39 0 -62.5 -16.5t-23.5 -48.5q0 -28 18 -68l201 -438q45 -99 45 -195q0 -92 -49 -166t-137 -114v-223h-328v184h-139v348h157q62 0 62 49q0 20 -12 47l-156 353q-82 185 -82 301z" />
<glyph unicode="%" horiz-adv-x="1961" d="M61 1055q0 103 42 191.5t127 146t196 57.5t196 -57.5t127 -146t42 -191.5q0 -76 -25 -147t-70.5 -126.5t-115.5 -89t-154 -33.5t-154 33.5t-115.5 89t-70.5 126.5t-25 147zM350 1055q0 -68 21.5 -104t54.5 -36t54.5 36t21.5 104t-21.5 103.5t-54.5 35.5t-54.5 -35.5 t-21.5 -103.5zM483 0l678 1434h318l-678 -1434h-318zM1171 379q0 103 42 191.5t127 146t196 57.5t196 -57.5t127 -146t42 -191.5t-42 -191.5t-127 -146t-196 -57.5t-196 57.5t-127 146t-42 191.5zM1460 379q0 -68 21.5 -103.5t54.5 -35.5t54.5 35.5t21.5 103.5t-21.5 103.5 t-54.5 35.5t-54.5 -35.5t-21.5 -103.5z" />
<glyph unicode="&#x26;" horiz-adv-x="1492" d="M61 508q0 101 28.5 186t69 138.5t96.5 96.5t97.5 63.5t85.5 35.5l-243 406h849l152 -324h-403l219 -362l82 217h356l-227 -568l239 -397h-403l-60 96q-152 -114 -352 -114q-144 0 -259.5 47t-185 123.5t-105.5 168t-36 187.5zM430 522q0 -87 61.5 -147t155.5 -60 q99 0 176 74l-205 340q-75 -6 -131.5 -66.5t-56.5 -140.5z" />
<glyph unicode="'" horiz-adv-x="460" d="M51 1434h359l-50 -631h-260z" />
<glyph unicode="(" horiz-adv-x="667" d="M61 737q0 461 211 819h355q-228 -381 -228 -819q0 -225 60 -452t168 -408h-355q-100 170 -155.5 398t-55.5 462z" />
<glyph unicode=")" horiz-adv-x="667" d="M41 -123q108 180 167.5 407t59.5 453q0 440 -227 819h354q211 -358 211 -819q0 -234 -55.5 -462t-155.5 -398h-354z" />
<glyph unicode="*" horiz-adv-x="860" d="M41 1059l82 246l213 -105l-33 234h254l-33 -234l213 105l82 -246l-237 -41l166 -170l-205 -152l-113 211l-113 -211l-204 152l166 170z" />
<glyph unicode="+" horiz-adv-x="942" d="M51 418v323h246v258h348v-258h246v-323h-246v-258h-348v258h-246z" />
<glyph unicode="," horiz-adv-x="530" d="M-20 -260l151 631h399l-290 -631h-260z" />
<glyph unicode="-" horiz-adv-x="696" d="M51 418v323h594v-323h-594z" />
<glyph unicode="." horiz-adv-x="516" d="M51 188q0 81 60 140t147 59t147 -59t60 -140q0 -89 -58 -143.5t-149 -54.5t-149 54.5t-58 143.5z" />
<glyph unicode="/" horiz-adv-x="901" d="M61 0l410 1434h369l-410 -1434h-369z" />
<glyph unicode="0" horiz-adv-x="1343" d="M61 717q0 116 25.5 225t77 203.5t123.5 165.5t171 112t214 41t214 -41t171 -112t123 -165.5t76.5 -203.5t25.5 -225t-25.5 -225t-76.5 -204t-123 -166t-171 -112t-214 -41t-214 41t-171 112t-123.5 166t-77 204t-25.5 225zM430 717q0 -117 26.5 -208t82 -146.5 t133.5 -55.5t133 55.5t81.5 146.5t26.5 208t-26.5 208t-81.5 146t-133 55q-116 0 -179 -115t-63 -294z" />
<glyph unicode="1" horiz-adv-x="645" d="M41 1090v344h522v-1434h-368v1090h-154z" />
<glyph unicode="2" horiz-adv-x="1116" d="M41 1190q3 6 8 15.5t25 38t43.5 54.5t63.5 57.5t84 54.5t106 38.5t129 15.5q213 0 345 -130.5t132 -338.5q0 -160 -139 -381l-168 -270h405l-160 -344h-864l455 752q39 65 55 93t31.5 70t15.5 76q0 61 -37 98t-94 37q-62 0 -115 -36.5t-120 -143.5z" />
<glyph unicode="3" horiz-adv-x="1120" d="M41 129l137 295q4 -5 10.5 -13t30.5 -28t50.5 -35.5t69 -28t87.5 -12.5q126 0 195 68t69 170q0 98 -75 165.5t-207 67.5h-170l137 312h-260l135 344h717l-195 -367q137 -63 212 -197.5t75 -296.5q0 -113 -41.5 -220t-117 -193t-194.5 -138.5t-262 -52.5 q-73 0 -141.5 16.5t-114 40t-80.5 47t-51 39.5z" />
<glyph unicode="4" horiz-adv-x="1132" d="M41 418l483 1016h400l-340 -693h467v-741h-369v418h-641z" />
<glyph unicode="5" horiz-adv-x="1120" d="M41 129l137 295q43 -55 110 -86t146 -31q120 0 188 62t68 147q0 78 -59 136.5t-156 58.5h-348l152 723h710l-71 -344h-363l-8 -39q115 -5 211.5 -45.5t162 -107t102 -155t36.5 -188.5q0 -113 -41.5 -217t-117 -187t-194.5 -132.5t-262 -49.5q-73 0 -141.5 16.5t-114 40 t-80.5 47t-51 39.5z" />
<glyph unicode="6" d="M61 532q0 190 123 392l308 510h397l-221 -373q8 2 26 2q119 0 217 -46t160 -122t95.5 -172.5t33.5 -200.5q0 -106 -35 -202.5t-102.5 -176t-179.5 -127t-252 -47.5q-132 0 -241 45.5t-180 123t-110 179.5t-39 215zM430 522q0 -92 52.5 -158.5t148.5 -66.5 q95 0 147.5 66.5t52.5 158.5t-52.5 159t-147.5 67t-148 -67t-53 -159z" />
<glyph unicode="7" horiz-adv-x="1273" d="M41 1090l135 344h963l-135 -308h229l-168 -358h-217l-334 -768h-414l338 778h-274l137 312h-260z" />
<glyph unicode="8" horiz-adv-x="1204" d="M61 422q0 102 49 191.5t144 146.5q-77 50 -118.5 126t-41.5 161q0 77 33.5 151t96 133.5t161 96t217.5 36.5t217.5 -36.5t161 -96t96 -133.5t33.5 -151q0 -84 -42.5 -160.5t-119.5 -126.5q95 -57 145 -146.5t50 -191.5q0 -85 -35 -165t-100.5 -145t-171 -104t-234.5 -39 t-234.5 39t-171 104t-100.5 145t-35 165zM430 430q0 -57 48.5 -100t123.5 -43t123.5 43t48.5 100q0 52 -43.5 99t-128.5 67q-85 -20 -128.5 -67t-43.5 -99zM442 1024q0 -52 40 -94.5t120 -63.5q80 21 120 63.5t40 94.5q0 56 -44 96.5t-116 40.5t-116 -40.5t-44 -96.5z" />
<glyph unicode="9" d="M61 911q0 84 21.5 163t67.5 150t112 124t161 84.5t208 31.5q132 0 241 -45.5t180 -123t109.5 -179t38.5 -215.5q0 -189 -123 -391l-307 -510h-397l219 371h-25q-96 0 -178.5 30t-142 81.5t-101.5 120t-63 147t-21 161.5zM430 911q0 -92 52.5 -158.5t148.5 -66.5 q95 0 147.5 66.5t52.5 158.5t-52.5 159t-147.5 67t-148 -67t-53 -159z" />
<glyph unicode=":" horiz-adv-x="516" d="M51 188q0 81 60 140t147 59t147 -59t60 -140q0 -89 -58 -143.5t-149 -54.5t-149 54.5t-58 143.5zM51 938q0 81 60 140t147 59t147 -59t60 -140q0 -89 -58 -144t-149 -55t-149 55t-58 144z" />
<glyph unicode=";" horiz-adv-x="571" d="M-20 -260l151 631h399l-290 -631h-260zM106 938q0 81 60 140t147 59t147 -59t60 -140q0 -89 -58 -144t-149 -55t-149 55t-58 144z" />
<glyph unicode="&#x3c;" horiz-adv-x="942" d="M51 338v483l840 244v-330l-522 -123v-65l522 -123v-330z" />
<glyph unicode="=" horiz-adv-x="942" d="M51 174v324h840v-324h-840zM51 662v323h840v-323h-840z" />
<glyph unicode="&#x3e;" horiz-adv-x="942" d="M51 94v330l522 123v65l-522 123v330l840 -244v-483z" />
<glyph unicode="?" horiz-adv-x="878" d="M51 1343q66 49 161.5 85t199.5 36q178 0 296.5 -101.5t118.5 -279.5q0 -80 -31 -145t-85 -131l-49 -59q-52 -63 -76.5 -114.5t-24.5 -107.5v-10h-342v47q0 142 107 275l43 53q32 39 47 58t29 45.5t14 45.5q0 34 -26 53t-71 19q-87 0 -190 -70zM182 188q0 81 60 140 t147 59t147 -59t60 -140q0 -89 -58 -143.5t-149 -54.5t-149 54.5t-58 143.5z" />
<glyph unicode="@" horiz-adv-x="1931" d="M61 563q0 190 73 358.5t196 287t290.5 187t352.5 68.5q184 0 349.5 -68.5t286 -187t191 -286.5t70.5 -359q0 -186 -74 -358h-688l-10 55l-11 2q-69 -72 -213 -72q-152 0 -247 104t-95 269q0 163 101 268t252 105q130 0 202 -72h9v58h266v-451h205q6 43 6 92 q0 281 -168 448t-432 167q-169 0 -309.5 -78t-223 -219.5t-82.5 -317.5q0 -132 48.5 -247t131.5 -195t196 -126t239 -46q91 0 172 15.5t131.5 37.5t88 44.5t53.5 37.5l16 16l163 -231q-8 -8 -23 -22t-70.5 -50t-121 -63t-176 -49.5t-233.5 -22.5q-185 0 -352.5 68.5 t-290.5 187t-196 287t-73 358.5zM829 567q0 -62 37 -98.5t92 -36.5t92 36.5t37 98.5t-37 98.5t-92 36.5t-92 -36.5t-37 -98.5z" />
<glyph unicode="A" horiz-adv-x="1441" d="M61 0l383 1434h553l383 -1434h-409l-60 266h-383l-57 -266h-410zM604 614h232l-109 490h-14z" />
<glyph unicode="B" horiz-adv-x="1251" d="M92 0v1434h504q153 0 263 -32.5t169.5 -90t86 -126t26.5 -151.5q0 -78 -40.5 -158.5t-101.5 -123.5q73 -40 132 -134t59 -182q0 -205 -157.5 -320.5t-436.5 -115.5h-504zM481 328h131q76 0 122 35.5t46 99.5q0 62 -46.5 97.5t-121.5 35.5h-131v-268zM481 858h131 q79 0 119.5 34.5t40.5 90.5q0 57 -42 90t-118 33h-131v-248z" />
<glyph unicode="C" horiz-adv-x="1425" d="M72 717q0 147 55 283t151 238.5t236 164t299 61.5q166 0 287.5 -43.5t234.5 -134.5l-198 -289q-57 51 -131 80t-150 29q-173 0 -284 -113.5t-111 -275.5t110 -275.5t275 -113.5q183 0 317 114l201 -288q-107 -97 -236 -141t-313 -44q-154 0 -293.5 61.5t-237 164 t-155 239.5t-57.5 283z" />
<glyph unicode="D" horiz-adv-x="1323" d="M92 0v1434h494q100 0 195 -26.5t180.5 -83.5t150 -137.5t102 -196.5t37.5 -253q0 -149 -38 -273t-101.5 -208.5t-149.5 -143t-180.5 -85.5t-195.5 -27h-494zM481 348h84q127 0 212 105t85 284q0 161 -81 254.5t-195 93.5h-105v-737z" />
<glyph unicode="E" horiz-adv-x="1144" d="M92 0v1434h883l84 -338h-277l86 -283h-387v-465h602l-88 -348h-903z" />
<glyph unicode="F" horiz-adv-x="1120" d="M92 0v1434h883l84 -338h-277l86 -283h-387v-813h-389z" />
<glyph unicode="G" horiz-adv-x="1415" d="M72 717q0 147 55 283t151 238.5t236 164t299 61.5q166 0 287.5 -43.5t234.5 -134.5l-198 -289q-57 51 -131 80t-150 29q-173 0 -284 -113.5t-111 -275.5q0 -159 108.5 -259t276.5 -100h129l-21 381h379l-20 -739h-445q-170 0 -319 56.5t-253 153.5t-164 228.5t-60 278.5z " />
<glyph unicode="H" horiz-adv-x="1282" d="M92 0v1434h389v-523h320v523h389v-1434h-389v563h-320v-563h-389z" />
<glyph unicode="I" horiz-adv-x="573" d="M92 0v1434h389v-1434h-389z" />
<glyph unicode="J" horiz-adv-x="923" d="M51 61l80 328q7 -6 19.5 -14.5t51.5 -22.5t77 -14q76 0 125 42t49 132v573h-236l86 349h539v-922q0 -255 -136 -399t-356 -144q-56 0 -107 9.5t-84.5 23t-59 27t-37.5 23.5z" />
<glyph unicode="K" horiz-adv-x="1253" d="M92 0v1434h389v-590h13l247 590h441l-365 -672l395 -762h-450l-268 631h-13v-631h-389z" />
<glyph unicode="L" horiz-adv-x="1144" d="M92 0v1434h389v-1086h602l-88 -348h-903z" />
<glyph unicode="M" horiz-adv-x="1576" d="M72 0l61 1434h1311l61 -1434h-399l-31 1059l-287 -381l-286 381l-31 -1059h-399z" />
<glyph unicode="N" horiz-adv-x="1282" d="M92 0v1434h359l350 -467v467h389v-1434h-389v426l-320 416v-842h-389z" />
<glyph unicode="O" horiz-adv-x="1617" d="M72 717q0 154 56 292t152.5 238t234 158.5t294.5 58.5t294.5 -58.5t234 -158.5t152.5 -238t56 -292q0 -206 -94.5 -377t-264 -271t-378.5 -100t-378.5 100t-264 271t-94.5 377zM461 717q0 -168 96 -278.5t252 -110.5t252 110.5t96 278.5t-96 278.5t-252 110.5 t-252 -110.5t-96 -278.5z" />
<glyph unicode="P" horiz-adv-x="1251" d="M92 0v1434h494q275 0 434.5 -142t159.5 -381q0 -119 -49.5 -219t-132.5 -165.5t-189.5 -101.5t-222.5 -36h-105v-389h-389zM481 737h105q90 0 147.5 51.5t57.5 122.5q0 75 -53.5 124.5t-131.5 49.5h-125v-348z" />
<glyph unicode="Q" horiz-adv-x="1617" d="M72 717q0 154 56 292t152.5 238t234 158.5t294.5 58.5t294.5 -58.5t234 -158.5t152.5 -238t56 -292q0 -85 -16 -161.5t-43.5 -134.5t-63.5 -109t-75.5 -87t-78.5 -65.5t-75 -47.5t-63.5 -30.5t-43.5 -17.5l-16 -5v-10h287l-103 -309l-745 108l35 189q-211 85 -342 268 t-131 412zM461 717q0 -168 96 -278.5t252 -110.5t252 110.5t96 278.5t-96 278.5t-252 110.5t-252 -110.5t-96 -278.5z" />
<glyph unicode="R" horiz-adv-x="1253" d="M92 0v1434h494q271 0 426 -141t155 -369q0 -145 -66 -254t-183 -174l284 -496h-450l-179 414h-92v-414h-389zM481 762h101q90 0 143 45.5t53 116.5q0 75 -49 118t-127 43h-121v-323z" />
<glyph unicode="S" horiz-adv-x="1071" d="M61 0v348h31q40 0 67 4.5t51 21t39 38t31.5 65t29 93t30.5 130.5l25 111q57 253 91 343q56 147 156 213q105 70 310 87l88 -362q-52 -11 -88.5 -32t-64 -51t-51.5 -88t-43.5 -122t-47.5 -174l-23 -90q-27 -109 -43.5 -167t-44.5 -130.5t-57 -107.5t-74 -70t-104 -47.5 t-138 -12.5h-170z" />
<glyph unicode="T" horiz-adv-x="1236" d="M61 1065l31 369h1053l31 -369l-363 20l21 -1085h-431l21 1085z" />
<glyph unicode="U" d="M82 512v922h389v-922q0 -75 40 -124.5t120 -49.5t120 49.5t40 124.5v922h389v-922q0 -233 -153 -388t-396 -155t-396 155t-153 388z" />
<glyph unicode="V" horiz-adv-x="1417" d="M61 1434h431l208 -1014h15l211 1014h430l-383 -1434h-529z" />
<glyph unicode="W" horiz-adv-x="2023" d="M61 1434h431l135 -1004h10l182 520l-192 484h770l-193 -484l182 -520h11l135 1004h430l-270 -1434h-504l-176 485l-176 -485h-504z" />
<glyph unicode="X" horiz-adv-x="1380" d="M41 0l424 750l-404 684h441l188 -394l189 394h440l-404 -684l424 -750h-450l-199 420l-198 -420h-451z" />
<glyph unicode="Y" horiz-adv-x="1421" d="M61 1434h441l209 -525l209 525h440l-449 -871l15 -563h-430l14 563z" />
<glyph unicode="Z" horiz-adv-x="1251" d="M41 1096l125 338h962l-137 -308h219l-135 -319h-237l-199 -459h494l-136 -348h-931l354 813h-252l115 283h-242z" />
<glyph unicode="[" horiz-adv-x="665" d="M82 -123v1679h543v-245h-205v-1188h205v-246h-543z" />
<glyph unicode="\" horiz-adv-x="901" d="M61 1434h369l410 -1434h-369z" />
<glyph unicode="]" horiz-adv-x="665" d="M41 -123v246h205v1188h-205v245h543v-1679h-543z" />
<glyph unicode="^" horiz-adv-x="942" d="M72 803l192 631h414l192 -631h-299l-86 385h-30l-84 -385h-299z" />
<glyph unicode="_" horiz-adv-x="1085" d="M0 0h1085v-307h-1085v307z" />
<glyph unicode="`" horiz-adv-x="1386" d="M410 1518h501l66 -269h-295z" />
<glyph unicode="a" d="M61 494q0 193 120.5 331t281.5 138v163h717v-1126h-310l-18 98l-8 2q-4 -5 -12 -12.5t-35.5 -26.5t-58.5 -34t-80.5 -27t-102.5 -12q-223 0 -358.5 142.5t-135.5 363.5zM430 510q0 -85 53 -132.5t127 -47.5q81 0 141 56.5t60 158.5v149q-49 27 -141 27 q-107 0 -173.5 -58.5t-66.5 -152.5z" />
<glyph unicode="b" horiz-adv-x="1341" d="M82 0v1434h369v-383l8 -2q4 4 12 11t36.5 24.5t61 31t85.5 24.5t110 11q141 0 260 -77t187.5 -211.5t68.5 -295.5q0 -170 -72.5 -303t-196 -204.5t-274.5 -71.5q-60 0 -114.5 11.5t-90 27.5t-63 32t-39.5 27l-12 12l-8 -2l-19 -96h-309zM451 567q0 -109 62 -178.5 t167 -69.5q106 0 168.5 69.5t62.5 178.5t-63 179.5t-168 70.5q-104 0 -166.5 -70.5t-62.5 -179.5z" />
<glyph unicode="c" horiz-adv-x="1159" d="M61 563q0 108 43 214t119 190.5t192 137t249 52.5q132 0 234.5 -39t195.5 -123l-179 -243q-3 4 -9.5 9.5t-28 21t-44.5 27t-59.5 21t-73.5 9.5q-117 0 -193.5 -80t-76.5 -197q0 -118 76.5 -196t200.5 -78q40 0 78.5 10.5t65 25.5t47 30t30.5 25l10 11l180 -244 q-97 -89 -204 -133.5t-250 -44.5q-133 0 -249 52.5t-192 137t-119 190.5t-43 214z" />
<glyph unicode="d" horiz-adv-x="1341" d="M61 567q0 161 69 295.5t188 211.5t260 77q57 0 109.5 -10.5t86.5 -25.5t60 -30t38 -25l11 -11l8 2v383h369v-1434h-310l-18 96l-8 2q-4 -4 -12.5 -11.5t-38.5 -26.5t-64 -33.5t-89.5 -26.5t-115.5 -12q-151 0 -274.5 71.5t-196 204.5t-72.5 303zM430 567 q0 -109 63 -178.5t169 -69.5q105 0 167 69.5t62 178.5q0 110 -62 180t-167 70t-168.5 -70.5t-63.5 -179.5z" />
<glyph unicode="e" horiz-adv-x="1249" d="M61 563q0 122 44.5 232.5t120.5 189.5t180 125.5t219 46.5q122 0 227.5 -46.5t179 -126t115 -189t41.5 -232.5q0 -37 -2.5 -73.5t-5.5 -53.5l-2 -18h-752q8 -57 70.5 -100.5t138.5 -43.5q142 0 213 86l246 -208q-162 -183 -443 -183q-157 0 -291.5 74t-216.5 211.5 t-82 308.5zM426 686h418q-13 74 -73 119t-136 45t-136 -45t-73 -119z" />
<glyph unicode="f" horiz-adv-x="755" d="M41 803v323h123v27q0 76 22.5 131t53 83t76.5 44t77.5 19.5t71.5 3.5h250v-230h-105q-39 0 -58.5 -18t-19.5 -60h183v-323h-183v-803h-368v803h-123z" />
<glyph unicode="g" horiz-adv-x="1333" d="M61 631q0 154 76 275t204.5 186t285.5 65q211 0 370 -121q83 115 228 115h67v-348h-127q29 -85 29 -172q0 -281 -260 -449l-283 -182h512v-307h-1009v307l215 158q-142 63 -225 186.5t-83 286.5zM430 631q0 -103 53.5 -165.5t143.5 -62.5t144 62.5t54 165.5t-54.5 166 t-143.5 63q-90 0 -143.5 -63t-53.5 -166z" />
<glyph unicode="h" horiz-adv-x="1155" d="M82 0v1434h369v-377l8 -2q41 45 105.5 70.5t137.5 25.5t140 -25.5t121.5 -74.5t87 -131.5t32.5 -186.5v-733h-368v645q0 77 -39.5 117.5t-93.5 40.5t-92.5 -40.5t-38.5 -117.5v-645h-369z" />
<glyph unicode="i" horiz-adv-x="532" d="M47 1417q0 86 63 142.5t156 56.5t156 -56.5t63 -142.5q0 -92 -61 -146t-158 -54t-158 54t-61 146zM82 0v1126h369v-1126h-369z" />
<glyph unicode="j" horiz-adv-x="532" d="M-66 -61h70q41 0 59.5 13t18.5 54v1120h369v-1153q0 -55 -11.5 -99t-29.5 -73t-45.5 -50t-53 -32t-58 -17t-54.5 -7.5t-49 -1.5h-216v246zM47 1417q0 86 63 142.5t156 56.5t156 -56.5t63 -142.5q0 -92 -61 -146t-158 -54t-158 54t-61 146z" />
<glyph unicode="k" horiz-adv-x="1183" d="M82 0v1434h369v-777h10l205 469h436l-305 -512l356 -614h-455l-235 526h-12v-526h-369z" />
<glyph unicode="l" horiz-adv-x="532" d="M82 0v1434h369v-1434h-369z" />
<glyph unicode="m" horiz-adv-x="1787" d="M82 0v1126h309l21 -102l8 -2q4 5 11.5 14t35.5 31t60 39t85 31t111 14q168 0 276 -115q121 115 297 115q84 0 160 -32.5t133.5 -90.5t92 -145.5t34.5 -190.5v-692h-368v645q0 77 -39.5 117.5t-94.5 40.5q-51 0 -89 -37.5t-42 -106.5v-659h-368v645q0 77 -39.5 117.5 t-93.5 40.5t-92.5 -40.5t-38.5 -117.5v-645h-369z" />
<glyph unicode="n" horiz-adv-x="1155" d="M82 0v1126h309l19 -96l8 -2q52 55 127 89t155 34q76 0 143.5 -26t121.5 -76t86 -131.5t32 -184.5v-733h-368v645q0 77 -39.5 117.5t-93.5 40.5t-92.5 -40.5t-38.5 -117.5v-645h-369z" />
<glyph unicode="o" horiz-adv-x="1343" d="M61 563q0 119 46.5 228t126.5 189.5t194.5 128.5t243.5 48t243.5 -48t194 -128.5t126 -189.5t46.5 -228t-46.5 -228t-126 -189.5t-194 -128.5t-243.5 -48t-243.5 48t-194.5 128.5t-126.5 189.5t-46.5 228zM430 563q0 -124 68 -200t174 -76t173.5 76t67.5 200 q0 125 -67.5 201t-173.5 76t-174 -76.5t-68 -200.5z" />
<glyph unicode="p" horiz-adv-x="1341" d="M82 -307v1433h309l19 -96l8 -2q5 5 14.5 13.5t42.5 29.5t70 37t96.5 29.5t122.5 13.5q141 0 260 -77t187.5 -211.5t68.5 -295.5q0 -170 -72.5 -303t-196 -204.5t-274.5 -71.5q-163 0 -286 75v-370h-369zM451 567q0 -109 62 -178.5t167 -69.5q106 0 168.5 69.5t62.5 178.5 t-63 179.5t-168 70.5q-104 0 -166.5 -70.5t-62.5 -179.5z" />
<glyph unicode="q" horiz-adv-x="1341" d="M61 567q0 161 69 295.5t188 211.5t260 77q63 0 122 -12.5t98 -30.5t68.5 -36.5t43.5 -31.5l14 -12l8 2l18 96h310v-1433h-369v370q-119 -75 -287 -75q-151 0 -274.5 71.5t-196 204.5t-72.5 303zM430 567q0 -109 63 -178.5t169 -69.5q103 0 166 69.5t63 178.5t-63 179.5 t-166 70.5q-105 0 -168.5 -70.5t-63.5 -179.5z" />
<glyph unicode="r" horiz-adv-x="759" d="M82 0v1126h309l19 -96l8 -2q3 5 9 13.5t27 29.5t46 37t66.5 29.5t86.5 13.5h66v-348h-80q-78 0 -133 -52.5t-55 -146.5v-604h-369z" />
<glyph unicode="s" horiz-adv-x="757" d="M41 0v287h49q46 0 74.5 27.5t28.5 78.5v340q0 210 95 314t314 104h115v-348h-53q-46 0 -74.5 -28t-28.5 -79v-307q0 -389 -350 -389h-170z" />
<glyph unicode="t" horiz-adv-x="819" d="M41 803v323h184v246h369v-246h184v-323h-184v-803h-369v803h-184z" />
<glyph unicode="u" horiz-adv-x="1155" d="M72 414v712h368v-643q0 -77 39 -117t94 -40q54 0 93 40t39 117v643h368v-1126h-309l-19 96l-8 2q-49 -52 -123.5 -80t-158.5 -28q-75 0 -143 27t-122 78t-86 133.5t-32 185.5z" />
<glyph unicode="v" horiz-adv-x="1253" d="M31 1126h411l176 -772h15l178 772h412l-367 -1126h-459z" />
<glyph unicode="w" horiz-adv-x="1767" d="M31 1126h395l119 -778h12l129 402l-137 376h670l-138 -376l127 -402h13l120 778h396l-264 -1126h-457l-133 383l-131 -383h-457z" />
<glyph unicode="x" horiz-adv-x="1234" d="M31 0l366 604l-336 522h426l129 -274l132 274h426l-336 -522l366 -604h-434l-154 309l-151 -309h-434z" />
<glyph unicode="y" horiz-adv-x="1271" d="M31 1126h409l203 -571l188 571h410l-563 -1433h-385l156 436z" />
<glyph unicode="z" horiz-adv-x="1028" d="M31 0l403 803h-364l137 323h790l-417 -802h411l-137 -324h-823z" />
<glyph unicode="{" horiz-adv-x="763" d="M41 575v324h82q41 0 59.5 13.5t18.5 54.5v309q0 76 20.5 131t48 83t70 44t72.5 19t69 3h242v-245h-107q-41 0 -59 -13.5t-18 -54.5v-315q0 -73 -43 -129t-105 -62q62 -6 105 -61.5t43 -128.5v-357q0 -41 18 -54t59 -13h107v-246h-242q-27 0 -48 1.5t-51.5 8t-54 17.5 t-48 32t-41 50t-27 73t-10.5 99v350q0 41 -18.5 54t-59.5 13h-82z" />
<glyph unicode="|" horiz-adv-x="522" d="M82 -123v1679h358v-1679h-358z" />
<glyph unicode="}" horiz-adv-x="763" d="M41 -123v246h106q41 0 59.5 13t18.5 54v357q0 73 42 128.5t106 61.5q-63 6 -105.5 62t-42.5 129v315q0 41 -18.5 54.5t-59.5 13.5h-106v245h242q39 0 69 -3t72.5 -19t70 -44t48 -83t20.5 -131v-309q0 -41 18.5 -54.5t59.5 -13.5h82v-324h-82q-41 0 -59.5 -13t-18.5 -54 v-350q0 -55 -10.5 -99t-27 -73t-41 -50t-48 -32t-54 -17.5t-51.5 -8t-48 -1.5h-242z" />
<glyph unicode="~" horiz-adv-x="942" d="M51 408v145q0 99 55.5 155t151.5 56h29q79 0 137 -27l170 -73v88h297v-146q0 -98 -55.5 -154.5t-151.5 -56.5h-29q-79 0 -137 27l-170 74v-88h-297z" />
<glyph unicode="&#xa1;" horiz-adv-x="557" d="M72 938q0 89 58 144t149 55t148.5 -55t57.5 -144q0 -81 -59.5 -140t-146.5 -59t-147 59t-60 140zM94 -307l21 917h327l21 -917h-369z" />
<glyph unicode="&#xa2;" horiz-adv-x="1159" d="M61 563q0 122 52 238.5t153.5 207t233.5 126.5v176h327v-172q144 -33 267 -144l-179 -243q-3 4 -9.5 9.5t-28 21t-44.5 27t-59.5 21t-73.5 9.5q-117 0 -193.5 -80t-76.5 -197q0 -118 76.5 -196t200.5 -78q40 0 78.5 10.5t65 25.5t47 30t30.5 25l10 11l180 -244 q-134 -125 -291 -159v-172h-327v176q-132 36 -233.5 126.5t-153.5 206.5t-52 238z" />
<glyph unicode="&#xa3;" horiz-adv-x="1148" d="M27 4v184q0 125 70 196t192 71h30l-40 65h-228v324h58q-27 86 -27 151q0 208 132 340.5t345 132.5q67 0 129 -15.5t106.5 -40t83 -54t64 -59t43 -54t25.5 -39.5l8 -16l-201 -244q-67 108 -120.5 146t-114.5 38q-56 0 -93.5 -39t-37.5 -100t47 -147h393v-324h-199 l105 -174v94h377v-184q0 -125 -71 -196.5t-192 -71.5h-37q-99 0 -174 32l-297 95v-111h-376z" />
<glyph unicode="&#xa5;" horiz-adv-x="1363" d="M61 1434h400l221 -555l221 555h400l-156 -308h135v-323h-299l-45 -90h344v-324h-416l11 -389h-390l9 389h-414v324h344l-47 90h-297v323h133z" />
<glyph unicode="&#xa6;" horiz-adv-x="522" d="M82 -123v666h358v-666h-358zM82 932v624h358v-624h-358z" />
<glyph unicode="&#xa8;" horiz-adv-x="1576" d="M410 1372q0 68 47.5 113t117.5 45t119 -45t49 -113t-49 -111.5t-119 -43.5t-117.5 43.5t-47.5 111.5zM834 1372q0 68 47.5 113t117.5 45t119 -45t49 -113t-49 -111.5t-119 -43.5t-117.5 43.5t-47.5 111.5z" />
<glyph unicode="&#xa9;" horiz-adv-x="1634" d="M61 717q0 210 103 382.5t276 268.5t377 96t377 -96t276 -268.5t103 -382.5q0 -158 -60.5 -298t-162.5 -238t-241 -155t-292 -57t-292 57t-241 155t-162.5 238t-60.5 298zM307 717q0 -146 69 -263.5t185 -182t256 -64.5t256 64.5t185 182t69 263.5t-69 263.5t-185 182 t-256 64.5t-256 -64.5t-185 -182t-69 -263.5zM426 717q0 -158 113 -274.5t276 -116.5q96 0 163.5 23t123.5 73l-105 151q-69 -59 -166 -59q-86 0 -143 59t-57 144t57.5 144t149.5 59q83 0 145 -56l104 150q-60 48 -123 71t-149 23q-168 0 -278.5 -116t-110.5 -275z" />
<glyph unicode="&#xab;" horiz-adv-x="1167" d="M61 563l205 461h328l-205 -461l205 -461h-328zM573 563l205 461h328l-205 -461l205 -461h-328z" />
<glyph unicode="&#xac;" horiz-adv-x="942" d="M51 418v323h830v-604h-349v281h-481z" />
<glyph unicode="&#xad;" horiz-adv-x="696" d="M51 418v323h594v-323h-594z" />
<glyph unicode="&#xaf;" horiz-adv-x="1536" d="M410 1249v226h716v-226h-716z" />
<glyph unicode="&#xb1;" horiz-adv-x="942" d="M51 0v324h840v-324h-840zM51 608v324h246v194h348v-194h246v-324h-246v-194h-348v194h-246z" />
<glyph unicode="&#xb2;" horiz-adv-x="731" d="M20 1284q96 166 289 166q132 0 212.5 -76t80.5 -186q0 -102 -57 -187l-60 -94h205l-104 -231h-541l164 270q6 10 27.5 44.5t30.5 50t23 40.5t19.5 40.5t5.5 25.5q0 21 -14 35t-35 14q-41 0 -96 -86z" />
<glyph unicode="&#xb3;" horiz-adv-x="714" d="M20 758l101 215q61 -58 139 -58q46 0 75.5 21t29.5 53q0 62 -93 62h-141l70 155h-160l90 228h477l-106 -203q72 -37 111.5 -106t39.5 -148q0 -59 -23 -115t-67 -101.5t-116.5 -73.5t-161.5 -28q-46 0 -90.5 10t-75 24.5t-54 29.5t-34.5 25z" />
<glyph unicode="&#xb4;" horiz-adv-x="1386" d="M410 1249l65 269h502l-272 -269h-295z" />
<glyph unicode="&#xb5;" horiz-adv-x="1251" d="M82 -184v1310h369v-643q0 -77 39 -117t94 -40q51 0 91 40.5t40 116.5v643h368v-813q0 -41 18.5 -54t59.5 -13h49v-246h-192q-49 0 -92 13t-68 29.5t-46 39t-27.5 32.5t-10.5 19q-23 -34 -40 -50q-87 -83 -240 -83h-43v-184h-369z" />
<glyph unicode="&#xb6;" horiz-adv-x="1327" d="M41 997q0 181 139 309t336 128h729v-1434h-307v1147h-156v-1147h-307v563q-181 0 -307.5 126.5t-126.5 307.5z" />
<glyph unicode="&#xb7;" horiz-adv-x="516" d="M51 604q0 81 60 140t147 59t147 -59t60 -140q0 -89 -58 -143.5t-149 -54.5t-149 54.5t-58 143.5z" />
<glyph unicode="&#xb8;" horiz-adv-x="1159" d="M410 -96h65q31 0 43 12t12 43v61h109q74 0 116 -35t42 -91v-27q0 -56 -42 -91.5t-116 -35.5h-229v164z" />
<glyph unicode="&#xb9;" horiz-adv-x="509" d="M41 1202v232h387v-758h-293v526h-94z" />
<glyph unicode="&#xbb;" horiz-adv-x="1167" d="M61 102l205 461l-205 461h328l205 -461l-205 -461h-328zM573 102l205 461l-205 461h328l205 -461l-205 -461h-328z" />
<glyph unicode="&#xbc;" horiz-adv-x="1615" d="M41 1202v232h387v-758h-293v526h-94zM244 0l678 1434h317l-678 -1434h-317zM870 260l238 498h311l-131 -266h246v-492h-293v260h-371z" />
<glyph unicode="&#xbd;" horiz-adv-x="1703" d="M41 1202v232h387v-758h-293v526h-94zM244 0l678 1434h317l-678 -1434h-317zM993 608q96 166 289 166q132 0 212.5 -76t80.5 -186q0 -101 -57 -186l-60 -95h205l-104 -231h-541l164 270q6 10 27.5 44.5t30.5 50t23 40.5t19.5 40.5t5.5 25.5q0 21 -14 35t-35 14 q-41 0 -96 -86z" />
<glyph unicode="&#xbe;" horiz-adv-x="1738" d="M20 758l101 215q61 -58 139 -58q46 0 75.5 21t29.5 53q0 62 -93 62h-141l70 155h-160l90 228h477l-106 -203q72 -37 111.5 -106t39.5 -148q0 -59 -23 -115t-67 -101.5t-116.5 -73.5t-161.5 -28q-46 0 -90.5 10t-75 24.5t-54 29.5t-34.5 25zM367 0l677 1434h318 l-678 -1434h-317zM993 260l238 498h311l-131 -266h246v-492h-293v260h-371z" />
<glyph unicode="&#xbf;" horiz-adv-x="847" d="M51 43q0 80 31 144.5t86 131.5l49 60q52 63 76 114t24 107v10h342v-47q0 -79 -26.5 -143.5t-79.5 -130.5l-43 -53q-31 -38 -46.5 -58t-29.5 -46.5t-14 -45.5q0 -34 26 -53t70 -19q88 0 191 70l120 -301q-66 -49 -161 -85t-199 -36q-115 0 -208.5 43t-150.5 131t-57 207z M283 938q0 89 57.5 144t148.5 55t149 -55t58 -144q0 -81 -60 -140t-147 -59t-146.5 59t-59.5 140z" />
<glyph unicode="&#xc0;" horiz-adv-x="1441" d="M61 0l383 1434h553l383 -1434h-409l-60 266h-383l-57 -266h-410zM465 1518l57 227l439 -184l-13 -43h-483zM604 614h232l-109 490h-14z" />
<glyph unicode="&#xc1;" horiz-adv-x="1441" d="M61 0l383 1434h553l383 -1434h-409l-60 266h-383l-57 -266h-410zM479 1561l434 184l62 -227h-483zM604 614h232l-109 490h-14z" />
<glyph unicode="&#xc2;" horiz-adv-x="1441" d="M61 0l383 1434h553l383 -1434h-409l-60 266h-383l-57 -266h-410zM377 1518l209 196h266l209 -196h-232l-110 79l-111 -79h-231zM604 614h232l-109 490h-14z" />
<glyph unicode="&#xc3;" horiz-adv-x="1441" d="M61 0l383 1434h553l383 -1434h-409l-60 266h-383l-57 -266h-410zM432 1528v92q0 60 33.5 92.5t89.5 32.5q17 0 39 -4.5t36.5 -9t39 -13t30.5 -10.5l117 -41v68h189v-93q0 -60 -33.5 -92t-89.5 -32q-17 0 -40 4.5t-35.5 8t-41 13.5t-29.5 10l-116 41v-67h-189zM604 614 h232l-109 490h-14z" />
<glyph unicode="&#xc4;" horiz-adv-x="1441" d="M61 0l383 1434h553l383 -1434h-409l-60 266h-383l-57 -266h-410zM416 1630q0 55 38.5 90t94.5 35q57 0 96 -35t39 -90q0 -54 -39 -88.5t-96 -34.5t-95 34t-38 89zM604 614h232l-109 490h-14zM754 1630q0 55 38.5 90t94.5 35q57 0 96 -35t39 -90q0 -54 -39 -88.5 t-96 -34.5t-95 34t-38 89z" />
<glyph unicode="&#xc5;" horiz-adv-x="1441" d="M61 0l383 1434h164q-80 51 -80 145q0 77 55.5 126.5t135.5 49.5q79 0 134.5 -49.5t55.5 -126.5q0 -92 -80 -145h168l383 -1434h-409l-60 266h-383l-57 -266h-410zM604 614h232l-109 490h-14zM662 1579q0 -27 15.5 -44t41.5 -17t41.5 17t15.5 44t-15.5 44t-41.5 17 t-41.5 -17t-15.5 -44z" />
<glyph unicode="&#xc6;" horiz-adv-x="2007" d="M61 0l609 1434h1167l84 -338h-276l86 -283h-388v-465h603l-88 -348h-904v266h-356l-106 -266h-431zM739 614h215v490h-16z" />
<glyph unicode="&#xc7;" horiz-adv-x="1425" d="M72 717q0 147 55 283t151 238.5t236 164t299 61.5q166 0 287.5 -43.5t234.5 -134.5l-198 -289q-57 51 -131 80t-150 29q-173 0 -284 -113.5t-111 -275.5t110 -275.5t275 -113.5q183 0 317 114l201 -288q-88 -78 -187.5 -122t-228.5 -57q33 -33 33 -81v-27 q0 -56 -42 -91.5t-116 -35.5h-229v164h65q31 0 43.5 12t12.5 43v18q-183 24 -331 131t-230 267.5t-82 341.5z" />
<glyph unicode="&#xc8;" horiz-adv-x="1144" d="M92 0v1434h883l84 -338h-277l86 -283h-387v-465h602l-88 -348h-903zM295 1518l57 227l439 -184l-13 -43h-483z" />
<glyph unicode="&#xc9;" horiz-adv-x="1144" d="M92 0v1434h883l84 -338h-277l86 -283h-387v-465h602l-88 -348h-903zM457 1561l434 184l61 -227h-483z" />
<glyph unicode="&#xca;" horiz-adv-x="1144" d="M92 0v1434h883l84 -338h-277l86 -283h-387v-465h602l-88 -348h-903zM195 1518l208 196h267l209 -196h-232l-110 79l-111 -79h-231z" />
<glyph unicode="&#xcb;" horiz-adv-x="1144" d="M92 0v1434h883l84 -338h-277l86 -283h-387v-465h602l-88 -348h-903zM233 1630q0 55 39 90t95 35q57 0 96 -35t39 -90q0 -54 -39 -88.5t-96 -34.5t-95.5 34.5t-38.5 88.5zM571 1630q0 55 39 90t95 35q57 0 96 -35t39 -90q0 -54 -39 -88.5t-96 -34.5t-95.5 34.5t-38.5 88.5 z" />
<glyph unicode="&#xcc;" horiz-adv-x="573" d="M0 1518l57 227l439 -184l-13 -43h-483zM92 0v1434h389v-1434h-389z" />
<glyph unicode="&#xcd;" horiz-adv-x="573" d="M78 1561l434 184l61 -227h-483zM92 0v1434h389v-1434h-389z" />
<glyph unicode="&#xce;" horiz-adv-x="573" d="M-55 1518l209 196h266l209 -196h-232l-110 79l-111 -79h-231zM92 0v1434h389v-1434h-389z" />
<glyph unicode="&#xcf;" horiz-adv-x="573" d="M-16 1630q0 55 38.5 90t94.5 35q57 0 96 -35t39 -90q0 -54 -39 -88.5t-96 -34.5t-95 34t-38 89zM92 0v1434h389v-1434h-389zM322 1630q0 55 38.5 90t94.5 35q57 0 96 -35t39 -90q0 -54 -39 -88.5t-96 -34.5t-95 34t-38 89z" />
<glyph unicode="&#xd0;" horiz-adv-x="1456" d="M41 563v348h184v523h494q100 0 195 -26.5t180.5 -83.5t150 -137.5t102 -196.5t37.5 -253q0 -149 -38 -273t-101.5 -208.5t-149.5 -143t-180.5 -85.5t-195.5 -27h-494v563h-184zM614 348h84q127 0 212 105t85 284q0 161 -81 254.5t-195 93.5h-105v-174h185v-348h-185v-215 z" />
<glyph unicode="&#xd1;" horiz-adv-x="1282" d="M92 0v1434h359l350 -467v467h389v-1434h-389v426l-320 416v-842h-389zM354 1528v92q0 60 33.5 92.5t89.5 32.5q17 0 39.5 -4.5t37 -9t39.5 -13t30 -10.5l116 -41v68h189v-93q0 -60 -33.5 -92t-89.5 -32q-17 0 -40 4.5t-35.5 8t-41 13.5t-29.5 10l-116 41v-67h-189z" />
<glyph unicode="&#xd2;" horiz-adv-x="1617" d="M72 717q0 154 56 292t152.5 238t234 158.5t294.5 58.5t294.5 -58.5t234 -158.5t152.5 -238t56 -292q0 -206 -94.5 -377t-264 -271t-378.5 -100t-378.5 100t-264 271t-94.5 377zM461 717q0 -168 96 -278.5t252 -110.5t252 110.5t96 278.5t-96 278.5t-252 110.5 t-252 -110.5t-96 -278.5zM567 1518l58 227l438 -184l-12 -43h-484z" />
<glyph unicode="&#xd3;" horiz-adv-x="1617" d="M72 717q0 154 56 292t152.5 238t234 158.5t294.5 58.5t294.5 -58.5t234 -158.5t152.5 -238t56 -292q0 -206 -94.5 -377t-264 -271t-378.5 -100t-378.5 100t-264 271t-94.5 377zM461 717q0 -168 96 -278.5t252 -110.5t252 110.5t96 278.5t-96 278.5t-252 110.5 t-252 -110.5t-96 -278.5zM555 1561l434 184l62 -227h-484z" />
<glyph unicode="&#xd4;" horiz-adv-x="1617" d="M72 717q0 154 56 292t152.5 238t234 158.5t294.5 58.5t294.5 -58.5t234 -158.5t152.5 -238t56 -292q0 -206 -94.5 -377t-264 -271t-378.5 -100t-378.5 100t-264 271t-94.5 377zM461 717q0 -168 96 -278.5t252 -110.5t252 110.5t96 278.5t-96 278.5t-252 110.5 t-252 -110.5t-96 -278.5zM467 1518l209 196h266l209 -196h-231l-111 79l-111 -79h-231z" />
<glyph unicode="&#xd5;" horiz-adv-x="1617" d="M72 717q0 154 56 292t152.5 238t234 158.5t294.5 58.5t294.5 -58.5t234 -158.5t152.5 -238t56 -292q0 -206 -94.5 -377t-264 -271t-378.5 -100t-378.5 100t-264 271t-94.5 377zM461 717q0 -168 96 -278.5t252 -110.5t252 110.5t96 278.5t-96 278.5t-252 110.5 t-252 -110.5t-96 -278.5zM522 1528v92q0 60 33.5 92.5t89.5 32.5q17 0 39.5 -4.5t37 -9t39.5 -13t30 -10.5l116 -41v68h189v-93q0 -60 -33.5 -92t-89.5 -32q-17 0 -40 4.5t-35.5 8t-41 13.5t-29.5 10l-116 41v-67h-189z" />
<glyph unicode="&#xd6;" horiz-adv-x="1617" d="M72 717q0 154 56 292t152.5 238t234 158.5t294.5 58.5t294.5 -58.5t234 -158.5t152.5 -238t56 -292q0 -206 -94.5 -377t-264 -271t-378.5 -100t-378.5 100t-264 271t-94.5 377zM461 717q0 -168 96 -278.5t252 -110.5t252 110.5t96 278.5t-96 278.5t-252 110.5 t-252 -110.5t-96 -278.5zM506 1630q0 55 38.5 90t94.5 35q57 0 96 -35t39 -90q0 -54 -39 -88.5t-96 -34.5t-95 34t-38 89zM844 1630q0 55 38.5 90t94.5 35q57 0 96 -35t39 -90q0 -54 -39 -88.5t-96 -34.5t-95 34t-38 89z" />
<glyph unicode="&#xd7;" horiz-adv-x="933" d="M41 383l197 197l-197 196l229 230l197 -197l197 197l229 -230l-197 -196l197 -197l-229 -229l-197 196l-197 -196z" />
<glyph unicode="&#xd8;" horiz-adv-x="1617" d="M72 717q0 154 56 292t152.5 238t234 158.5t294.5 58.5q132 0 256 -43l65 97h359l-164 -261q104 -103 162.5 -243t58.5 -297q0 -206 -94.5 -377t-264 -271t-378.5 -100q-131 0 -258 43l-64 -96h-358l162 260q-104 103 -161.5 242.5t-57.5 298.5zM461 717q0 -111 45 -203 l360 588q-36 4 -57 4q-156 0 -252 -110.5t-96 -278.5zM745 332q40 -4 64 -4q156 0 252 110.5t96 278.5q0 117 -47 203z" />
<glyph unicode="&#xd9;" d="M82 512v922h389v-922q0 -75 40 -124.5t120 -49.5t120 49.5t40 124.5v922h389v-922q0 -233 -153 -388t-396 -155t-396 155t-153 388zM389 1518l57 227l439 -184l-13 -43h-483z" />
<glyph unicode="&#xda;" d="M82 512v922h389v-922q0 -75 40 -124.5t120 -49.5t120 49.5t40 124.5v922h389v-922q0 -233 -153 -388t-396 -155t-396 155t-153 388zM377 1561l434 184l61 -227h-483z" />
<glyph unicode="&#xdb;" d="M82 512v922h389v-922q0 -75 40 -124.5t120 -49.5t120 49.5t40 124.5v922h389v-922q0 -233 -153 -388t-396 -155t-396 155t-153 388zM289 1518l209 196h266l209 -196h-232l-110 79l-111 -79h-231z" />
<glyph unicode="&#xdc;" d="M82 512v922h389v-922q0 -75 40 -124.5t120 -49.5t120 49.5t40 124.5v922h389v-922q0 -233 -153 -388t-396 -155t-396 155t-153 388zM328 1630q0 55 38.5 90t94.5 35q57 0 96 -35t39 -90q0 -54 -39 -88.5t-96 -34.5t-95 34t-38 89zM666 1630q0 55 38.5 90t94.5 35 q57 0 96 -35t39 -90q0 -54 -39 -88.5t-96 -34.5t-95 34t-38 89z" />
<glyph unicode="&#xdd;" horiz-adv-x="1421" d="M61 1434h441l209 -525l209 525h440l-449 -871l15 -563h-430l14 563zM457 1561l434 184l61 -227h-483z" />
<glyph unicode="&#xde;" horiz-adv-x="1292" d="M92 0v1434h389v-185h146q275 0 434.5 -141.5t159.5 -380.5q0 -119 -49.5 -219t-132.5 -165.5t-189.5 -101.5t-222.5 -36h-146v-205h-389zM481 553h146q90 0 147 51.5t57 122.5q0 76 -53 125t-131 49h-166v-348z" />
<glyph unicode="&#xdf;" horiz-adv-x="1222" d="M82 0v963q0 134 60 247.5t175.5 183.5t264.5 70q112 0 207.5 -38t159 -101t99 -144t35.5 -169q0 -155 -96 -242q29 -20 55.5 -46.5t55.5 -68t46 -100.5t17 -127q0 -115 -57.5 -214.5t-149.5 -156.5t-194 -57h-203v344h80q68 0 112 36t44 93q0 56 -42 92.5t-100 36.5h-94 v252h23q62 0 97.5 42.5t35.5 96.5q0 51 -33.5 89t-91.5 38q-59 0 -98 -41.5t-39 -122.5v-956h-369z" />
<glyph unicode="&#xe0;" d="M61 494q0 193 120.5 331t281.5 138v163h717v-1126h-310l-18 98l-8 2q-4 -5 -12 -12.5t-35.5 -26.5t-58.5 -34t-80.5 -27t-102.5 -12q-223 0 -358.5 142.5t-135.5 363.5zM401 1518h502l66 -269h-295zM430 510q0 -85 53 -132.5t127 -47.5q81 0 141 56.5t60 158.5v149 q-49 27 -141 27q-107 0 -173.5 -58.5t-66.5 -152.5z" />
<glyph unicode="&#xe1;" d="M61 494q0 193 120.5 331t281.5 138v163h717v-1126h-310l-18 98l-8 2q-4 -5 -12 -12.5t-35.5 -26.5t-58.5 -34t-80.5 -27t-102.5 -12q-223 0 -358.5 142.5t-135.5 363.5zM430 510q0 -85 53 -132.5t127 -47.5q81 0 141 56.5t60 158.5v149q-49 27 -141 27 q-107 0 -173.5 -58.5t-66.5 -152.5zM674 1249l65 269h502l-272 -269h-295z" />
<glyph unicode="&#xe2;" d="M61 494q0 193 120.5 331t281.5 138v163h717v-1126h-310l-18 98l-8 2q-4 -5 -12 -12.5t-35.5 -26.5t-58.5 -34t-80.5 -27t-102.5 -12q-223 0 -358.5 142.5t-135.5 363.5zM395 1249l240 269h373l239 -269h-340l-86 105l-86 -105h-340zM430 510q0 -85 53 -132.5t127 -47.5 q81 0 141 56.5t60 158.5v149q-49 27 -141 27q-107 0 -173.5 -58.5t-66.5 -152.5z" />
<glyph unicode="&#xe3;" d="M61 494q0 193 120.5 331t281.5 138v163h717v-1126h-310l-18 98l-8 2q-4 -5 -12 -12.5t-35.5 -26.5t-58.5 -34t-80.5 -27t-102.5 -12q-223 0 -358.5 142.5t-135.5 363.5zM430 510q0 -85 53 -132.5t127 -47.5q81 0 141 56.5t60 158.5v149q-49 27 -141 27 q-107 0 -173.5 -58.5t-66.5 -152.5zM463 1249v99q0 84 47 132t129 48h25q64 0 116 -23l146 -63v76h254v-99q0 -84 -47 -132t-129 -48h-25q-65 0 -117 23l-145 63v-76h-254z" />
<glyph unicode="&#xe4;" d="M61 494q0 193 120.5 331t281.5 138v163h717v-1126h-310l-18 98l-8 2q-4 -5 -12 -12.5t-35.5 -26.5t-58.5 -34t-80.5 -27t-102.5 -12q-223 0 -358.5 142.5t-135.5 363.5zM430 510q0 -85 53 -132.5t127 -47.5q81 0 141 56.5t60 158.5v149q-49 27 -141 27 q-107 0 -173.5 -58.5t-66.5 -152.5zM442 1372q0 68 48 113t118 45t119 -45t49 -113t-49 -111.5t-119 -43.5t-118 43.5t-48 111.5zM866 1372q0 68 48 113t118 45t119 -45t49 -113t-49 -111.5t-119 -43.5t-118 43.5t-48 111.5z" />
<glyph unicode="&#xe5;" d="M61 494q0 193 120.5 331t281.5 138v163h717v-1126h-310l-18 98l-8 2q-4 -5 -12 -12.5t-35.5 -26.5t-58.5 -34t-80.5 -27t-102.5 -12q-223 0 -358.5 142.5t-135.5 363.5zM430 510q0 -85 53 -132.5t127 -47.5q81 0 141 56.5t60 158.5v149q-49 27 -141 27 q-107 0 -173.5 -58.5t-66.5 -152.5zM612 1415q0 85 60.5 143t148.5 58t149.5 -58.5t61.5 -142.5t-61.5 -141t-149.5 -57t-148.5 57t-60.5 141zM758 1415q0 -27 18 -45t45 -18t45.5 18t18.5 45t-18.5 45.5t-45.5 18.5t-45 -18.5t-18 -45.5z" />
<glyph unicode="&#xe6;" horiz-adv-x="2084" d="M61 494q0 193 120.5 331t281.5 138v163h645v-79l16 -7q149 117 336 117q122 0 227.5 -46.5t179 -126t115 -189t41.5 -232.5q0 -37 -2.5 -73.5t-4.5 -53.5l-3 -18h-751q8 -57 70 -100.5t138 -43.5q142 0 213 86l246 -208q-162 -183 -442 -183q-137 0 -258 57t-203 160 q-80 -105 -201 -161t-252 -56q-100 0 -190.5 33.5t-163 96.5t-115.5 165.5t-43 229.5zM430 510q0 -93 52.5 -143t127.5 -50q80 0 140.5 56.5t60.5 156.5v164q-49 27 -141 27q-118 0 -179 -62.5t-61 -148.5zM1262 686h417q-13 74 -73 119t-136 45t-135.5 -45t-72.5 -119z" />
<glyph unicode="&#xe7;" horiz-adv-x="1159" d="M61 563q0 108 43 214t119 190.5t192 137t249 52.5q132 0 234.5 -39t195.5 -123l-179 -243q-3 4 -9.5 9.5t-28 21t-44.5 27t-59.5 21t-73.5 9.5q-117 0 -193.5 -80t-76.5 -197q0 -118 76.5 -196t200.5 -78q40 0 78.5 10.5t65 25.5t47 30t30.5 25l10 11l180 -244 q-151 -138 -323 -165q36 -33 36 -88v-27q0 -56 -41.5 -91.5t-115.5 -35.5h-230v164h66q31 0 43 12t12 43v18q-150 24 -267 115t-177 215t-60 256z" />
<glyph unicode="&#xe8;" horiz-adv-x="1249" d="M61 563q0 122 44.5 232.5t120.5 189.5t180 125.5t219 46.5q122 0 227.5 -46.5t179 -126t115 -189t41.5 -232.5q0 -37 -2.5 -73.5t-5.5 -53.5l-2 -18h-752q8 -57 70.5 -100.5t138.5 -43.5q142 0 213 86l246 -208q-162 -183 -443 -183q-157 0 -291.5 74t-216.5 211.5 t-82 308.5zM205 1518h502l65 -269h-295zM426 686h418q-13 74 -73 119t-136 45t-136 -45t-73 -119z" />
<glyph unicode="&#xe9;" horiz-adv-x="1249" d="M61 563q0 122 44.5 232.5t120.5 189.5t180 125.5t219 46.5q122 0 227.5 -46.5t179 -126t115 -189t41.5 -232.5q0 -37 -2.5 -73.5t-5.5 -53.5l-2 -18h-752q8 -57 70.5 -100.5t138.5 -43.5q142 0 213 86l246 -208q-162 -183 -443 -183q-157 0 -291.5 74t-216.5 211.5 t-82 308.5zM426 686h418q-13 74 -73 119t-136 45t-136 -45t-73 -119zM477 1249l66 269h501l-272 -269h-295z" />
<glyph unicode="&#xea;" horiz-adv-x="1249" d="M61 563q0 122 44.5 232.5t120.5 189.5t180 125.5t219 46.5q122 0 227.5 -46.5t179 -126t115 -189t41.5 -232.5q0 -37 -2.5 -73.5t-5.5 -53.5l-2 -18h-752q8 -57 70.5 -100.5t138.5 -43.5q142 0 213 86l246 -208q-162 -183 -443 -183q-157 0 -291.5 74t-216.5 211.5 t-82 308.5zM199 1249l239 269h373l240 -269h-340l-86 105l-86 -105h-340zM426 686h418q-13 74 -73 119t-136 45t-136 -45t-73 -119z" />
<glyph unicode="&#xeb;" horiz-adv-x="1249" d="M61 563q0 122 44.5 232.5t120.5 189.5t180 125.5t219 46.5q122 0 227.5 -46.5t179 -126t115 -189t41.5 -232.5q0 -37 -2.5 -73.5t-5.5 -53.5l-2 -18h-752q8 -57 70.5 -100.5t138.5 -43.5q142 0 213 86l246 -208q-162 -183 -443 -183q-157 0 -291.5 74t-216.5 211.5 t-82 308.5zM246 1372q0 68 48 113t118 45t119 -45t49 -113t-49 -111.5t-119 -43.5t-118 43.5t-48 111.5zM426 686h418q-13 74 -73 119t-136 45t-136 -45t-73 -119zM670 1372q0 68 48 113t118 45t119 -45t49 -113t-49 -111.5t-119 -43.5t-118 43.5t-48 111.5z" />
<glyph unicode="&#xec;" horiz-adv-x="532" d="M-117 1518h502l66 -269h-295zM82 0v1126h369v-1126h-369z" />
<glyph unicode="&#xed;" horiz-adv-x="532" d="M82 0v1126h369v-1126h-369zM82 1249l65 269h502l-272 -269h-295z" />
<glyph unicode="&#xee;" horiz-adv-x="532" d="M-160 1249l240 269h373l239 -269h-340l-86 105l-86 -105h-340zM82 0v1126h369v-1126h-369z" />
<glyph unicode="&#xef;" horiz-adv-x="532" d="M-113 1372q0 68 48 113t118 45t119 -45t49 -113t-49 -111.5t-119 -43.5t-118 43.5t-48 111.5zM82 0v1126h369v-1126h-369zM311 1372q0 68 48 113t118 45t119 -45t49 -113t-49 -111.5t-119 -43.5t-118 43.5t-48 111.5z" />
<glyph unicode="&#xf0;" horiz-adv-x="1302" d="M61 522q0 237 141.5 386t364.5 149q56 0 103 -8l8 6l-49 84l-135 -29l-74 147l127 27l-86 150h389l39 -78l131 28l74 -147l-129 -29l192 -370q84 -164 84 -316q0 -112 -43 -213t-119.5 -176.5t-187.5 -119.5t-240 -44t-240 44t-187.5 119.5t-119.5 176.5t-43 213z M430 522q0 -99 60 -167t161 -68t161 68t60 167t-60 167.5t-161 68.5t-161 -68.5t-60 -167.5z" />
<glyph unicode="&#xf1;" horiz-adv-x="1155" d="M82 0v1126h309l19 -96l8 -2q52 55 127 89t155 34q76 0 143.5 -26t121.5 -76t86 -131.5t32 -184.5v-733h-368v645q0 77 -39.5 117.5t-93.5 40.5t-92.5 -40.5t-38.5 -117.5v-645h-369zM227 1249v99q0 84 47 132t129 48h25q65 0 117 -23l145 -63v76h254v-99q0 -84 -47 -132 t-129 -48h-25q-64 0 -116 23l-146 63v-76h-254z" />
<glyph unicode="&#xf2;" horiz-adv-x="1343" d="M61 563q0 119 46.5 228t126.5 189.5t194.5 128.5t243.5 48t243.5 -48t194 -128.5t126 -189.5t46.5 -228t-46.5 -228t-126 -189.5t-194 -128.5t-243.5 -48t-243.5 48t-194.5 128.5t-126.5 189.5t-46.5 228zM252 1518h502l65 -269h-295zM430 563q0 -124 68 -200t174 -76 t173.5 76t67.5 200q0 125 -67.5 201t-173.5 76t-174 -76.5t-68 -200.5z" />
<glyph unicode="&#xf3;" horiz-adv-x="1343" d="M61 563q0 119 46.5 228t126.5 189.5t194.5 128.5t243.5 48t243.5 -48t194 -128.5t126 -189.5t46.5 -228t-46.5 -228t-126 -189.5t-194 -128.5t-243.5 -48t-243.5 48t-194.5 128.5t-126.5 189.5t-46.5 228zM430 563q0 -124 68 -200t174 -76t173.5 76t67.5 200 q0 125 -67.5 201t-173.5 76t-174 -76.5t-68 -200.5zM524 1249l66 269h502l-273 -269h-295z" />
<glyph unicode="&#xf4;" horiz-adv-x="1343" d="M61 563q0 119 46.5 228t126.5 189.5t194.5 128.5t243.5 48t243.5 -48t194 -128.5t126 -189.5t46.5 -228t-46.5 -228t-126 -189.5t-194 -128.5t-243.5 -48t-243.5 48t-194.5 128.5t-126.5 189.5t-46.5 228zM246 1249l239 269h373l240 -269h-340l-86 105l-86 -105h-340z M430 563q0 -124 68 -200t174 -76t173.5 76t67.5 200q0 125 -67.5 201t-173.5 76t-174 -76.5t-68 -200.5z" />
<glyph unicode="&#xf5;" horiz-adv-x="1343" d="M61 563q0 119 46.5 228t126.5 189.5t194.5 128.5t243.5 48t243.5 -48t194 -128.5t126 -189.5t46.5 -228t-46.5 -228t-126 -189.5t-194 -128.5t-243.5 -48t-243.5 48t-194.5 128.5t-126.5 189.5t-46.5 228zM313 1249v99q0 84 47 132t129 48h25q65 0 117 -23l145 -63v76 h254v-99q0 -84 -47 -132t-129 -48h-25q-64 0 -116 23l-146 63v-76h-254zM430 563q0 -124 68 -200t174 -76t173.5 76t67.5 200q0 125 -67.5 201t-173.5 76t-174 -76.5t-68 -200.5z" />
<glyph unicode="&#xf6;" horiz-adv-x="1343" d="M61 563q0 119 46.5 228t126.5 189.5t194.5 128.5t243.5 48t243.5 -48t194 -128.5t126 -189.5t46.5 -228t-46.5 -228t-126 -189.5t-194 -128.5t-243.5 -48t-243.5 48t-194.5 128.5t-126.5 189.5t-46.5 228zM293 1372q0 68 48 113t118 45t119 -45t49 -113t-49 -111.5 t-119 -43.5t-118 43.5t-48 111.5zM430 563q0 -124 68 -200t174 -76t173.5 76t67.5 200q0 125 -67.5 201t-173.5 76t-174 -76.5t-68 -200.5zM717 1372q0 68 48 113t118 45t119 -45t49 -113t-49 -111.5t-119 -43.5t-118 43.5t-48 111.5z" />
<glyph unicode="&#xf7;" horiz-adv-x="942" d="M51 432v262h840v-262h-840zM264 188q0 81 60 140t147 59t147 -59t60 -140q0 -89 -58 -143.5t-149 -54.5t-149 54.5t-58 143.5zM264 938q0 81 60 140t147 59t147 -59t60 -140q0 -89 -58 -144t-149 -55t-149 55t-58 144z" />
<glyph unicode="&#xf8;" horiz-adv-x="1343" d="M61 563q0 119 46.5 228t126.5 189.5t194.5 128.5t243.5 48q103 0 198 -31l68 97h307l-145 -234q87 -82 134.5 -193t47.5 -233q0 -119 -46.5 -228t-126 -189.5t-194 -128.5t-243.5 -48q-106 0 -201 31l-65 -96h-308l144 233q-86 83 -133.5 193t-47.5 233zM430 563 q0 -66 16 -110l240 387h-14q-106 0 -174 -76.5t-68 -200.5zM657 287h15q106 0 173.5 76t67.5 200q0 58 -16 111z" />
<glyph unicode="&#xf9;" horiz-adv-x="1155" d="M72 414v712h368v-643q0 -77 39 -117t94 -40q54 0 93 40t39 117v643h368v-1126h-309l-19 96l-8 2q-49 -52 -123.5 -80t-158.5 -28q-75 0 -143 27t-122 78t-86 133.5t-32 185.5zM154 1518h501l66 -269h-295z" />
<glyph unicode="&#xfa;" horiz-adv-x="1155" d="M72 414v712h368v-643q0 -77 39 -117t94 -40q54 0 93 40t39 117v643h368v-1126h-309l-19 96l-8 2q-49 -52 -123.5 -80t-158.5 -28q-75 0 -143 27t-122 78t-86 133.5t-32 185.5zM426 1249l66 269h501l-272 -269h-295z" />
<glyph unicode="&#xfb;" horiz-adv-x="1155" d="M72 414v712h368v-643q0 -77 39 -117t94 -40q54 0 93 40t39 117v643h368v-1126h-309l-19 96l-8 2q-49 -52 -123.5 -80t-158.5 -28q-75 0 -143 27t-122 78t-86 133.5t-32 185.5zM147 1249l240 269h373l239 -269h-340l-86 105l-86 -105h-340z" />
<glyph unicode="&#xfc;" horiz-adv-x="1155" d="M72 414v712h368v-643q0 -77 39 -117t94 -40q54 0 93 40t39 117v643h368v-1126h-309l-19 96l-8 2q-49 -52 -123.5 -80t-158.5 -28q-75 0 -143 27t-122 78t-86 133.5t-32 185.5zM195 1372q0 68 47.5 113t117.5 45t119 -45t49 -113t-49 -111.5t-119 -43.5t-117.5 43.5 t-47.5 111.5zM618 1372q0 68 48 113t118 45t119 -45t49 -113t-49 -111.5t-119 -43.5t-118 43.5t-48 111.5z" />
<glyph unicode="&#xfd;" horiz-adv-x="1271" d="M31 1126h409l203 -571l188 571h410l-563 -1433h-385l156 436zM487 1249l66 269h502l-273 -269h-295z" />
<glyph unicode="&#xfe;" horiz-adv-x="1341" d="M82 -307v1741h369v-383l8 -2q4 4 12 11t36.5 24.5t61 31t85.5 24.5t110 11q141 0 260 -77t187.5 -211.5t68.5 -295.5q0 -170 -72.5 -303t-196 -204.5t-274.5 -71.5q-163 0 -286 75v-370h-369zM451 567q0 -109 62 -178.5t167 -69.5q106 0 168.5 69.5t62.5 178.5t-63 179.5 t-168 70.5q-104 0 -166.5 -70.5t-62.5 -179.5z" />
<glyph unicode="&#xff;" horiz-adv-x="1271" d="M31 1126h409l203 -571l188 571h410l-563 -1433h-385l156 436zM256 1372q0 68 48 113t118 45t119 -45t49 -113t-49 -111.5t-119 -43.5t-118 43.5t-48 111.5zM680 1372q0 68 48 113t118 45t119 -45t49 -113t-49 -111.5t-119 -43.5t-118 43.5t-48 111.5z" />
<glyph unicode="&#x152;" horiz-adv-x="2230" d="M72 717q0 154 56 292t152.5 238t234 158.5t294.5 58.5q74 0 143 -13.5t114 -33t79 -38.5t49 -33l16 -13l9 2v99h841l84 -338h-276l86 -283h-387v-465h602l-88 -348h-862v98l-9 2q-6 -5 -17 -14t-49.5 -31.5t-82 -40t-112 -31.5t-140.5 -14q-209 0 -378.5 100t-264 271 t-94.5 377zM461 717q0 -168 96 -278.5t252 -110.5t252 110.5t96 278.5t-96 278.5t-252 110.5t-252 -110.5t-96 -278.5z" />
<glyph unicode="&#x153;" horiz-adv-x="2121" d="M61 563q0 119 46.5 228t126.5 189.5t194.5 128.5t243.5 48q235 0 418 -170q24 25 54.5 49t81.5 54t122 48.5t149 18.5q122 0 227.5 -46.5t179 -126t115 -189t41.5 -232.5q0 -37 -2.5 -73.5t-5.5 -53.5l-2 -18h-752q8 -57 70.5 -100.5t138.5 -43.5q142 0 213 86l246 -208 q-162 -183 -442 -183q-83 0 -158.5 18.5t-129.5 48.5t-87 55t-57 50q-24 -25 -56.5 -49.5t-85 -54.5t-125.5 -49t-153 -19q-129 0 -243.5 48t-194.5 128.5t-126.5 189.5t-46.5 228zM430 563q0 -124 68 -200t174 -76t173.5 76t67.5 200q0 125 -67.5 201t-173.5 76t-174 -76.5 t-68 -200.5zM1298 686h418q-13 74 -73 119t-136 45t-136 -45t-73 -119z" />
<glyph unicode="&#x178;" horiz-adv-x="1421" d="M61 1434h441l209 -525l209 525h440l-449 -871l15 -563h-430l14 563zM408 1630q0 55 38.5 90t94.5 35q57 0 96 -35t39 -90q0 -54 -39 -88.5t-96 -34.5t-95 34t-38 89zM745 1630q0 55 39 90t95 35q57 0 96 -35t39 -90q0 -54 -39 -88.5t-96 -34.5t-95.5 34.5t-38.5 88.5z " />
<glyph unicode="&#x2c6;" horiz-adv-x="1671" d="M410 1249l239 269h373l240 -269h-340l-86 105l-86 -105h-340z" />
<glyph unicode="&#x2dc;" horiz-adv-x="1343" d="M313 1249v99q0 84 47 132t129 48h25q65 0 117 -23l145 -63v76h254v-99q0 -84 -47 -132t-129 -48h-25q-64 0 -116 23l-146 63v-76h-254z" />
<glyph unicode="&#x2000;" horiz-adv-x="877" />
<glyph unicode="&#x2001;" horiz-adv-x="1755" />
<glyph unicode="&#x2002;" horiz-adv-x="877" />
<glyph unicode="&#x2003;" horiz-adv-x="1755" />
<glyph unicode="&#x2004;" horiz-adv-x="585" />
<glyph unicode="&#x2005;" horiz-adv-x="438" />
<glyph unicode="&#x2006;" horiz-adv-x="292" />
<glyph unicode="&#x2007;" horiz-adv-x="292" />
<glyph unicode="&#x2008;" horiz-adv-x="219" />
<glyph unicode="&#x2009;" horiz-adv-x="351" />
<glyph unicode="&#x200a;" horiz-adv-x="97" />
<glyph unicode="&#x2010;" horiz-adv-x="696" d="M51 418v323h594v-323h-594z" />
<glyph unicode="&#x2011;" horiz-adv-x="696" d="M51 418v323h594v-323h-594z" />
<glyph unicode="&#x2012;" horiz-adv-x="696" d="M51 418v323h594v-323h-594z" />
<glyph unicode="&#x2013;" horiz-adv-x="1103" d="M51 418v323h1002v-323h-1002z" />
<glyph unicode="&#x2014;" horiz-adv-x="1736" d="M51 418v323h1635v-323h-1635z" />
<glyph unicode="&#x2018;" horiz-adv-x="612" d="M41 803l291 631h260l-152 -631h-399z" />
<glyph unicode="&#x2019;" horiz-adv-x="612" d="M41 803l152 631h399l-291 -631h-260z" />
<glyph unicode="&#x201a;" horiz-adv-x="612" d="M41 -260l152 631h399l-291 -631h-260z" />
<glyph unicode="&#x201c;" horiz-adv-x="1134" d="M41 803l291 631h260l-152 -631h-399zM563 803l291 631h260l-151 -631h-400z" />
<glyph unicode="&#x201d;" horiz-adv-x="1134" d="M41 803l152 631h399l-291 -631h-260zM563 803l152 631h399l-291 -631h-260z" />
<glyph unicode="&#x201e;" horiz-adv-x="1134" d="M41 -260l152 631h399l-291 -631h-260zM563 -260l152 631h399l-291 -631h-260z" />
<glyph unicode="&#x2022;" horiz-adv-x="647" d="M51 604q0 115 78.5 190.5t194.5 75.5t194 -75.5t78 -190.5t-78 -190.5t-194 -75.5t-194.5 75.5t-78.5 190.5z" />
<glyph unicode="&#x2026;" horiz-adv-x="1548" d="M51 188q0 81 60 140t147 59t147 -59t60 -140q0 -89 -58 -143.5t-149 -54.5t-149 54.5t-58 143.5zM567 188q0 81 60 140t147 59t147 -59t60 -140q0 -89 -58 -143.5t-149 -54.5t-149 54.5t-58 143.5zM1083 188q0 81 60 140t147 59t147 -59t60 -140q0 -89 -58 -143.5 t-149 -54.5t-149 54.5t-58 143.5z" />
<glyph unicode="&#x202f;" horiz-adv-x="351" />
<glyph unicode="&#x2039;" horiz-adv-x="655" d="M61 563l205 461h328l-205 -461l205 -461h-328z" />
<glyph unicode="&#x203a;" horiz-adv-x="655" d="M61 102l205 461l-205 461h328l205 -461l-205 -461h-328z" />
<glyph unicode="&#x205f;" horiz-adv-x="438" />
<glyph unicode="&#x25fc;" horiz-adv-x="1126" d="M0 0v1126h1126v-1126h-1126z" />
<glyph unicode="&#xfb01;" horiz-adv-x="1288" d="M41 803v323h123v27q0 76 22.5 131t53 83t76.5 44t77.5 19.5t71.5 3.5h250v-230h-105q-39 0 -58.5 -18t-19.5 -60h183v-323h-183v-803h-368v803h-123zM803 1417q0 86 63 142.5t156 56.5t156 -56.5t63 -142.5q0 -92 -61 -146t-158 -54t-158 54t-61 146zM838 0v1126h368 v-1126h-368z" />
<glyph unicode="&#xfb02;" horiz-adv-x="1288" d="M41 803v323h123v27q0 76 22.5 131t53 83t76.5 44t77.5 19.5t71.5 3.5h250v-230h-105q-39 0 -58.5 -18t-19.5 -60h183v-323h-183v-803h-368v803h-123zM838 0v1434h368v-1434h-368z" />
</font>
</defs>
</svg>
