<?xml version="1.0" encoding="utf-8"?>
<!-- Generator: Adobe Illustrator 16.0.4, SVG Export Plug-In . SVG Version: 6.00 Build 0)  -->
<!DOCTYPE svg PUBLIC "-//W3C//DTD SVG 1.1//EN" "http://www.w3.org/Graphics/SVG/1.1/DTD/svg11.dtd">
<svg version="1.1" id="Calque_1" xmlns="http://www.w3.org/2000/svg" xmlns:xlink="http://www.w3.org/1999/xlink" x="0px" y="0px"
	 width="18px" height="18px" viewBox="0 0 18 18" enable-background="new 0 0 18 18" xml:space="preserve">
<g>
	<path d="M9,0.561c4.668,0,8.439,3.771,8.439,8.439c0,4.668-3.771,8.438-8.439,8.438c-4.668,0-8.439-3.771-8.439-8.438
		C0.561,4.332,4.332,0.561,9,0.561z M9,1.71C4.953,1.71,1.71,4.953,1.71,9c0,4.047,3.242,7.289,7.29,7.289
		c4.047,0,7.289-3.242,7.289-7.289C16.289,4.953,13.047,1.71,9,1.71z M9.138,9.805H6.999v4.461H5.85V4.24h3.84
		c2.277,0,3.266,0.989,3.266,2.783c0,1.771-1.15,2.552-2.483,2.782l2.943,4.461h-1.426L9.138,9.805z M9.368,8.793
		c1.449,0,2.438-0.392,2.438-1.794s-1.173-1.748-2.392-1.748H6.999v3.542H9.368z"/>
</g>
</svg>
