<?xml version="1.0" standalone="no"?>
<!DOCTYPE svg PUBLIC "-//W3C//DTD SVG 1.1//EN" "http://www.w3.org/Graphics/SVG/1.1/DTD/svg11.dtd" >
<svg xmlns="http://www.w3.org/2000/svg">
<metadata></metadata>
<defs>
<font id="ulregular" horiz-adv-x="1112" >
<font-face units-per-em="2048" ascent="1638" descent="-410" />
<missing-glyph horiz-adv-x="712" />
<glyph horiz-adv-x="0" />
<glyph horiz-adv-x="682" />
<glyph unicode=" "  horiz-adv-x="712" />
<glyph unicode="&#x09;" horiz-adv-x="712" />
<glyph unicode="&#xa0;" horiz-adv-x="712" />
<glyph unicode="!" horiz-adv-x="626" d="M244 0v195h162v-195h-162zM248 1554h155l-28 -1230h-101z" />
<glyph unicode="&#x22;" horiz-adv-x="788" d="M168 1554h117l-17 -622h-84zM504 1554h117l-17 -622h-84z" />
<glyph unicode="#" horiz-adv-x="1214" d="M98 528l15 84h225l41 262q3 17 14 72q-31 -2 -74 -2h-155l14 84h225l84 526h91l-72 -456q-7 -48 -14 -72q31 2 73 2h234l84 526h92l-74 -456q-4 -36 -14 -72q33 2 74 2h153l-12 -84h-225l-41 -262q-6 -40 -15 -72q33 2 74 2h158l-15 -84h-227l-82 -528h-92l72 459 q2 13 14 71q-31 -2 -74 -2h-233l-84 -528h-90l71 459q3 17 5 28t5 21.5t5 21.5q-31 -2 -74 -2h-156zM426 610q31 2 74 2h233l41 262q3 17 14 72q-31 -2 -73 -2h-234l-41 -262q-7 -48 -14 -72z" />
<glyph unicode="$" horiz-adv-x="1218" d="M121 473v8v19h137v-25q3 -185 69 -269t230 -110q-4 33 -4 80v547l-21 4q-106 29 -159.5 52t-96.5 59q-126 102 -126 280q0 158 111 262.5t292 114.5v174h104v-172q198 -13 307 -132.5t109 -322.5v-26h-133q2 14 2 31q0 150 -80.5 243.5t-208.5 91.5q0 -7 1 -15.5t1 -10.5 q2 -14 2 -29v-504q4 -2 9 -3.5t8 -2.5t4 -2l125 -39q133 -41 212 -144t79 -237q0 -184 -110.5 -288.5t-326.5 -124.5v-201h-104v201q-432 50 -432 491zM283 1124q0 -106 66 -172t208 -100q-4 45 -4 106v363q0 36 4 63q-134 -14 -204 -80t-70 -180zM653 94q132 1 216.5 80 t84.5 201q0 127 -70.5 201.5t-230.5 115.5q4 -45 4 -108v-449q0 -25 -4 -41z" />
<glyph unicode="%" horiz-adv-x="1832" d="M70 1073q0 234 96 353.5t285 119.5q178 0 271 -117.5t93 -343.5q0 -475 -373 -475q-372 0 -372 463zM201 1075q0 -186 59 -277t180 -91q242 0 242 368q0 375 -240 375q-119 0 -180 -95.5t-61 -279.5zM573 -20l562 1542h104l-557 -1542h-109zM1018 451q0 234 96 353.5 t285 119.5q178 0 271 -117.5t93 -341.5q0 -477 -372 -477q-373 0 -373 463zM1149 453q0 -369 240 -369q241 0 241 369q0 374 -239 374q-119 0 -180.5 -95t-61.5 -279z" />
<glyph unicode="&#x26;" horiz-adv-x="1597" d="M154 420q0 140 99.5 267t266.5 200q-111 111 -157 194.5t-46 173.5q0 145 99.5 235.5t259.5 90.5q155 0 254.5 -91.5t99.5 -232.5q0 -120 -83.5 -227t-227.5 -170q67 -64 94 -92l272 -272q47 -47 84 -93q62 119 87.5 219.5t25.5 225.5v8v18h129v-18v-8 q0 -158 -39.5 -296.5t-111.5 -232.5l319 -319h-170l-188 184q-23 23 -37 41q-99 -130 -222.5 -191t-283.5 -61q-230 0 -377 126t-147 321zM297 426q0 -145 108.5 -240.5t274.5 -95.5q241 0 424 213l-500 498q-307 -153 -307 -375zM446 1260q0 -72 45.5 -146t151.5 -172 q260 146 260 315q0 92 -65.5 150.5t-169.5 58.5q-99 0 -160.5 -57t-61.5 -149z" />
<glyph unicode="'" horiz-adv-x="452" d="M168 1554h117l-17 -622h-84z" />
<glyph unicode="(" horiz-adv-x="626" d="M109 575q0 274 51 467t209 512h114q-140 -326 -185.5 -521t-45.5 -466q0 -273 46.5 -467.5t184.5 -502.5h-114q-157 310 -208.5 505t-51.5 473z" />
<glyph unicode=")" horiz-adv-x="624" d="M141 -403q140 325 187 522.5t47 464.5q0 269 -47.5 466t-186.5 504h115q157 -310 208.5 -506t51.5 -477q0 -269 -51.5 -461.5t-208.5 -512.5h-115z" />
<glyph unicode="*" horiz-adv-x="993" d="M137 1249l43 129l137 -59q42 -16 142 -62q-9 64 -19 152l-16 147h141l-14 -147q-1 -7 -21 -152q45 19 88.5 38.5t53.5 23.5l141 59l41 -139l-149 -27q-81 -13 -154 -22l-2 -4q32 -30 106 -111l99 -108l-115 -82l-74 129q-41 71 -71 135h-7q-37 -82 -67 -135l-70 -129 l-119 82l101 108q56 63 106 111l-2 4q-63 10 -151 29z" />
<glyph unicode="+" horiz-adv-x="1105" d="M90 723v106h359q28 0 51 -4q-4 23 -4 52v362h114v-362q0 -29 -4 -52q23 4 51 4h357v-106h-357q-28 0 -51 4q4 -23 4 -51v-361h-114v361q0 28 4 51q-23 -4 -51 -4h-359z" />
<glyph unicode="," horiz-adv-x="518" d="M158 35v160h180v-197l-80 -270h-98l47 223q8 43 20 86q-14 -2 -37 -2h-32z" />
<glyph unicode="-" horiz-adv-x="626" d="M53 549v129h518v-129h-518z" />
<glyph unicode="." horiz-adv-x="518" d="M174 0v195h180v-195h-180z" />
<glyph unicode="/" horiz-adv-x="950" d="M184 0l570 1554h106l-569 -1554h-107z" />
<glyph unicode="0" horiz-adv-x="1105" d="M70 727q0 782 493 782q234 0 354.5 -192t120.5 -565q0 -785 -485 -785q-483 0 -483 760zM203 733q0 -651 348 -651q352 0 352 651q0 662 -348 662q-173 0 -262.5 -168t-89.5 -494z" />
<glyph unicode="1" d="M260 1128v111h23q147 0 219.5 56t89.5 182h104v-1477h-129v1014q0 94 2 166q-91 -52 -241 -52h-68z" />
<glyph unicode="2" d="M86 0v49q0 227 96 369q41 60 102.5 111.5t192.5 134.5l119 77q138 89 197 172t59 189q0 126 -81.5 207.5t-207.5 81.5q-140 0 -226 -90t-91 -240h-131q6 201 129 324.5t317 123.5q187 0 306.5 -112t119.5 -287q0 -174 -119 -305q-51 -56 -92.5 -88t-179.5 -119 q-87 -55 -140 -90.5t-99 -74.5t-69 -68t-40.5 -70t-24.5 -81t-12 -101q25 4 59 4h748v-117h-932z" />
<glyph unicode="3" d="M78 424h137v-37q0 -132 89.5 -217.5t227.5 -85.5q151 0 244.5 85t93.5 222q0 145 -102.5 225t-288.5 80q-24 0 -47 -2v115h25q102 0 156 11t104 42q60 37 95.5 104t35.5 142q0 123 -87 204t-220 81q-139 0 -219 -82.5t-82 -227.5h-136q9 204 127 315t322 111 q189 0 305.5 -109.5t116.5 -289.5q0 -126 -61 -209.5t-193 -140.5v-6q152 -61 217.5 -146t65.5 -219q0 -190 -130 -306t-344 -116q-217 0 -336 121t-116 336z" />
<glyph unicode="4" d="M53 410v116l606 951h170v-904q0 -28 -4 -51q23 4 52 4h210v-116h-210q-29 0 -52 4q4 -23 4 -52v-362h-127v362q0 23 5 52q-23 -4 -52 -4h-602zM184 526l2 -4q84 4 195 4h274q29 0 52 -4q-5 29 -5 51v439q0 179 11 336l-11 2q-87 -155 -172 -289l-237 -373 q-27 -43 -109 -162z" />
<glyph unicode="5" d="M113 371v18h131v-10q0 -129 83.5 -212t215.5 -83q154 0 247 106t93 279t-89.5 278t-238.5 105q-233 0 -315 -250h-121l59 875h772v-117h-657l-19 -270q-11 -142 -32 -283l8 -4q58 82 141.5 125t181.5 43q191 0 316 -141.5t125 -356.5q0 -227 -129.5 -366.5t-341.5 -139.5 q-184 0 -307 115.5t-123 288.5z" />
<glyph unicode="6" d="M92 688q0 397 129.5 609t372.5 212q170 0 281 -110t114 -281h-129q-3 126 -77.5 201.5t-194.5 75.5q-181 0 -272.5 -163t-106.5 -513l10 -2q63 127 153.5 186.5t219.5 59.5q191 0 311.5 -140.5t120.5 -363.5q0 -215 -128.5 -353.5t-328.5 -138.5q-235 0 -355 182 t-120 539zM242 471q0 -173 89.5 -279t237.5 -106q140 0 232 108t92 273q0 164 -88.5 270.5t-226.5 106.5q-147 0 -241.5 -105t-94.5 -268z" />
<glyph unicode="7" d="M98 1360v117h946v-113q-199 -331 -348 -701t-202 -663h-146l4 18q77 317 183 584q86 224 163.5 381t212.5 381q-82 -4 -184 -4h-629z" />
<glyph unicode="8" d="M80 393q0 129 67.5 218.5t208.5 146.5l11 4v8q-116 35 -183 127t-67 215q0 170 125.5 283.5t314.5 113.5q191 0 315.5 -111.5t124.5 -281.5q0 -117 -70 -213t-184 -133v-8l15 -6q138 -59 204 -149t66 -220q0 -189 -132 -304.5t-347 -115.5q-207 0 -338 118.5t-131 307.5z M217 395q0 -134 95 -220.5t243 -86.5t241 85t93 220t-95.5 222t-244.5 87q-144 0 -238 -87.5t-94 -219.5zM248 1112q0 -128 84.5 -207.5t220.5 -79.5q141 0 227 79.5t86 209.5q0 122 -87.5 199.5t-223.5 77.5q-135 0 -221 -78t-86 -201z" />
<glyph unicode="9" d="M78 1024q0 215 125.5 350t326.5 135q246 0 363 -189.5t117 -588.5q0 -194 -23 -323t-74 -220q-59 -106 -159.5 -163.5t-229.5 -57.5q-191 0 -301.5 106.5t-120.5 299.5h136v-13v-8q0 -117 82 -195.5t204 -78.5q132 0 229.5 102.5t106.5 251.5l14 260q1 5 2.5 16.5t4 31 t4.5 38.5l-11 2q-53 -109 -151.5 -172t-216.5 -63q-191 0 -309.5 132.5t-118.5 346.5zM209 1026q0 -158 85 -261t216 -103q145 0 238.5 104.5t93.5 265.5q0 155 -88.5 258t-221.5 103q-141 0 -232 -103.5t-91 -263.5z" />
<glyph unicode=":" horiz-adv-x="518" d="M164 0v195h180v-195h-180zM164 932v194h180v-194h-180z" />
<glyph unicode=";" horiz-adv-x="518" d="M166 35v160h180v-197l-80 -270h-98l47 223q6 30 21 86q-14 -2 -37 -2h-33zM166 932v194h180v-194h-180z" />
<glyph unicode="&#x3c;" horiz-adv-x="1105" d="M174 723v104l756 459v-121l-502 -301q-61 -37 -149 -86v-4q45 -24 149 -84l502 -301v-123z" />
<glyph unicode="=" horiz-adv-x="1105" d="M102 555v107h904v-107h-904zM102 891v106h904v-106h-904z" />
<glyph unicode="&#x3e;" horiz-adv-x="1105" d="M174 266v123l504 301q104 60 149 84v4q-88 49 -149 86l-504 301v121l756 -459v-104z" />
<glyph unicode="?" d="M86 1159q7 202 134 318t341 116q189 0 316 -110.5t127 -274.5q0 -189 -160 -321l-127 -105q-91 -75 -122.5 -152.5t-31.5 -226.5v-26v-53h-119v38v19q0 200 41 299.5t168 204.5q132 110 173.5 172.5t41.5 150.5q0 117 -89 192t-230 75q-143 0 -233 -85.5t-99 -230.5h-131 zM422 0v195h162v-195h-162z" />
<glyph unicode="@" horiz-adv-x="1792" d="M117 780q0 222 107.5 406t294.5 289.5t413 105.5q210 0 380.5 -90t267.5 -249t97 -355q0 -147 -53.5 -276.5t-143.5 -207t-192 -77.5q-72 0 -115 48.5t-43 131.5l-10 4q-107 -186 -286 -186q-146 0 -238 106.5t-92 274.5q0 202 118.5 340.5t290.5 138.5q107 0 173.5 -57 t101.5 -177h10v27q0 43 8 84l19 92h75l-100 -518q-14 -75 -14 -113q0 -56 29.5 -88.5t80.5 -32.5q78 0 147.5 66.5t110.5 177.5t41 236q0 271 -187.5 446.5t-477.5 175.5q-152 0 -287.5 -56.5t-232 -153t-153 -230.5t-56.5 -285q0 -147 51 -278t147 -232q205 -221 566 -221 q140 0 257.5 29.5t258.5 99.5l30 -72q-139 -69 -269.5 -101t-278.5 -32q-244 0 -437 103t-301 287.5t-108 418.5zM594 707q0 -133 70 -217t180 -84q131 0 216 124t85 314q0 118 -61.5 188t-165.5 70q-133 0 -228.5 -116t-95.5 -279z" />
<glyph unicode="A" horiz-adv-x="1462" d="M16 0l631 1554h176l623 -1554h-146l-202 516h-738l-200 -516h-144zM403 633q59 2 140 2h375q80 0 137 -2q-23 52 -51 127l-175 446q-48 126 -92 260h-8q-36 -109 -94 -258l-178 -448q-26 -69 -54 -127z" />
<glyph unicode="B" horiz-adv-x="1343" d="M207 0v1554h489q129 0 192.5 -12t123.5 -47q92 -54 141 -140.5t49 -193.5q0 -125 -69 -216t-201 -140v-8l18 -9l35 -12q110 -38 175 -132.5t65 -217.5q0 -101 -38.5 -186.5t-107.5 -141.5q-64 -54 -152.5 -76t-232.5 -22h-487zM332 113q23 4 51 4h272q128 0 195.5 13 t116.5 48q116 84 116 248q0 157 -99.5 234t-303.5 77h-297q-28 0 -51 4q4 -23 4 -51v-526q0 -28 -4 -51zM332 850q23 4 51 4h295q187 0 287 76t100 219q0 73 -33 136.5t-90 100.5q-43 29 -97 40.5t-149 11.5h-313q-28 0 -51 4q4 -23 4 -51v-490q0 -28 -4 -51z" />
<glyph unicode="C" horiz-adv-x="1488" d="M119 766q0 372 184 596.5t488 224.5q261 0 422.5 -149t183.5 -410h-142q-8 192 -135.5 315t-320.5 123q-248 0 -392.5 -186.5t-144.5 -507.5q0 -315 141 -498.5t385 -183.5q392 0 480 442h145q-37 -266 -203 -415.5t-424 -149.5q-309 0 -488 214.5t-179 584.5z" />
<glyph unicode="D" horiz-adv-x="1548" d="M201 0v1554h430q222 0 365 -49t249 -162q91 -97 139 -241t48 -316q0 -348 -185 -567q-97 -114 -247 -166.5t-379 -52.5h-420zM326 113q23 4 51 4h246q186 0 304 38t195 121q85 94 129.5 225t44.5 285q0 153 -47 284.5t-133 215.5q-85 83 -193 117.5t-288 34.5h-258 q-28 0 -51 4q4 -23 4 -51v-1227q0 -28 -4 -51z" />
<glyph unicode="E" horiz-adv-x="1310" d="M207 0v1554h962v-116h-786q-28 0 -51 4q4 -23 4 -51v-482q0 -28 -4 -51q23 4 51 4h745v-117h-745q-22 0 -51 5q4 -23 4 -52v-534q0 -28 -4 -51q23 4 51 4h815v-117h-991z" />
<glyph unicode="F" horiz-adv-x="1208" d="M184 0v1554h963v-116h-787q-28 0 -51 4q4 -23 4 -51v-506q0 -28 -4 -51q23 4 51 4h746v-117h-746q-28 0 -51 4q4 -23 4 -51v-674h-129z" />
<glyph unicode="G" horiz-adv-x="1574" d="M115 762q0 376 188.5 600.5t505.5 224.5q243 0 399.5 -125.5t196.5 -351.5h-143q-34 172 -151 264t-300 92q-258 0 -407.5 -192.5t-149.5 -525.5q0 -302 140 -481t378 -179q145 0 258 64t170 178q40 80 56 157.5t20 217.5q-25 -5 -49 -5h-418v117h596v-817h-127v135 q0 74 14 156l-10 2q-138 -326 -514 -326q-302 0 -477.5 213t-175.5 582z" />
<glyph unicode="H" horiz-adv-x="1554" d="M207 0v1554h129v-651q0 -28 -4 -51q23 4 51 4h788q29 0 52 -4q-4 23 -4 51v651h129v-1554h-129v692q0 28 4 51q-23 -4 -52 -4h-788q-28 0 -51 4q4 -23 4 -51v-692h-129z" />
<glyph unicode="I" horiz-adv-x="538" d="M205 0v1554h129v-1554h-129z" />
<glyph unicode="J" horiz-adv-x="690" d="M-2 -23v123q64 -12 119 -12q136 0 189.5 85t53.5 302v1079h129v-1126q0 -238 -91 -350.5t-283 -112.5q-31 0 -117 12z" />
<glyph unicode="K" horiz-adv-x="1327" d="M197 0v1554h129v-450q0 -139 -9 -266l9 -2q70 80 182 194l516 524h180l-727 -731l809 -823h-196l-582 604q-87 91 -182 201l-9 -4q9 -129 9 -269v-532h-129z" />
<glyph unicode="L" horiz-adv-x="1202" d="M199 0v1554h129v-1390q0 -28 -4 -51q23 4 51 4h796v-117h-972z" />
<glyph unicode="M" horiz-adv-x="1937" d="M207 0v1554h207l454 -1165q55 -144 93 -260h8q36 109 94 258l459 1167h207v-1554h-130v1044q0 137 9 392l-13 2q-59 -173 -135 -367l-426 -1071h-133l-426 1071q-76 191 -135 367l-12 -2q8 -227 8 -392v-1044h-129z" />
<glyph unicode="N" horiz-adv-x="1564" d="M203 0v1554h205l671 -1144q87 -147 164 -295l10 4q-6 231 -6 338v1097h129v-1554h-215l-661 1139q-102 173 -162 295l-10 -2q4 -170 4 -338v-1094h-129z" />
<glyph unicode="O" horiz-adv-x="1613" d="M117 768q0 373 187 596t501 223q315 0 503.5 -219t188.5 -586q0 -372 -189 -593.5t-507 -221.5q-313 0 -498.5 217t-185.5 584zM258 764q0 -309 149.5 -490.5t403.5 -181.5q243 0 396 192t153 498q0 307 -153 495.5t-402 188.5q-246 0 -396.5 -193t-150.5 -509z" />
<glyph unicode="P" horiz-adv-x="1333" d="M205 0v1554h481q145 0 238.5 -25.5t162.5 -84.5q68 -59 105 -145t37 -185q0 -204 -156 -332q-73 -58 -165.5 -83t-235.5 -25h-291q-28 0 -51 4q4 -23 4 -51v-627h-129zM330 786q29 5 51 5h301q120 0 192.5 22t126.5 74q91 88 91 231q0 78 -31.5 143.5t-89.5 106.5 q-57 40 -125 55t-195 15h-270q-28 0 -51 4q4 -23 4 -51v-553q0 -29 -4 -52z" />
<glyph unicode="Q" horiz-adv-x="1617" d="M119 774q0 372 189.5 595.5t504.5 223.5q205 0 361.5 -100.5t241.5 -284t85 -422.5q0 -360 -201 -598l183 -190l-92 -86l-187 199q-101 -79 -187 -108.5t-218 -29.5q-202 0 -356.5 99.5t-239 281.5t-84.5 420zM258 776q0 -312 151.5 -497t407.5 -185q94 0 164.5 25.5 t140.5 85.5q-20 16 -45 41l-151 162l88 86l135 -142q37 -42 57 -69q81 107 118.5 226.5t37.5 270.5q0 314 -150.5 502t-400.5 188q-252 0 -402.5 -189t-150.5 -505z" />
<glyph unicode="R" horiz-adv-x="1353" d="M236 0v1554h473q134 0 220 -25t152 -83q66 -59 102 -141t36 -175q0 -136 -88 -237t-234 -133v-10q50 -17 83.5 -33t63.5 -42t49 -57t37 -82t31.5 -111.5t28.5 -150.5l20 -120q15 -94 47 -154h-141q-33 81 -49 203q-37 238 -59 299q-27 79 -66.5 120.5t-104.5 59.5 t-175 18h-250q-23 0 -52 5q5 -29 5 -52v-653h-129zM360 815q23 4 52 4h299q173 0 272.5 82t99.5 227q0 155 -100 235.5t-295 80.5h-276q-29 0 -52 4q5 -29 5 -51v-531q0 -22 -5 -51z" />
<glyph unicode="S" horiz-adv-x="1327" d="M119 492v30h141v-28q0 -192 108 -299t302 -107q182 0 289.5 85t107.5 228q0 152 -125 236q-55 37 -254 90q-69 18 -217 64q-167 55 -245.5 149.5t-78.5 239.5q0 189 135.5 298t370.5 109q507 0 516 -518h-137v27q0 178 -99.5 275t-281.5 97q-169 0 -267.5 -76t-98.5 -206 q0 -110 72.5 -181.5t224.5 -111.5l145 -37q260 -69 368.5 -170.5t108.5 -275.5q0 -199 -143.5 -321t-378.5 -122q-261 0 -412 141t-151 384z" />
<glyph unicode="T" horiz-adv-x="1294" d="M16 1438v116h1258v-116h-529q-28 0 -51 4q4 -23 4 -51v-1391h-129v1391q0 28 4 51q-23 -4 -51 -4h-506z" />
<glyph unicode="U" horiz-adv-x="1478" d="M188 580v974h129v-944q0 -159 27 -249t94 -156q119 -119 301 -119q185 0 301 119q67 69 94 158.5t27 246.5v944h129v-974q0 -293 -143.5 -453t-407.5 -160t-407.5 160t-143.5 453z" />
<glyph unicode="V" horiz-adv-x="1353" d="M18 1554h144l413 -1185q53 -151 91 -273h10q41 128 92 273l428 1185h135l-569 -1554h-184z" />
<glyph unicode="W" horiz-adv-x="1937" d="M14 1554h140l280 -1126q40 -165 78 -344h10q41 200 76 344l268 1126h224l274 -1126q42 -173 76 -344h12q41 200 76 344l270 1126h129l-381 -1554h-211l-276 1128q-22 89 -78 345h-10q-36 -177 -76 -345l-270 -1128h-209z" />
<glyph unicode="X" horiz-adv-x="1333" d="M16 0l566 797l-537 757h166l377 -546q20 -29 74 -111q53 80 73 109l385 548h158l-535 -747l572 -807h-164l-412 594q-40 60 -71 113q-35 -55 -76 -111l-416 -596h-160z" />
<glyph unicode="Y" horiz-adv-x="1333" d="M16 1554h162l414 -639q11 -17 80 -129q52 86 80 129l413 639h150l-584 -892v-662h-129v662z" />
<glyph unicode="Z" horiz-adv-x="1224" d="M51 0v117l828 1153q72 99 129 170l-4 6q-90 -6 -213 -6l-721 -2v116h1091v-116l-829 -1153q-50 -71 -129 -170l4 -6q90 6 211 6l782 2v-117h-1149z" />
<glyph unicode="[" horiz-adv-x="624" d="M172 -403v1957h399v-104h-229q-28 0 -51 4q4 -23 4 -51v-1655q0 -28 -4 -51q23 4 51 4h229v-104h-399z" />
<glyph unicode="\" horiz-adv-x="854" d="M88 1554h107l569 -1554h-107z" />
<glyph unicode="]" horiz-adv-x="626" d="M53 -299h230q28 0 51 -4q-4 23 -4 51v1655q0 28 4 51q-23 -4 -51 -4h-230v104h400v-1957h-400v104z" />
<glyph unicode="^" horiz-adv-x="1105" d="M86 776l416 778h100l418 -778h-109l-266 502q-60 118 -90 182h-6q-33 -76 -90 -182l-266 -502h-107z" />
<glyph unicode="_" horiz-adv-x="890" d="M0 -188h891v-80h-891v80z" />
<glyph unicode="`" horiz-adv-x="0" d="M-225 1593h190l193 -270h-146z" />
<glyph unicode="a" horiz-adv-x="1181" d="M117 307q0 160 111 243t364 114l293 34v52q0 139 -75.5 214.5t-215.5 75.5q-130 0 -209 -65t-92 -184h-129v10q2 154 122.5 253t307.5 99q221 0 317.5 -109t96.5 -360v-399q0 -107 8 -209q2 -30 10 -76h-125l-2 23q-6 71 -6 124v29l-8 2l-19 -26q-118 -179 -362 -179 q-172 0 -279.5 92.5t-107.5 241.5zM250 305q0 -101 72.5 -161t195.5 -60q180 0 273.5 114t93.5 334v29q0 17 4 31q-38 -8 -64 -12l-268 -33q-158 -19 -232.5 -78t-74.5 -164z" />
<glyph unicode="b" horiz-adv-x="1234" d="M178 0v1554h123v-309q0 -163 -14 -325l10 -2q113 235 362 235q209 0 338 -165t129 -433q0 -263 -129.5 -422.5t-343.5 -159.5q-119 0 -201.5 52t-152.5 172l-10 -4q12 -54 12 -103v-90h-123zM297 561q0 -218 96.5 -347.5t257.5 -129.5q155 0 250.5 131.5t95.5 345.5 q0 217 -96.5 347t-257.5 130q-160 0 -253 -128t-93 -349z" />
<glyph unicode="c" horiz-adv-x="1126" d="M111 561q0 269 134 430.5t357 161.5q121 0 222 -52.5t161.5 -146t67.5 -209.5h-131q-9 124 -101 208.5t-217 84.5q-161 0 -263.5 -132t-102.5 -339q0 -215 102 -349t266 -134q129 0 222 86t106 221h133q-32 -204 -150.5 -311t-312.5 -107q-224 0 -358.5 160t-134.5 428z " />
<glyph unicode="d" horiz-adv-x="1230" d="M106 557q0 267 129 431.5t338 164.5q250 0 363 -235l10 2q-14 162 -14 325v309h123v-1554h-123v92q0 51 12 107l-8 2q-66 -117 -154 -172.5t-207 -55.5q-211 0 -340 161t-129 423zM236 561q0 -214 95.5 -345.5t250.5 -131.5q161 0 257.5 129.5t96.5 347.5q0 221 -93 349 t-253 128q-161 0 -257.5 -130t-96.5 -347z" />
<glyph unicode="e" horiz-adv-x="1191" d="M109 569q0 266 136 425t363 159q229 0 356.5 -154.5t127.5 -435.5v-22h-859v-15v-26q3 -177 115 -299.5t270 -122.5q127 0 221 74t111 188h131q-31 -172 -154 -269.5t-309 -97.5q-235 0 -372 160.5t-137 435.5zM238 643q23 4 57 4h614q35 0 60 -4q-12 192 -108.5 296.5 t-260.5 104.5q-157 0 -254.5 -107.5t-107.5 -293.5z" />
<glyph unicode="f" horiz-adv-x="593" d="M25 1022v104h159q29 0 52 -4q-5 29 -5 52v98q0 163 64 236t205 73q31 0 86 -8v-109q-58 4 -64 4q-95 0 -131.5 -41.5t-36.5 -150.5v-102q0 -29 -4 -52q23 4 51 4h185v-104h-185q-28 0 -51 4q4 -23 4 -51v-975h-123v975q0 22 5 51q-23 -4 -52 -4h-159z" />
<glyph unicode="g" horiz-adv-x="1230" d="M106 590q0 250 131.5 406.5t342.5 156.5q228 0 352 -211l10 4q-12 52 -12 96v84h123v-1030q0 -265 -112 -394.5t-341 -129.5q-205 0 -322 94.5t-128 267.5h131q10 -121 92 -186t223 -65q94 0 168.5 37t109.5 102q31 57 43.5 133.5t12.5 208.5v29q0 4 6 22q3 6 6 21l-8 2 q-60 -106 -155 -162t-216 -56q-204 0 -330.5 157.5t-126.5 412.5zM233 584q0 -204 95.5 -327.5t253.5 -123.5q157 0 252.5 123.5t95.5 327.5q0 207 -94 330.5t-252 123.5q-160 0 -255.5 -123.5t-95.5 -330.5z" />
<glyph unicode="h" horiz-adv-x="1218" d="M178 0v1554h123v-288q0 -148 -12 -303l10 -2q113 192 340 192q119 0 214.5 -51.5t139.5 -140.5q34 -64 45 -134.5t11 -218.5v-608h-123v608q0 124 -9 186t-32 107q-35 66 -103.5 104.5t-152.5 38.5q-91 0 -169.5 -45.5t-115.5 -119.5q-25 -47 -34 -105.5t-9 -165.5v-608 h-123z" />
<glyph unicode="i" horiz-adv-x="479" d="M170 1364v190h147v-190h-147zM182 0v1126h123v-1126h-123z" />
<glyph unicode="j" horiz-adv-x="458" d="M-63 -313q23 -2 47 -2q90 0 135 30q35 28 46 76.5t11 181.5v1153h127v-1138q0 -165 -10.5 -222.5t-50.5 -103.5q-76 -90 -228 -90q-30 0 -77 6v109zM166 1364v190h147v-190h-147z" />
<glyph unicode="k" horiz-adv-x="1095" d="M195 0v1554h122v-653q0 -145 -6 -254l6 -2q76 81 181 178l319 303h172l-520 -483q-13 -13 -27 -20q12 -8 27 -23l584 -600h-176l-377 397q-119 127 -183 203l-8 -2q8 -115 8 -272v-326h-122z" />
<glyph unicode="l" horiz-adv-x="479" d="M178 0v1554h123v-1554h-123z" />
<glyph unicode="m" horiz-adv-x="1822" d="M180 0v1126h123v-82q0 -30 -14 -104l10 -2q40 104 122 159.5t197 55.5q119 0 197.5 -58.5t122.5 -181.5h8q90 240 336 240q176 0 279 -115q54 -61 70 -126t16 -220v-692h-123v711q0 163 -47 233q-31 46 -85.5 73t-117.5 27q-141 0 -220 -110.5t-79 -308.5v-625h-123v702 q0 180 -57.5 261t-184.5 81q-80 0 -146.5 -39t-103.5 -106q-32 -60 -44.5 -128t-12.5 -183v-588h-123z" />
<glyph unicode="n" horiz-adv-x="1224" d="M182 0v1126h123v-79q0 -29 -14 -103l10 -2q40 98 131 154.5t211 56.5q192 0 299 -119.5t107 -333.5v-700h-123v700q0 164 -75.5 253t-215.5 89q-148 0 -239 -102t-91 -266v-674h-123z" />
<glyph unicode="o" horiz-adv-x="1234" d="M113 565q0 269 138.5 428.5t373.5 159.5q227 0 363 -159t136 -423q0 -272 -136.5 -435t-364.5 -163q-229 0 -369.5 163t-140.5 429zM240 571q0 -230 99 -357.5t279 -127.5t279.5 127.5t99.5 357.5q0 219 -102 346t-277 127t-276.5 -127t-101.5 -346z" />
<glyph unicode="p" horiz-adv-x="1234" d="M178 -401v1521h123v-92q0 -41 -14 -115l10 -2q46 112 145.5 177t225.5 65q209 0 337 -159t128 -419q0 -270 -129 -436t-340 -166q-120 0 -215.5 62.5t-151.5 175.5l-10 -2q14 -157 14 -313v-297h-123zM303 565q0 -221 93 -350t253 -129q163 0 261 130t98 345t-97.5 347 t-255.5 132q-160 0 -256 -129.5t-96 -345.5z" />
<glyph unicode="q" horiz-adv-x="1230" d="M104 578q0 256 128.5 415.5t334.5 159.5q130 0 229.5 -65t143.5 -179l10 2q-14 83 -14 117v92h123v-1521h-123v297q0 156 14 313l-10 2q-55 -114 -151 -176t-216 -62q-211 0 -340 166.5t-129 438.5zM229 561q0 -215 98 -345t261 -130q160 0 253 129t93 350q0 215 -96 345 t-256 130q-158 0 -255.5 -132t-97.5 -347z" />
<glyph unicode="r" horiz-adv-x="733" d="M184 0v1126h123v-90q0 -32 -14 -112l10 -2q91 231 359 231q2 0 25 -1t36 -1v-121q-44 6 -68 6q-201 0 -295 -162q-32 -57 -42.5 -108t-10.5 -158v-608h-123z" />
<glyph unicode="s" d="M94 371h129q3 -142 92 -219.5t248 -77.5q135 0 215 58.5t80 158.5q0 83 -59 132.5t-187 74.5l-129 26q-187 37 -271.5 113t-84.5 207q0 143 112.5 229t299.5 86q196 0 314 -100.5t118 -267.5q0 -9 -2 -17h-129q2 8 2 19q0 123 -80 190.5t-225 67.5q-127 0 -202 -54 t-75 -145q0 -79 60.5 -127.5t191.5 -73.5l123 -22q183 -35 271.5 -116.5t88.5 -213.5q0 -150 -116 -241t-308 -91q-227 0 -350.5 104.5t-126.5 299.5z" />
<glyph unicode="t" horiz-adv-x="593" d="M2 1022v104h156q28 0 51 -4q-4 23 -4 52v198h127v-198q0 -29 -4 -52q23 4 51 4h186v-104h-186q-28 0 -51 4q4 -23 4 -51v-651q0 -135 32.5 -185.5t120.5 -50.5q21 0 80 6v-108q-70 -13 -98 -13q-153 0 -219 101q-26 38 -34.5 92t-8.5 174v635q0 28 4 51q-23 -4 -51 -4 h-156z" />
<glyph unicode="u" horiz-adv-x="1214" d="M172 518v608h123v-608q0 -124 9 -186t32 -107q35 -66 103.5 -104.5t152.5 -38.5q90 0 169 46t116 120q25 47 34 106t9 164v608h122v-1126h-122v76q0 41 12 88l-10 2q-114 -193 -340 -193q-119 0 -215 52t-140 141q-34 64 -44.5 133.5t-10.5 218.5z" />
<glyph unicode="v" horiz-adv-x="1040" d="M16 1126h140l274 -749q35 -93 94 -266h8q19 56 91 266l268 749h133l-420 -1126h-153z" />
<glyph unicode="w" horiz-adv-x="1656" d="M18 1126h129l205 -706q46 -162 84 -311h10q61 231 84 311l203 706h193l202 -704q22 -76 84 -313h11q58 224 84 313l202 704h123l-329 -1126h-179l-209 719q-39 138 -84 311h-10q-53 -206 -84 -311l-205 -719h-182z" />
<glyph unicode="x" d="M23 0l446 584l-408 542h164l258 -360q30 -43 70 -104q62 90 72 104l258 360h153l-409 -542l442 -584h-160l-293 410q-15 19 -69 100q-32 -50 -70 -100l-297 -410h-157z" />
<glyph unicode="y" horiz-adv-x="1069" d="M18 1126h136l280 -729q59 -157 92 -266h11q36 120 92 266l278 729h135l-499 -1253q-55 -139 -143 -206.5t-214 -67.5q-36 0 -110 10v115q56 -11 88 -11q118 0 178.5 58.5t122.5 230.5z" />
<glyph unicode="z" horiz-adv-x="993" d="M45 0v117l594 731q95 115 149 174l-2 6q-98 -6 -231 -6h-492v104h865v-116l-594 -731q-83 -101 -150 -175l4 -6q98 6 230 6h534v-104h-907z" />
<glyph unicode="{" horiz-adv-x="690" d="M123 528v95q76 25 105.5 73t29.5 148v360q0 190 59 270t199 80h70v-92q-107 0 -153 -54t-46 -181v-385q0 -109 -36.5 -168t-127.5 -94v-9q91 -37 127.5 -95t36.5 -167v-385q0 -123 43.5 -179t140.5 -56h15v-92h-70q-140 0 -199 80t-59 270v360q0 99 -30 147.5t-105 73.5z " />
<glyph unicode="|" horiz-adv-x="479" d="M186 -467v2021h107v-2021h-107z" />
<glyph unicode="}" horiz-adv-x="690" d="M102 -311q107 0 153 54t46 181v385q0 109 36.5 167t127.5 95v9q-91 37 -127.5 95t-36.5 167v385q0 123 -43.5 179t-140.5 56h-15v92h70q140 0 199 -80t59 -270v-360q0 -100 29.5 -148t105.5 -73v-95q-75 -25 -105 -73.5t-30 -147.5v-360q0 -190 -59 -270t-199 -80h-70v92 z" />
<glyph unicode="~" horiz-adv-x="1105" d="M84 733q68 109 124.5 155t125.5 46q41 0 90.5 -23t126.5 -77q94 -66 132.5 -84.5t82.5 -18.5q54 0 96.5 35.5t91.5 122.5l68 -68q-66 -107 -124.5 -153.5t-127.5 -46.5q-47 0 -111 28q-12 6 -147 101q-106 75 -170 75q-54 0 -96.5 -35.5t-93.5 -123.5z" />
<glyph unicode="&#xa1;" horiz-adv-x="626" d="M221 934v194h162v-194h-162zM225 -424l27 1229h100l29 -1229h-156z" />
<glyph unicode="&#xa2;" horiz-adv-x="1165" d="M111 795q0 253 117.5 411t318.5 178v228h104v-228q166 -9 274.5 -118t127.5 -287h-135q-18 251 -271 289q4 -37 4 -86v-766q0 -51 -4 -88q122 19 197 97.5t88 203.5h131q-8 -170 -121.5 -286.5t-290.5 -133.5v-266h-104v266q-207 25 -321.5 178t-114.5 408zM244 791 q0 -194 80 -314.5t227 -148.5q-4 41 -4 96v745q0 56 4 97q-146 -28 -226.5 -152t-80.5 -323z" />
<glyph unicode="&#xa3;" d="M33 0v117q119 5 173 71t54 207v293q0 28 4 51q-23 -4 -51 -4h-180v111h180q28 0 51 -4q-4 23 -4 51v164q0 222 105.5 337t308.5 115q183 0 289 -102t106 -279q0 -28 -2 -51h-125q2 18 2 43q0 125 -73 198t-199 73q-141 0 -213 -84t-72 -248v-166q0 -28 -4 -51q23 4 51 4 h217v-111h-217q-28 0 -51 4q4 -23 4 -51v-289q0 -119 -30.5 -187t-96.5 -99l2 -9q189 13 340 13h465v-117h-1034z" />
<glyph unicode="&#xa4;" horiz-adv-x="1105" d="M86 387l162 162q-41 60 -58.5 111.5t-17.5 115.5t17.5 116t58.5 114l-162 159l78 80l162 -162q60 41 112 58.5t115 17.5t115 -17.5t114 -58.5l160 162l78 -80l-160 -159q41 -62 58.5 -114t17.5 -116t-17.5 -115.5t-58.5 -111.5l160 -162l-78 -78l-160 162 q-62 -42 -113.5 -59t-115.5 -17t-115.5 17.5t-111.5 58.5l-162 -162zM276 778q0 -116 81 -197t198 -81q115 0 195.5 81t80.5 197q0 114 -81 195.5t-195 81.5q-115 0 -197 -81.5t-82 -195.5z" />
<glyph unicode="&#xa5;" horiz-adv-x="1392" d="M16 1554h134l468 -694q27 -40 76 -117q42 67 76 117l477 694h129l-340 -495q-45 -66 -121 -166l5 -6q72 6 167 6h164v-66h-372l-64 -94q-37 -56 -70 -94l3 -6q88 6 206 6h297v-66h-452q-22 0 -51 5q4 -23 4 -52v-526h-117v526q0 29 4 52q-29 -5 -51 -5h-451v66h297 q119 0 205 -6l2 6q-28 35 -70 94l-63 94h-371v66h164q96 0 168 -6l4 6q-85 112 -121 166z" />
<glyph unicode="&#xa6;" horiz-adv-x="479" d="M186 311h107v-778h-107v778zM186 776v778h107v-778h-107z" />
<glyph unicode="&#xa7;" d="M106 737q0 88 44.5 158t142.5 139q-113 81 -113 221q0 134 101 217.5t264 83.5q161 0 261.5 -84t100.5 -219v-26h-129q-4 114 -59.5 168.5t-165.5 54.5q-107 0 -174.5 -54.5t-67.5 -140.5q0 -89 74 -145q40 -31 75 -48.5t167 -70.5q211 -88 297 -171.5t86 -201.5 q0 -91 -55 -174.5t-142 -124.5q57 -44 88 -108t31 -137q0 -146 -105.5 -233t-283.5 -87q-180 0 -282.5 88t-102.5 242v22h131q0 -123 61.5 -183t188.5 -60q120 0 189 57t69 154t-72 159q-35 30 -69.5 49t-137.5 64q-235 100 -323.5 184t-88.5 207zM236 756q0 -92 68 -154 t263 -145q98 -40 172 -82q80 57 113 108.5t33 118.5q0 87 -65 145t-255 142l-174 74l-18 8q-66 -38 -101.5 -93.5t-35.5 -121.5z" />
<glyph unicode="&#xa8;" horiz-adv-x="0" d="M-272 1364v190h147v-190h-147zM123 1364v190h147v-190h-147z" />
<glyph unicode="&#xa9;" horiz-adv-x="1863" d="M117 778q0 164 64.5 313t173.5 257.5t260 172.5t317 64t317 -64t260 -172.5t173.5 -257.5t64.5 -313q0 -167 -64.5 -317t-175 -258t-263.5 -171t-324 -63q-160 0 -308.5 65t-257 174t-173 258.5t-64.5 311.5zM211 778q0 -151 57 -286.5t154.5 -233t233.5 -154.5t288 -57 q142 0 273 58.5t226.5 157t152.5 233.5t57 282q0 148 -57.5 283t-154 232.5t-230 155.5t-279.5 58t-279.5 -58t-230 -155.5t-154 -232.5t-57.5 -283zM545 770q0 211 110 339t291 128q159 0 255 -86.5t108 -241.5h-99q-3 109 -74.5 176.5t-185.5 67.5q-141 0 -224 -101.5 t-83 -273.5q0 -175 80 -277t217 -102q117 0 185 60.5t94 187.5h100q-22 -158 -120 -245t-255 -87q-186 0 -292.5 122t-106.5 333z" />
<glyph unicode="&#xaa;" horiz-adv-x="727" d="M63 1047q0 98 69.5 149t229.5 70l175 18v25q0 78 -44.5 121t-127.5 43q-79 0 -124.5 -38t-54.5 -110h-94v14q0 94 77 154.5t196 60.5q138 0 200 -67t62 -217v-236q0 -110 10 -168l2 -8h-92q-4 62 -4 90l-8 4q-73 -110 -226 -110q-109 0 -177.5 57t-68.5 148zM162 1047 q0 -57 42.5 -90t114.5 -33q106 0 162 65.5t56 192.5v10q0 10 2 16q-34 -8 -62 -10l-135 -16q-180 -20 -180 -135z" />
<glyph unicode="&#xab;" horiz-adv-x="755" d="M61 592l228 430h117l-216 -430l216 -445h-117zM362 592l228 430h115l-213 -430l213 -445h-115z" />
<glyph unicode="&#xac;" horiz-adv-x="1105" d="M98 936v106h908v-530h-113v377q0 28 4 51q-23 -4 -51 -4h-748z" />
<glyph unicode="&#xad;" horiz-adv-x="626" d="M53 549v129h518v-129h-518z" />
<glyph unicode="&#xae;" horiz-adv-x="1638" d="M68 739q0 153 59.5 292.5t159.5 240t239.5 160t292.5 59.5t292.5 -59.5t240 -160t160 -240t59.5 -292.5t-59.5 -292.5t-160 -239.5t-240 -159.5t-292.5 -59.5t-292.5 59.5t-239.5 159.5t-159.5 239.5t-59.5 292.5zM170 739q0 -133 51 -253t138 -207t207 -138t253 -51 t253 51t207 138t138 207t51 253q0 177 -86.5 326.5t-236 236.5t-326.5 87t-326.5 -87t-236 -236.5t-86.5 -326.5zM539 270v893h342q290 0 290 -248q0 -111 -61 -170.5t-160 -76.5l262 -398h-127l-254 398h-190v-398h-102zM641 758h211q105 0 161 36t56 124q0 155 -213 155 h-215v-315z" />
<glyph unicode="&#xaf;" horiz-adv-x="0" d="M-287 1411v117h574v-117h-574z" />
<glyph unicode="&#xb0;" horiz-adv-x="860" d="M117 1270q0 126 92 215.5t221 89.5t221 -89.5t92 -215.5q0 -128 -91.5 -217.5t-221.5 -89.5q-129 0 -221 90t-92 217zM195 1270q0 -97 68.5 -165.5t166.5 -68.5q97 0 166.5 68.5t69.5 165.5q0 95 -69.5 163t-166.5 68q-98 0 -166.5 -67.5t-68.5 -163.5z" />
<glyph unicode="&#xb1;" horiz-adv-x="1105" d="M102 182v107h904v-107h-904zM102 829v107h349q28 0 51 -4q-4 23 -4 51v317h112v-317q0 -28 -4 -51q23 4 51 4h349v-107h-349q-22 0 -51 5q4 -23 4 -52v-309h-112v309q0 29 4 52q-29 -5 -51 -5h-349z" />
<glyph unicode="&#xb2;" horiz-adv-x="774" d="M92 623q1 73 7 118.5t19 84.5t43 70.5t68.5 60.5t106.5 71l74 45q83 51 118 98t35 109q0 70 -48 116t-122 46q-86 0 -136 -52t-52 -143h-96q3 127 80 204t202 77q119 0 195 -69t76 -177q0 -72 -42 -140t-114 -112l-88 -55l-88 -47q-70 -43 -102 -92t-46 -134q56 5 105 5 h393v-84h-588z" />
<glyph unicode="&#xb3;" horiz-adv-x="774" d="M86 842v12h102q-2 -10 -2 -29q0 -75 53 -123.5t136 -48.5q89 0 144.5 48t55.5 126q0 83 -60.5 127.5t-174.5 44.5h-35v82h23q231 0 231 170q0 69 -51 114.5t-129 45.5q-85 0 -130.5 -47t-45.5 -135h-101q6 129 79.5 197.5t205.5 68.5q118 0 192 -67t74 -173 q0 -72 -29 -115.5t-112 -97.5q87 -38 124.5 -88.5t37.5 -128.5q0 -116 -82 -186t-217 -70t-212 72t-77 201z" />
<glyph unicode="&#xb4;" horiz-adv-x="0" d="M-123 1323l193 270h190l-237 -270h-146z" />
<glyph unicode="&#xb5;" horiz-adv-x="1214" d="M139 -467l4 41q13 109 13 178v1364h110v-655q0 -133 19.5 -199.5t74.5 -118.5q87 -84 230 -84q163 0 261.5 120t98.5 317v620h111v-1116h-107v121q0 62 15 141l-11 4q-62 -156 -152 -227.5t-226 -71.5q-105 0 -182 46t-140 147l-10 -2q12 -120 12 -236v-223 q0 -43 -10 -166h-111z" />
<glyph unicode="&#xb6;" horiz-adv-x="1277" d="M90 1169q0 109 52.5 197t146.5 135q58 29 128.5 41t178.5 12h637v-92h-229q-29 0 -52 4q4 -23 4 -51v-1882h-82v1882q0 22 5 51q-23 -4 -52 -4h-131q-28 0 -51 4q4 -23 4 -51v-1882h-82v1212q0 29 4 52q-23 -4 -45 -4q-198 0 -317 103t-119 273z" />
<glyph unicode="&#xb7;" horiz-adv-x="1105" d="M442 776q0 46 32.5 78.5t78.5 32.5t78.5 -32.5t32.5 -78.5t-32.5 -78t-78.5 -32t-78.5 32t-32.5 78z" />
<glyph unicode="&#xb8;" horiz-adv-x="0" d="M-262 -401l264 272h156l-215 -272h-205z" />
<glyph unicode="&#xb9;" horiz-adv-x="774" d="M219 1255v82h21q91 0 132 31.5t52 108.5h78v-887h-94v547q0 84 2 145q-55 -27 -142 -27h-49z" />
<glyph unicode="&#xba;" horiz-adv-x="759" d="M61 1200q0 163 87 258.5t235 95.5q143 0 229 -95.5t86 -254.5q0 -164 -86 -262t-229 -98q-145 0 -233.5 98t-88.5 258zM156 1204q0 -132 59 -205t166 -73q106 0 164.5 73t58.5 205q0 126 -60 198.5t-163 72.5q-104 0 -164.5 -72.5t-60.5 -198.5z" />
<glyph unicode="&#xbb;" horiz-adv-x="755" d="M51 147l215 445l-215 430h115l229 -430l-229 -445h-115zM352 147l213 445l-213 430h115l227 -430l-227 -445h-115z" />
<glyph unicode="&#xbc;" horiz-adv-x="1771" d="M225 1255v82h21q91 0 132 31.5t52 108.5h78v-887h-94v573q0 70 2 119q-63 -27 -142 -27h-49zM578 0l536 1477h94l-534 -1477h-96zM1067 242v77l377 568h117v-514q0 -22 -5 -51q23 4 52 4h110v-84h-110q-29 0 -52 4q5 -29 5 -51v-195h-95v195q0 28 4 51q-23 -4 -51 -4 h-352zM1167 326l2 -7q74 7 152 7h98q28 0 51 -4q-4 23 -4 51v174q0 97 11 235l-11 2q-70 -124 -145 -237l-39 -58q-37 -57 -115 -163z" />
<glyph unicode="&#xbd;" horiz-adv-x="1781" d="M225 1255v82h21q91 0 132 31.5t52 108.5h78v-887h-94v547q0 84 2 145q-55 -27 -142 -27h-49zM547 0l536 1477h95l-535 -1477h-96zM1098 35q0 91 21 149.5t72 109t152 112.5l74 45q85 53 119.5 99t34.5 107q0 70 -48 116t-122 46q-86 0 -137 -51.5t-52 -142.5h-96 q3 127 80.5 203.5t202.5 76.5q119 0 194.5 -68t75.5 -175q0 -73 -42 -141.5t-114 -112.5l-88 -56l-90 -55q-77 -47 -106 -92t-37 -125q25 4 61 4h435v-84h-588q-2 16 -2 35z" />
<glyph unicode="&#xbe;" horiz-adv-x="1767" d="M86 842v12h102q-2 -10 -2 -29q0 -75 53 -123.5t136 -48.5q89 0 144.5 48t55.5 126q0 83 -60.5 127.5t-174.5 44.5h-35v82h23q233 0 233 170q0 69 -51 114.5t-129 45.5q-86 0 -132 -47t-46 -135h-101q6 129 79.5 197.5t205.5 68.5q120 0 194 -67.5t74 -176.5 q0 -139 -147 -204v-7l6 -4q160 -63 160 -211q0 -116 -82 -186t-217 -70t-212 72t-77 201zM604 0l537 1477h94l-535 -1477h-96zM1063 242v77l377 568h116v-514q0 -28 -4 -51q23 4 52 4h110v-84h-110q-29 0 -52 4q4 -23 4 -51v-195h-94v195q0 28 4 51q-23 -4 -51 -4h-352z M1163 326l2 -7q74 7 152 7h98q28 0 51 -4q-4 23 -4 51v174q0 97 11 235l-11 2q-70 -124 -145 -237l-39 -58q-37 -57 -115 -163z" />
<glyph unicode="&#xbf;" d="M109 -78q0 191 159 322l127 102q91 75 122.5 153t31.5 226v80h119v-39v-18q0 -200 -41 -299.5t-168 -204.5q-131 -110 -173 -172.5t-42 -149.5q0 -118 89 -193t230 -75q143 0 233 85.5t99 231.5h131q-8 -203 -134.5 -319.5t-340.5 -116.5q-189 0 -315.5 111t-126.5 276z M526 934v194h162v-194h-162z" />
<glyph unicode="&#xc0;" horiz-adv-x="1462" d="M16 0l631 1554h176l623 -1554h-146l-202 516h-738l-200 -516h-144zM403 633q59 2 140 2h375q80 0 137 -2q-23 52 -51 127l-175 446q-48 126 -92 260h-8q-36 -109 -94 -258l-178 -448q-26 -69 -54 -127zM496 1917h188l193 -270h-146z" />
<glyph unicode="&#xc1;" horiz-adv-x="1462" d="M16 0l631 1554h176l623 -1554h-146l-202 516h-738l-200 -516h-144zM403 633q59 2 140 2h375q80 0 137 -2q-23 52 -51 127l-175 446q-48 126 -92 260h-8q-36 -109 -94 -258l-178 -448q-26 -69 -54 -127zM598 1647l190 270h191l-236 -270h-145z" />
<glyph unicode="&#xc2;" horiz-adv-x="1462" d="M16 0l631 1554h176l623 -1554h-146l-202 516h-738l-200 -516h-144zM403 633q59 2 140 2h375q80 0 137 -2q-23 52 -51 127l-175 446q-48 126 -92 260h-8q-36 -109 -94 -258l-178 -448q-26 -69 -54 -127zM420 1647l190 270h217l195 -270h-129l-123 145q-16 18 -31 38.5 t-22 29.5q-40 -54 -53 -70l-113 -143h-131z" />
<glyph unicode="&#xc3;" horiz-adv-x="1462" d="M16 0l631 1554h176l623 -1554h-146l-202 516h-738l-200 -516h-144zM383 1688q53 215 199 215q38 0 71.5 -14t81.5 -50q45 -35 70.5 -47t52.5 -12q73 0 100 121l99 -23q-26 -107 -76 -163t-119 -56q-70 0 -166 72q-40 31 -64 42t-50 11q-40 0 -65 -28.5t-40 -92.5z M403 633q59 2 140 2h375q80 0 137 -2q-23 52 -51 127l-175 446q-48 126 -92 260h-8q-36 -109 -94 -258l-178 -448q-26 -69 -54 -127z" />
<glyph unicode="&#xc4;" horiz-adv-x="1462" d="M16 0l631 1554h176l623 -1554h-146l-202 516h-738l-200 -516h-144zM403 633q59 2 140 2h375q80 0 137 -2q-23 52 -51 127l-175 446q-48 126 -92 260h-8q-36 -109 -94 -258l-178 -448q-26 -69 -54 -127zM449 1688v190h147v-190h-147zM844 1688v190h147v-190h-147z" />
<glyph unicode="&#xc5;" horiz-adv-x="1462" d="M16 0l631 1554h176l623 -1554h-146l-202 516h-738l-200 -516h-144zM403 633q59 2 140 2h375q80 0 137 -2q-23 52 -51 127l-175 446q-48 126 -92 260h-8q-36 -109 -94 -258l-178 -448q-26 -69 -54 -127zM526 1784q0 78 57.5 135t135.5 57q79 0 136.5 -56.5t57.5 -133.5 q0 -75 -61.5 -137t-136.5 -62q-74 0 -131.5 59.5t-57.5 137.5zM621 1782q0 -40 29.5 -70.5t68.5 -30.5q38 0 69 32t31 71q0 40 -29.5 69t-70.5 29q-40 0 -69 -29.5t-29 -70.5z" />
<glyph unicode="&#xc6;" horiz-adv-x="2195" d="M16 0l875 1554h1132v-116h-768q-40 0 -69 4q9 -49 12 -70l74 -512h708v-117h-626q-39 0 -70 2q10 -34 14 -65l80 -563h684v-117h-805l-79 551h-703l-305 -551h-154zM537 666q84 2 178 2h379q40 0 69 -2q-9 44 -12 65l-100 707h-84l-342 -621q-44 -77 -88 -151z" />
<glyph unicode="&#xc7;" horiz-adv-x="1488" d="M119 766q0 372 184 596.5t488 224.5q261 0 422.5 -149t183.5 -410h-142q-8 192 -135.5 315t-320.5 123q-248 0 -392.5 -186.5t-144.5 -507.5q0 -315 141 -498.5t385 -183.5q392 0 480 442h145q-37 -266 -203 -415.5t-424 -149.5q-309 0 -488 214.5t-179 584.5zM481 -401 l264 272h154l-213 -272h-205z" />
<glyph unicode="&#xc8;" horiz-adv-x="1310" d="M207 0v1554h962v-116h-786q-28 0 -51 4q4 -23 4 -51v-482q0 -28 -4 -51q23 4 51 4h745v-117h-745q-22 0 -51 5q4 -23 4 -52v-534q0 -28 -4 -51q23 4 51 4h815v-117h-991zM430 1917h191l192 -270h-145z" />
<glyph unicode="&#xc9;" horiz-adv-x="1310" d="M207 0v1554h962v-116h-786q-28 0 -51 4q4 -23 4 -51v-482q0 -28 -4 -51q23 4 51 4h745v-117h-745q-22 0 -51 5q4 -23 4 -52v-534q0 -28 -4 -51q23 4 51 4h815v-117h-991zM532 1647l193 270h190l-237 -270h-146z" />
<glyph unicode="&#xca;" horiz-adv-x="1310" d="M207 0v1554h962v-116h-786q-28 0 -51 4q4 -23 4 -51v-482q0 -28 -4 -51q23 4 51 4h745v-117h-745q-22 0 -51 5q4 -23 4 -52v-534q0 -28 -4 -51q23 4 51 4h815v-117h-991zM356 1647l189 270h217l194 -270h-127l-122 145q-34 39 -54 68q-40 -54 -53 -70l-115 -143h-129z " />
<glyph unicode="&#xcb;" horiz-adv-x="1310" d="M207 0v1554h962v-116h-786q-28 0 -51 4q4 -23 4 -51v-482q0 -28 -4 -51q23 4 51 4h745v-117h-745q-22 0 -51 5q4 -23 4 -52v-534q0 -28 -4 -51q23 4 51 4h815v-117h-991zM385 1688v190h147v-190h-147zM780 1688v190h148v-190h-148z" />
<glyph unicode="&#xcc;" horiz-adv-x="538" d="M45 1917h191l192 -270h-145zM207 0v1554h129v-1554h-129z" />
<glyph unicode="&#xcd;" horiz-adv-x="538" d="M147 1647l193 270h190l-237 -270h-146zM207 0v1554h129v-1554h-129z" />
<glyph unicode="&#xce;" horiz-adv-x="538" d="M-31 1647l191 270h217l194 -270h-129l-123 145q-16 18 -31 38.5t-22 29.5q-6 -10 -51 -70l-115 -143h-131zM205 0v1554h129v-1554h-129z" />
<glyph unicode="&#xcf;" horiz-adv-x="538" d="M-2 1688v190h147v-190h-147zM205 0v1554h129v-1554h-129zM393 1688v190h148v-190h-148z" />
<glyph unicode="&#xd0;" horiz-adv-x="1548" d="M45 737v107h109q28 0 51 -4q-4 23 -4 51v663h430q224 0 367 -49t249 -162q91 -98 139 -242t48 -317q0 -349 -185 -565q-98 -114 -248 -166.5t-378 -52.5h-422v690q0 28 4 51q-23 -4 -51 -4h-109zM326 113q23 4 51 4h248q185 0 304 38t195 121q84 92 129 223.5t45 284.5 q0 154 -47 284.5t-133 215.5q-85 85 -193.5 119.5t-289.5 34.5h-258q-28 0 -51 4q4 -23 4 -51v-500q0 -28 -4 -51q23 4 51 4h325v-107h-325q-28 0 -51 4q4 -23 4 -51v-526q0 -28 -4 -51z" />
<glyph unicode="&#xd1;" horiz-adv-x="1564" d="M203 0v1554h205l671 -1144q87 -147 164 -295l10 4q-6 231 -6 338v1097h129v-1554h-215l-661 1139q-102 173 -162 295l-10 -2q4 -170 4 -338v-1094h-129zM444 1688q53 215 199 215q38 0 72.5 -14.5t81.5 -49.5q45 -35 70.5 -47t52.5 -12q73 0 100 121l98 -23 q-54 -219 -194 -219q-70 0 -166 72q-39 31 -64 42t-51 11q-40 0 -64.5 -28.5t-39.5 -92.5z" />
<glyph unicode="&#xd2;" horiz-adv-x="1613" d="M117 768q0 373 187 596t501 223q315 0 503.5 -219t188.5 -586q0 -372 -189 -593.5t-507 -221.5q-313 0 -498.5 217t-185.5 584zM258 764q0 -309 149.5 -490.5t403.5 -181.5q243 0 396 192t153 498q0 307 -153 495.5t-402 188.5q-246 0 -396.5 -193t-150.5 -509zM582 1917 h190l191 -270h-146z" />
<glyph unicode="&#xd3;" horiz-adv-x="1613" d="M117 768q0 373 187 596t501 223q315 0 503.5 -219t188.5 -586q0 -372 -189 -593.5t-507 -221.5q-313 0 -498.5 217t-185.5 584zM258 764q0 -309 149.5 -490.5t403.5 -181.5q243 0 396 192t153 498q0 307 -153 495.5t-402 188.5q-246 0 -396.5 -193t-150.5 -509zM684 1647 l193 270h188l-236 -270h-145z" />
<glyph unicode="&#xd4;" horiz-adv-x="1613" d="M117 768q0 373 187 596t501 223q315 0 503.5 -219t188.5 -586q0 -372 -189 -593.5t-507 -221.5q-313 0 -498.5 217t-185.5 584zM258 764q0 -309 149.5 -490.5t403.5 -181.5q243 0 396 192t153 498q0 307 -153 495.5t-402 188.5q-246 0 -396.5 -193t-150.5 -509zM506 1647 l190 270h217l195 -270h-129l-121 145q-12 14 -55 68q-6 -10 -51 -70l-115 -143h-131z" />
<glyph unicode="&#xd5;" horiz-adv-x="1613" d="M117 768q0 373 187 596t501 223q315 0 503.5 -219t188.5 -586q0 -372 -189 -593.5t-507 -221.5q-313 0 -498.5 217t-185.5 584zM258 764q0 -309 149.5 -490.5t403.5 -181.5q243 0 396 192t153 498q0 307 -153 495.5t-402 188.5q-246 0 -396.5 -193t-150.5 -509zM469 1688 q53 215 199 215q38 0 71.5 -14t81.5 -50q45 -35 70.5 -47t52.5 -12q73 0 100 121l99 -23q-26 -107 -76 -163t-119 -56q-70 0 -166 72q-40 31 -64 42t-50 11q-40 0 -65 -28.5t-40 -92.5z" />
<glyph unicode="&#xd6;" horiz-adv-x="1613" d="M117 768q0 373 187 596t501 223q315 0 503.5 -219t188.5 -586q0 -372 -189 -593.5t-507 -221.5q-313 0 -498.5 217t-185.5 584zM258 764q0 -309 149.5 -490.5t403.5 -181.5q243 0 396 192t153 498q0 307 -153 495.5t-402 188.5q-246 0 -396.5 -193t-150.5 -509zM535 1688 v190h147v-190h-147zM932 1688v190h147v-190h-147z" />
<glyph unicode="&#xd7;" horiz-adv-x="1105" d="M137 440l303 303q21 21 39 33q-15 12 -39 33l-303 305l78 78l305 -303q21 -24 33 -39q12 18 33 39l303 303l78 -78l-303 -305q-5 -5 -37 -33q23 -17 37 -33l303 -303l-78 -78l-303 304q-18 16 -33 36q-21 -24 -33 -36l-305 -304z" />
<glyph unicode="&#xd8;" horiz-adv-x="1624" d="M121 766q0 374 187.5 597.5t500.5 223.5q257 0 440 -157q5 8 25 36l72 99l88 -68l-107 -143q80 -97 127 -251t47 -319q0 -372 -188.5 -594.5t-503.5 -222.5q-241 0 -416 137q-11 -21 -28 -43l-93 -124l-84 63l127 174q-95 104 -144.5 255.5t-49.5 336.5zM262 762 q0 -292 141 -477q23 37 68 98l698 944q-148 139 -362 139q-246 0 -395.5 -193t-149.5 -511zM475 209q140 -117 332 -117q250 0 403.5 191t153.5 503q0 125 -34 249.5t-91 207.5q-26 -41 -76 -110z" />
<glyph unicode="&#xd9;" horiz-adv-x="1478" d="M188 580v974h129v-944q0 -159 27 -249t94 -156q119 -119 301 -119q185 0 301 119q67 69 94 158.5t27 246.5v944h129v-974q0 -293 -143.5 -453t-407.5 -160t-407.5 160t-143.5 453zM514 1917h191l192 -270h-145z" />
<glyph unicode="&#xda;" horiz-adv-x="1478" d="M188 580v974h129v-944q0 -159 27 -249t94 -156q119 -119 301 -119q185 0 301 119q67 69 94 158.5t27 246.5v944h129v-974q0 -293 -143.5 -453t-407.5 -160t-407.5 160t-143.5 453zM616 1647l193 270h190l-237 -270h-146z" />
<glyph unicode="&#xdb;" horiz-adv-x="1478" d="M188 580v974h129v-944q0 -159 27 -249t94 -156q119 -119 301 -119q185 0 301 119q67 69 94 158.5t27 246.5v944h129v-974q0 -293 -143.5 -453t-407.5 -160t-407.5 160t-143.5 453zM438 1647l191 270h217l194 -270h-129l-120 145q-23 27 -56 68q-22 -34 -51 -70l-115 -143 h-131z" />
<glyph unicode="&#xdc;" horiz-adv-x="1478" d="M188 580v974h129v-944q0 -159 27 -249t94 -156q119 -119 301 -119q185 0 301 119q67 69 94 158.5t27 246.5v944h129v-974q0 -293 -143.5 -453t-407.5 -160t-407.5 160t-143.5 453zM467 1688v190h147v-190h-147zM864 1688v190h148v-190h-148z" />
<glyph unicode="&#xdd;" horiz-adv-x="1333" d="M16 1554h162l414 -639q11 -17 80 -129q52 86 80 129l413 639h150l-584 -892v-662h-129v662zM543 1647l192 270h191l-238 -270h-145z" />
<glyph unicode="&#xde;" horiz-adv-x="1333" d="M258 0v1554h127v-297h307q190 0 289 -61q88 -55 135 -152.5t47 -222.5q0 -123 -49 -217t-141 -151q-57 -35 -130 -50.5t-186 -15.5h-225q-28 0 -51 4q4 -23 4 -51v-340h-127zM381 475q20 4 49 4h223q199 0 294 83.5t95 260.5q0 342 -346 342h-266q-29 0 -49 4 q4 -25 4 -51v-592q0 -26 -4 -51z" />
<glyph unicode="&#xdf;" horiz-adv-x="1202" d="M176 0v1094q0 493 438 493q180 0 295 -102.5t115 -263.5q0 -120 -75 -213t-195 -119v-10q161 -34 251.5 -146t90.5 -276q0 -217 -131.5 -345t-354.5 -128q-50 0 -143 8v114q79 -8 125 -8q166 0 268.5 100t102.5 263q0 164 -103.5 263t-273.5 99h-21v117h27q141 1 222 73 t81 195q0 119 -79.5 192t-209.5 73q-301 0 -301 -367v-1106h-129z" />
<glyph unicode="&#xe0;" horiz-adv-x="1181" d="M117 307q0 160 111 243t364 114l293 34v52q0 139 -75.5 214.5t-215.5 75.5q-130 0 -209 -65t-92 -184h-129v10q2 154 122.5 253t307.5 99q221 0 317.5 -109t96.5 -360v-399q0 -107 8 -209q2 -30 10 -76h-125l-2 23q-6 71 -6 124v29l-8 2l-19 -26q-118 -179 -362 -179 q-172 0 -279.5 92.5t-107.5 241.5zM250 305q0 -101 72.5 -161t195.5 -60q180 0 273.5 114t93.5 334v29q0 17 4 31q-38 -8 -64 -12l-268 -33q-158 -19 -232.5 -78t-74.5 -164zM365 1593h190l193 -270h-146z" />
<glyph unicode="&#xe1;" horiz-adv-x="1181" d="M117 307q0 160 111 243t364 114l293 34v52q0 139 -75.5 214.5t-215.5 75.5q-130 0 -209 -65t-92 -184h-129v10q2 154 122.5 253t307.5 99q221 0 317.5 -109t96.5 -360v-399q0 -107 8 -209q2 -30 10 -76h-125l-2 23q-6 71 -6 124v29l-8 2l-19 -26q-118 -179 -362 -179 q-172 0 -279.5 92.5t-107.5 241.5zM250 305q0 -101 72.5 -161t195.5 -60q180 0 273.5 114t93.5 334v29q0 17 4 31q-38 -8 -64 -12l-268 -33q-158 -19 -232.5 -78t-74.5 -164zM467 1323l192 270h191l-238 -270h-145z" />
<glyph unicode="&#xe2;" horiz-adv-x="1181" d="M117 307q0 160 111 243t364 114l293 34v52q0 139 -75.5 214.5t-215.5 75.5q-130 0 -209 -65t-92 -184h-129v10q2 154 122.5 253t307.5 99q221 0 317.5 -109t96.5 -360v-399q0 -107 8 -209q2 -30 10 -76h-125l-2 23q-6 71 -6 124v29l-8 2l-19 -26q-118 -179 -362 -179 q-172 0 -279.5 92.5t-107.5 241.5zM250 305q0 -101 72.5 -161t195.5 -60q180 0 273.5 114t93.5 334v29q0 17 4 31q-38 -8 -64 -12l-268 -33q-158 -19 -232.5 -78t-74.5 -164zM289 1323l190 270h217l195 -270h-129l-121 145q-20 22 -55 70q-20 -32 -51 -72l-115 -143h-131z " />
<glyph unicode="&#xe3;" horiz-adv-x="1181" d="M117 307q0 160 111 243t364 114l293 34v52q0 139 -75.5 214.5t-215.5 75.5q-130 0 -209 -65t-92 -184h-129v10q2 154 122.5 253t307.5 99q221 0 317.5 -109t96.5 -360v-399q0 -107 8 -209q2 -30 10 -76h-125l-2 23q-6 71 -6 124v29l-8 2l-19 -26q-118 -179 -362 -179 q-172 0 -279.5 92.5t-107.5 241.5zM250 305q0 -101 72.5 -161t195.5 -60q180 0 273.5 114t93.5 334v29q0 17 4 31q-38 -8 -64 -12l-268 -33q-158 -19 -232.5 -78t-74.5 -164zM252 1366q26 105 77 160t122 55q38 0 72 -14t81 -49q46 -35 71.5 -47.5t51.5 -12.5q76 0 100 119 l99 -23q-26 -106 -76 -161.5t-119 -55.5q-68 0 -164 72q-41 31 -65.5 42t-50.5 11q-40 0 -65 -29.5t-40 -93.5z" />
<glyph unicode="&#xe4;" horiz-adv-x="1181" d="M117 307q0 160 111 243t364 114l293 34v52q0 139 -75.5 214.5t-215.5 75.5q-130 0 -209 -65t-92 -184h-129v10q2 154 122.5 253t307.5 99q221 0 317.5 -109t96.5 -360v-399q0 -107 8 -209q2 -30 10 -76h-125l-2 23q-6 71 -6 124v29l-8 2l-19 -26q-118 -179 -362 -179 q-172 0 -279.5 92.5t-107.5 241.5zM250 305q0 -101 72.5 -161t195.5 -60q180 0 273.5 114t93.5 334v29q0 17 4 31q-38 -8 -64 -12l-268 -33q-158 -19 -232.5 -78t-74.5 -164zM317 1364v190h148v-190h-148zM715 1364v190h147v-190h-147z" />
<glyph unicode="&#xe5;" horiz-adv-x="1181" d="M117 307q0 160 111 243t364 114l293 34v52q0 139 -75.5 214.5t-215.5 75.5q-130 0 -209 -65t-92 -184h-129v10q2 154 122.5 253t307.5 99q221 0 317.5 -109t96.5 -360v-399q0 -107 8 -209q2 -30 10 -76h-125l-2 23q-6 71 -6 124v29l-8 2l-19 -26q-118 -179 -362 -179 q-172 0 -279.5 92.5t-107.5 241.5zM250 305q0 -101 72.5 -161t195.5 -60q180 0 273.5 114t93.5 334v29q0 17 4 31q-38 -8 -64 -12l-268 -33q-158 -19 -232.5 -78t-74.5 -164zM395 1460q0 78 58 135.5t137 57.5q78 0 136 -57t58 -134q0 -75 -62 -136.5t-136 -61.5 q-75 0 -133 59t-58 137zM489 1458q0 -40 30.5 -70t70.5 -30q37 0 68.5 32t31.5 70q0 40 -29.5 69.5t-70.5 29.5t-71 -30t-30 -71z" />
<glyph unicode="&#xe6;" horiz-adv-x="1984" d="M121 313q0 86 41.5 157t116.5 112q134 73 512 73q77 0 124 -4l-2 33q-15 354 -311 354q-127 0 -203 -68t-90 -194h-139q19 179 131 278t295 99q150 0 251.5 -80.5t133.5 -224.5h10q34 135 147 220t259 85q217 0 348 -154t131 -409v-47h-844v-31q0 -186 107 -308t270 -122 q125 0 205 62t123 192h139q-28 -158 -160.5 -260.5t-310.5 -102.5q-320 0 -426 301h-8q-46 -145 -160 -223t-279 -78q-184 0 -297.5 94t-113.5 246zM258 313q0 -101 77.5 -162t207.5 -61q175 0 271.5 107t96.5 299q0 27 -2 47h-57q-327 0 -460.5 -52t-133.5 -178zM1038 651 q21 0 27 2q14 2 27 2h618q23 0 39 -4q-2 170 -99.5 276.5t-252.5 106.5q-145 0 -252 -106t-107 -250v-6v-21z" />
<glyph unicode="&#xe7;" horiz-adv-x="1126" d="M111 561q0 269 134 430.5t357 161.5q121 0 222 -52.5t161.5 -146t67.5 -209.5h-131q-9 124 -101 208.5t-217 84.5q-161 0 -263.5 -132t-102.5 -339q0 -215 102 -349t266 -134q129 0 222 86t106 221h133q-32 -204 -150.5 -311t-312.5 -107q-224 0 -358.5 160t-134.5 428z M301 -401l264 272h156l-213 -272h-207z" />
<glyph unicode="&#xe8;" horiz-adv-x="1191" d="M109 569q0 266 136 425t363 159q229 0 356.5 -154.5t127.5 -435.5v-22h-859v-15v-26q3 -177 115 -299.5t270 -122.5q127 0 221 74t111 188h131q-31 -172 -154 -269.5t-309 -97.5q-235 0 -372 160.5t-137 435.5zM238 643q23 4 57 4h614q35 0 60 -4q-12 192 -108.5 296.5 t-260.5 104.5q-157 0 -254.5 -107.5t-107.5 -293.5zM371 1593h190l193 -270h-146z" />
<glyph unicode="&#xe9;" horiz-adv-x="1191" d="M109 569q0 266 136 425t363 159q229 0 356.5 -154.5t127.5 -435.5v-22h-859v-15v-26q3 -177 115 -299.5t270 -122.5q127 0 221 74t111 188h131q-31 -172 -154 -269.5t-309 -97.5q-235 0 -372 160.5t-137 435.5zM238 643q23 4 57 4h614q35 0 60 -4q-12 192 -108.5 296.5 t-260.5 104.5q-157 0 -254.5 -107.5t-107.5 -293.5zM473 1323l193 270h190l-238 -270h-145z" />
<glyph unicode="&#xea;" horiz-adv-x="1191" d="M109 569q0 266 136 425t363 159q229 0 356.5 -154.5t127.5 -435.5v-22h-859v-15v-26q3 -177 115 -299.5t270 -122.5q127 0 221 74t111 188h131q-31 -172 -154 -269.5t-309 -97.5q-235 0 -372 160.5t-137 435.5zM238 643q23 4 57 4h614q35 0 60 -4q-12 192 -108.5 296.5 t-260.5 104.5q-157 0 -254.5 -107.5t-107.5 -293.5zM297 1323l190 270h215l197 -270h-129l-123 145q-37 45 -53 70q-8 -11 -23.5 -32t-29.5 -40l-113 -143h-131z" />
<glyph unicode="&#xeb;" horiz-adv-x="1191" d="M109 569q0 266 136 425t363 159q229 0 356.5 -154.5t127.5 -435.5v-22h-859v-15v-26q3 -177 115 -299.5t270 -122.5q127 0 221 74t111 188h131q-31 -172 -154 -269.5t-309 -97.5q-235 0 -372 160.5t-137 435.5zM238 643q23 4 57 4h614q35 0 60 -4q-12 192 -108.5 296.5 t-260.5 104.5q-157 0 -254.5 -107.5t-107.5 -293.5zM326 1364v190h147v-190h-147zM721 1364v190h147v-190h-147z" />
<glyph unicode="&#xec;" horiz-adv-x="485" d="M16 1593h191l192 -270h-145zM180 0v1126h123v-1126h-123z" />
<glyph unicode="&#xed;" horiz-adv-x="485" d="M119 1323l192 270h191l-238 -270h-145zM180 0v1126h123v-1126h-123z" />
<glyph unicode="&#xee;" horiz-adv-x="485" d="M-57 1323l190 270h217l195 -270h-129l-123 145q-11 14 -53 70q-15 -23 -52 -72l-114 -143h-131zM182 0v1126h123v-1126h-123z" />
<glyph unicode="&#xef;" horiz-adv-x="485" d="M-29 1364v190h148v-190h-148zM182 0v1126h123v-1126h-123zM367 1364v190h147v-190h-147z" />
<glyph unicode="&#xf0;" horiz-adv-x="1236" d="M205 569q0 275 106.5 422.5t304.5 147.5q125 0 201 -70l8 8l-6 8l-55 78q-62 83 -223 180l-271 -163l-34 51l118 72q53 31 123 69q-79 34 -124 49.5t-128 36.5l41 68q96 -24 142 -40t151 -61l254 154l33 -49l-111 -68q-3 -2 -114 -65l20 -17q119 -83 181 -154.5 t116 -189.5q92 -207 92 -463q0 -295 -104 -447.5t-305 -152.5q-206 0 -311 150t-105 446zM317 567q0 -512 299 -512q149 0 225.5 126.5t76.5 373.5q0 510 -297 510q-304 0 -304 -498z" />
<glyph unicode="&#xf1;" horiz-adv-x="1224" d="M182 0v1126h123v-79q0 -29 -14 -103l10 -2q40 98 131 154.5t211 56.5q192 0 299 -119.5t107 -333.5v-700h-123v700q0 164 -75.5 253t-215.5 89q-148 0 -239 -102t-91 -266v-674h-123zM274 1366q26 106 77.5 160.5t123.5 54.5q39 0 73 -14t79 -49q46 -35 71.5 -47.5 t51.5 -12.5q76 0 100 119l98 -23q-26 -106 -75.5 -161.5t-118.5 -55.5q-68 0 -164 72q-41 31 -66 42t-51 11q-40 0 -64.5 -29t-39.5 -94z" />
<glyph unicode="&#xf2;" horiz-adv-x="1234" d="M113 565q0 269 138.5 428.5t373.5 159.5q227 0 363 -159t136 -423q0 -272 -136.5 -435t-364.5 -163q-229 0 -369.5 163t-140.5 429zM240 571q0 -230 99 -357.5t279 -127.5t279.5 127.5t99.5 357.5q0 219 -102 346t-277 127t-276.5 -127t-101.5 -346zM393 1593h191 l192 -270h-145z" />
<glyph unicode="&#xf3;" horiz-adv-x="1234" d="M113 565q0 269 138.5 428.5t373.5 159.5q227 0 363 -159t136 -423q0 -272 -136.5 -435t-364.5 -163q-229 0 -369.5 163t-140.5 429zM240 571q0 -230 99 -357.5t279 -127.5t279.5 127.5t99.5 357.5q0 219 -102 346t-277 127t-276.5 -127t-101.5 -346zM496 1323l192 270 h191l-238 -270h-145z" />
<glyph unicode="&#xf4;" horiz-adv-x="1234" d="M113 565q0 269 138.5 428.5t373.5 159.5q227 0 363 -159t136 -423q0 -272 -136.5 -435t-364.5 -163q-229 0 -369.5 163t-140.5 429zM240 571q0 -230 99 -357.5t279 -127.5t279.5 127.5t99.5 357.5q0 219 -102 346t-277 127t-276.5 -127t-101.5 -346zM317 1323l191 270 h217l195 -270h-129l-121 145q-26 30 -56 70q-20 -32 -51 -72l-114 -143h-132z" />
<glyph unicode="&#xf5;" horiz-adv-x="1234" d="M113 565q0 269 138.5 428.5t373.5 159.5q227 0 363 -159t136 -423q0 -272 -136.5 -435t-364.5 -163q-229 0 -369.5 163t-140.5 429zM240 571q0 -230 99 -357.5t279 -127.5t279.5 127.5t99.5 357.5q0 219 -102 346t-277 127t-276.5 -127t-101.5 -346zM281 1366 q26 106 76.5 160.5t121.5 54.5q70 0 154 -63q46 -35 71.5 -47.5t51.5 -12.5q76 0 100 119l98 -23q-26 -106 -75.5 -161.5t-118.5 -55.5q-68 0 -164 72q-41 31 -66 42t-51 11q-40 0 -64.5 -29t-39.5 -94z" />
<glyph unicode="&#xf6;" horiz-adv-x="1234" d="M113 565q0 269 138.5 428.5t373.5 159.5q227 0 363 -159t136 -423q0 -272 -136.5 -435t-364.5 -163q-229 0 -369.5 163t-140.5 429zM240 571q0 -230 99 -357.5t279 -127.5t279.5 127.5t99.5 357.5q0 219 -102 346t-277 127t-276.5 -127t-101.5 -346zM346 1364v190h148 v-190h-148zM743 1364v190h148v-190h-148z" />
<glyph unicode="&#xf7;" horiz-adv-x="1105" d="M102 723v106h904v-106h-904zM475 428q0 32 24 56t56 24t56 -24t24 -56t-24 -56t-56 -24t-56 24t-24 56zM475 1126q0 32 24 56t56 24t56 -24t24 -56t-24 -55.5t-56 -23.5t-56 23.5t-24 55.5z" />
<glyph unicode="&#xf8;" horiz-adv-x="1234" d="M98 -41l140 188q-134 165 -134 418q0 269 138.5 428.5t373.5 159.5q174 0 295 -98q5 10 17 28l98 134l80 -66l-121 -164q131 -162 131 -416q0 -272 -136.5 -435t-365.5 -163q-175 0 -303 107q-8 -17 -28 -45l-105 -141zM231 571q0 -204 82 -329q27 43 82 118l445 603 q-104 81 -230 81q-175 0 -277 -127t-102 -346zM379 166q103 -80 233 -80q179 0 278 127.5t99 357.5q0 196 -82 320q-44 -69 -76 -113z" />
<glyph unicode="&#xf9;" horiz-adv-x="1214" d="M172 518v608h123v-608q0 -124 9 -186t32 -107q35 -66 103.5 -104.5t152.5 -38.5q90 0 169 46t116 120q25 47 34 106t9 164v608h122v-1126h-122v76q0 41 12 88l-10 2q-114 -193 -340 -193q-119 0 -215 52t-140 141q-34 64 -44.5 133.5t-10.5 218.5zM381 1593h190l193 -270 h-146z" />
<glyph unicode="&#xfa;" horiz-adv-x="1214" d="M172 518v608h123v-608q0 -124 9 -186t32 -107q35 -66 103.5 -104.5t152.5 -38.5q90 0 169 46t116 120q25 47 34 106t9 164v608h122v-1126h-122v76q0 41 12 88l-10 2q-114 -193 -340 -193q-119 0 -215 52t-140 141q-34 64 -44.5 133.5t-10.5 218.5zM483 1323l193 270h190 l-237 -270h-146z" />
<glyph unicode="&#xfb;" horiz-adv-x="1214" d="M172 518v608h123v-608q0 -124 9 -186t32 -107q35 -66 103.5 -104.5t152.5 -38.5q90 0 169 46t116 120q25 47 34 106t9 164v608h122v-1126h-122v76q0 41 12 88l-10 2q-114 -193 -340 -193q-119 0 -215 52t-140 141q-34 64 -44.5 133.5t-10.5 218.5zM305 1323l191 270h217 l194 -270h-127l-123 145q-33 40 -55 70q-20 -32 -51 -72l-115 -143h-131z" />
<glyph unicode="&#xfc;" horiz-adv-x="1214" d="M172 518v608h123v-608q0 -124 9 -186t32 -107q35 -66 103.5 -104.5t152.5 -38.5q90 0 169 46t116 120q25 47 34 106t9 164v608h122v-1126h-122v76q0 41 12 88l-10 2q-114 -193 -340 -193q-119 0 -215 52t-140 141q-34 64 -44.5 133.5t-10.5 218.5zM334 1364v190h147v-190 h-147zM731 1364v190h148v-190h-148z" />
<glyph unicode="&#xfd;" horiz-adv-x="1069" d="M18 1126h136l280 -729q59 -157 92 -266h11q36 120 92 266l278 729h135l-499 -1253q-55 -139 -143 -206.5t-214 -67.5q-36 0 -110 10v115q56 -11 88 -11q118 0 178.5 58.5t122.5 230.5zM412 1323l192 270h189l-236 -270h-145z" />
<glyph unicode="&#xfe;" horiz-adv-x="1234" d="M248 -385v1939h110v-294q0 -158 -14 -318l10 -2q56 115 129.5 165t186.5 50q381 0 381 -580q0 -302 -93.5 -451t-283.5 -149q-119 0 -196.5 52.5t-121.5 162.5l-12 -2q16 -185 16 -299v-274h-112zM354 565q0 -504 293 -504q146 0 217.5 126.5t71.5 385.5 q0 251 -71.5 373.5t-219.5 122.5q-143 0 -217 -128.5t-74 -375.5z" />
<glyph unicode="&#xff;" horiz-adv-x="1069" d="M18 1126h136l280 -729q59 -157 92 -266h11q36 120 92 266l278 729h135l-499 -1253q-55 -139 -143 -206.5t-214 -67.5q-36 0 -110 10v115q56 -11 88 -11q118 0 178.5 58.5t122.5 230.5zM262 1364v190h148v-190h-148zM659 1364v190h148v-190h-148z" />
<glyph unicode="&#x152;" horiz-adv-x="2201" d="M117 782q0 205 75 375.5t207 265.5q90 62 225 96.5t291 34.5h1147v-116h-753q-29 0 -52 4q5 -29 5 -51v-480q0 -22 -5 -51q23 4 52 4h710v-116h-710q-29 0 -52 4q5 -29 5 -52v-536q0 -22 -5 -51q23 4 52 4h780v-117h-1174q-360 0 -542 145q-117 92 -186.5 265.5 t-69.5 371.5zM260 784q0 -193 62.5 -339t179.5 -228q78 -55 171 -77.5t242 -22.5h170q29 0 52 -4q-4 23 -4 51v1227q0 28 4 51q-23 -4 -52 -4h-170q-320 0 -487.5 -167.5t-167.5 -486.5z" />
<glyph unicode="&#x153;" horiz-adv-x="2066" d="M106 563q0 262 142.5 426t369.5 164q163 0 268 -77.5t167 -241.5h10q43 149 155.5 234t266.5 85q227 0 355 -154t128 -428v-36h-815q-23 0 -37 4q2 -209 102.5 -331t272.5 -122q129 0 218.5 68.5t117.5 189.5h141q-54 -182 -174.5 -276.5t-300.5 -94.5q-166 0 -281 90.5 t-149 245.5h-10q-122 -336 -437 -336q-229 0 -369.5 163t-140.5 427zM236 567q0 -217 104 -348t276 -131q174 0 277.5 128.5t103.5 346.5q0 226 -99 351.5t-277 125.5q-175 0 -280 -129.5t-105 -343.5zM1120 641q20 4 51 4h625q25 0 43 -4q-4 189 -96.5 294t-253.5 105 q-160 0 -259.5 -107.5t-109.5 -291.5z" />
<glyph unicode="&#x178;" horiz-adv-x="1333" d="M16 1554h162l414 -639q11 -17 80 -129q52 86 80 129l413 639h150l-584 -892v-662h-129v662zM395 1688v190h148v-190h-148zM791 1688v190h147v-190h-147z" />
<glyph unicode="&#x2c6;" horiz-adv-x="0" d="M-301 1323l190 270h217l195 -270h-129l-123 145q-11 14 -53 70q-20 -32 -51 -72l-115 -143h-131z" />
<glyph unicode="&#x2dc;" horiz-adv-x="0" d="M-338 1366q53 215 199 215q38 0 72 -14t81 -49q46 -35 71.5 -47.5t51.5 -12.5q74 0 101 119l98 -23q-26 -106 -76 -161.5t-119 -55.5q-70 0 -166 72q-42 31 -65 42t-49 11q-40 0 -65 -29.5t-40 -93.5z" />
<glyph unicode="&#x2000;" horiz-adv-x="988" />
<glyph unicode="&#x2001;" horiz-adv-x="1976" />
<glyph unicode="&#x2002;" horiz-adv-x="988" />
<glyph unicode="&#x2003;" horiz-adv-x="1976" />
<glyph unicode="&#x2004;" horiz-adv-x="658" />
<glyph unicode="&#x2005;" horiz-adv-x="494" />
<glyph unicode="&#x2006;" horiz-adv-x="329" />
<glyph unicode="&#x2007;" horiz-adv-x="329" />
<glyph unicode="&#x2008;" horiz-adv-x="247" />
<glyph unicode="&#x2009;" horiz-adv-x="395" />
<glyph unicode="&#x200a;" horiz-adv-x="109" />
<glyph unicode="&#x2010;" horiz-adv-x="626" d="M53 549v129h518v-129h-518z" />
<glyph unicode="&#x2011;" horiz-adv-x="626" d="M53 549v129h518v-129h-518z" />
<glyph unicode="&#x2012;" horiz-adv-x="626" d="M53 549v129h518v-129h-518z" />
<glyph unicode="&#x2013;" horiz-adv-x="884" d="M53 553v117h776v-117h-776z" />
<glyph unicode="&#x2014;" d="M55 553v117h1004v-117h-1004z" />
<glyph unicode="&#x2018;" horiz-adv-x="518" d="M154 1087v197l79 270h99l-47 -223q-6 -33 -21 -86q14 2 37 2h33v-160h-180z" />
<glyph unicode="&#x2019;" horiz-adv-x="518" d="M164 1395v159h180v-196l-80 -271h-98l47 224q8 42 20 86q-14 -2 -36 -2h-33z" />
<glyph unicode="&#x201a;" horiz-adv-x="518" d="M158 35v160h180v-197l-80 -270h-98l47 223q8 43 20 86q-14 -2 -37 -2h-32z" />
<glyph unicode="&#x201c;" horiz-adv-x="755" d="M143 1087v197l80 270h99l-48 -223q-8 -42 -20 -86q14 2 37 2h33v-160h-181zM446 1087v197l80 270h99l-47 -223q-6 -33 -21 -86q14 2 37 2h33v-160h-181z" />
<glyph unicode="&#x201d;" horiz-adv-x="755" d="M131 1395v159h180v-196l-80 -271h-98l47 224q6 33 21 86q-14 -2 -37 -2h-33zM434 1395v159h180v-196l-79 -271h-99l47 224q6 33 21 86q-14 -2 -37 -2h-33z" />
<glyph unicode="&#x201e;" horiz-adv-x="755" d="M125 35v160h180v-197l-80 -270h-98l47 223q6 33 21 86q-14 -2 -37 -2h-33zM428 35v160h180v-197l-80 -270h-98l47 223q6 33 21 86q-14 -2 -37 -2h-33z" />
<glyph unicode="&#x2022;" horiz-adv-x="1105" d="M184 776q0 152 108.5 260.5t260.5 108.5t260.5 -108.5t108.5 -260.5t-108.5 -260t-260.5 -108t-260.5 108t-108.5 260z" />
<glyph unicode="&#x2026;" horiz-adv-x="1554" d="M174 0v195h180v-195h-180zM692 0v195h180v-195h-180zM1210 0v195h181v-195h-181z" />
<glyph unicode="&#x202f;" horiz-adv-x="395" />
<glyph unicode="&#x2039;" horiz-adv-x="518" d="M72 592l227 430h117l-215 -430l215 -445h-117z" />
<glyph unicode="&#x203a;" horiz-adv-x="518" d="M102 147l215 445l-215 430h115l229 -430l-229 -445h-115z" />
<glyph unicode="&#x205f;" horiz-adv-x="494" />
<glyph unicode="&#x2122;" horiz-adv-x="1830" d="M16 1475v79h752v-79h-289q-28 0 -51 4q4 -23 4 -52v-759h-92v759q0 29 4 52q-23 -4 -51 -4h-277zM811 668v886h135l219 -540q65 -163 95 -250h8q45 130 94 250l221 540h135v-886h-92v393q0 185 10 397l-10 2q-61 -172 -143 -370l-174 -422h-88l-174 422q-77 181 -144 370 l-10 -2q10 -213 10 -397v-393h-92z" />
<glyph unicode="&#x25fc;" horiz-adv-x="1126" d="M0 0v1126h1126v-1126h-1126z" />
<glyph unicode="&#xfb01;" horiz-adv-x="1273" d="M25 1022v104h159q29 0 52 -4q-5 29 -5 52v98q0 163 64 236t205 73q31 0 86 -8v-109q-58 4 -64 4q-95 0 -131.5 -41.5t-36.5 -150.5v-102q0 -29 -4 -52q23 4 51 4h699v-1126h-123v975q0 28 4 51q-23 -4 -51 -4h-529q-28 0 -51 4q4 -23 4 -51v-975h-123v975q0 22 5 51 q-23 -4 -52 -4h-159zM965 1364v190h147v-190h-147z" />
<glyph unicode="&#xfb02;" horiz-adv-x="1277" d="M25 1022v104h159q29 0 52 -4q-5 29 -5 52v63q0 163 127.5 253.5t354.5 90.5q110 0 387 -27v-1554h-123v1454q-131 16 -295 16q-195 0 -261.5 -64t-66.5 -253v-31q7 0 17 1t12 1q14 2 29 2h174v-104h-185q-28 0 -51 4q4 -23 4 -51v-975h-123v975q0 22 5 51q-23 -4 -52 -4 h-159z" />
</font>
</defs>
</svg>
