<?xml version="1.0" encoding="utf-8"?>
<!-- Generator: Adobe Illustrator 16.0.4, SVG Export Plug-In . SVG Version: 6.00 Build 0)  -->
<!DOCTYPE svg PUBLIC "-//W3C//DTD SVG 1.1//EN" "http://www.w3.org/Graphics/SVG/1.1/DTD/svg11.dtd">
<svg version="1.1" id="Calque_1" xmlns="http://www.w3.org/2000/svg" xmlns:xlink="http://www.w3.org/1999/xlink" x="0px" y="0px"
	 width="277.795px" height="394.02px" viewBox="0 0 277.795 394.02" enable-background="new 0 0 277.795 394.02"
	 xml:space="preserve">
<rect x="25.513" y="11.339" fill="#EFF0F9" width="226.771" height="50.031"/>
<rect x="153.071" y="27.161" fill="#EFF0F9" width="124.724" height="366.859"/>
<rect y="27.161" fill="#EFF0F9" width="124.725" height="366.859"/>
<path fill="#FFFFFF" d="M0.5,0.5c0,9.115,0,18.231,0,27.346c92.271,0,184.525,0,276.795,0V0.5C185.025,0.5,92.771,0.5,0.5,0.5"/>
<g>
	<path fill="#2C2F7C" d="M111.174,11.391h3.525v1.071h-2.326v1.367h2.271v1.072h-2.271v2.502h-1.199V11.391z"/>
	<path fill="#2C2F7C" d="M119.18,16.148h-2.199l-0.392,1.255h-1.295l2.19-6.013h1.264l2.159,6.013h-1.319L119.18,16.148z
		 M118.093,12.838h-0.017l-0.76,2.334h1.544L118.093,12.838z"/>
	<path fill="#2C2F7C" d="M122.054,11.391h2.135c1.279,0,1.942,0.656,1.942,1.631c0,0.664-0.376,1.039-0.808,1.239v0.016
		c0.536,0.128,1,0.616,1,1.367c0,1.104-0.848,1.759-2.087,1.759h-2.183V11.391z M123.98,13.861c0.567,0,0.951-0.256,0.951-0.736
		c0-0.496-0.368-0.711-0.848-0.711h-0.831v1.447H123.98z M124.044,16.38c0.76,0,1.031-0.336,1.031-0.76
		c0-0.384-0.239-0.783-0.936-0.783h-0.887v1.543H124.044z"/>
	<path fill="#2C2F7C" d="M129.692,15.029h-0.703v2.375h-1.199v-6.013h2.246c1.264,0,1.983,0.792,1.983,1.791
		c0,0.632-0.344,1.455-1.12,1.687l1.399,2.535h-1.431L129.692,15.029z M129.788,14.053c0.824,0,1.032-0.44,1.032-0.824
		c0-0.432-0.208-0.815-1.071-0.815h-0.76v1.639H129.788z"/>
	<path fill="#2C2F7C" d="M133.589,11.391h1.199v6.013h-1.199V11.391z"/>
	<path fill="#2C2F7C" d="M140.843,17.083c-0.464,0.288-1,0.432-1.6,0.432c-1.871,0-2.927-1.503-2.927-3.118s1.056-3.118,2.927-3.118
		s2.927,1.503,2.927,3.118c0,0.711-0.225,1.439-0.616,1.975l0.728,0.624l-0.695,0.751L140.843,17.083z M140.083,15.108l0.552,0.472
		c0.191-0.32,0.287-0.76,0.287-1.184c0-1.08-0.56-2.047-1.679-2.047s-1.679,0.967-1.679,2.047s0.56,2.047,1.679,2.047
		c0.24,0,0.544-0.064,0.712-0.152l-0.528-0.464L140.083,15.108z"/>
	<path fill="#2C2F7C" d="M147.388,11.391h1.199v3.518c0,1.879-1.191,2.606-2.503,2.606s-2.503-0.728-2.503-2.606v-3.518h1.199v3.526
		c0,1,0.448,1.527,1.304,1.527s1.304-0.528,1.304-1.527V11.391z"/>
	<path fill="#2C2F7C" d="M153.563,16.148h-2.199l-0.392,1.255h-1.295l2.19-6.013h1.264l2.158,6.013h-1.318L153.563,16.148z
		 M152.476,12.838h-0.016l-0.76,2.334h1.543L152.476,12.838z"/>
	<path fill="#2C2F7C" d="M157.604,13.302h-0.016v4.102h-1.151v-6.013h1.287l2.438,4.038h0.016v-4.038h1.151v6.013h-1.239
		L157.604,13.302z"/>
	<path fill="#2C2F7C" d="M164.229,12.462h-1.583v-1.071h4.365v1.071h-1.583v4.941h-1.199V12.462z"/>
</g>
<path fill="none" stroke="#2C2F7C" d="M0.5,0.5c0,9.115,0,18.231,0,27.346c92.271,0,184.525,0,276.795,0V0.5
	C185.025,0.5,92.771,0.5,0.5,0.5z"/>
<line fill="none" stroke="#2C2F7C" x1="153.071" y1="394.02" x2="277.795" y2="394.02"/>
<line fill="none" stroke="#2C2F7C" x1="0" y1="394.02" x2="124.725" y2="394.02"/>
<path fill="#FAE683" d="M67.692,167.591c4.43,0,8.021-3.591,8.021-8.021c0-4.429-3.591-8.02-8.021-8.02s-8.021,3.591-8.021,8.02
	C59.672,164,63.263,167.591,67.692,167.591"/>
<circle fill="none" stroke="#2C2F7C" cx="67.692" cy="159.571" r="8.021"/>
<path fill="#2C2F7C" d="M70.911,161.886c-0.766,0.866-1.688,1.299-2.765,1.299c-0.991,0-1.831-0.345-2.521-1.034
	c-0.688-0.69-1.034-1.53-1.034-2.521c0-0.991,0.346-1.831,1.034-2.52c0.69-0.689,1.53-1.034,2.521-1.034
	c1.055,0,1.977,0.424,2.765,1.273l0.312-0.717c-0.846-0.844-1.87-1.267-3.076-1.267c-1.207,0-2.22,0.41-3.038,1.228
	c-0.818,0.819-1.228,1.831-1.228,3.037c0,1.207,0.409,2.219,1.228,3.038c0.818,0.818,1.831,1.228,3.038,1.228
	c1.098,0,2.02-0.321,2.765-0.963V161.886 M69.808,159.986h-6.767l-0.311,0.711h6.766L69.808,159.986z M70.401,158.564h-7.36
	l-0.311,0.711h7.374L70.401,158.564z"/>
<polygon fill="none" stroke="#2C2F7C" stroke-width="0.25" points="70.401,158.564 63.041,158.564 62.73,159.275 70.104,159.275 "/>
<polygon fill="none" stroke="#2C2F7C" stroke-width="0.25" points="69.808,159.986 63.041,159.986 62.731,160.697 69.497,160.697 
	"/>
<path fill="none" stroke="#2C2F7C" stroke-width="0.25" d="M70.912,161.886c-0.767,0.866-1.688,1.299-2.766,1.299
	c-0.991,0-1.831-0.345-2.521-1.034c-0.688-0.689-1.033-1.529-1.033-2.52c0-0.991,0.345-1.831,1.033-2.521
	c0.689-0.689,1.529-1.034,2.521-1.034c1.056,0,1.978,0.425,2.766,1.273l0.311-0.717c-0.845-0.844-1.87-1.266-3.076-1.266
	s-2.22,0.409-3.037,1.227c-0.819,0.819-1.229,1.831-1.229,3.038c0,1.206,0.409,2.218,1.229,3.037
	c0.817,0.818,1.831,1.228,3.037,1.228c1.099,0,2.021-0.321,2.766-0.963V161.886z"/>
<g>
	<path fill="#2C2F7C" d="M31.295,366.394h2.263c1.822,0,2.895,1.07,2.895,3.006c0,1.919-1.328,3.006-2.863,3.006h-2.294V366.394z
		 M33.509,371.382c1.231,0,1.695-1.055,1.695-1.99c0-1.008-0.432-1.975-1.791-1.975h-0.919v3.965H33.509z"/>
	<path fill="#2C2F7C" d="M37.975,366.394h1.199v6.012h-1.199V366.394z"/>
	<path fill="#2C2F7C" d="M43.877,367.976c0-0.415-0.4-0.671-0.88-0.671c-0.6,0-0.959,0.264-0.959,0.663
		c0,0.416,0.399,0.616,0.695,0.712l1.104,0.353c0.8,0.256,1.367,0.719,1.367,1.646c0,0.735-0.527,1.839-2.19,1.839
		c-2.087,0-2.279-1.351-2.279-1.887l1.199-0.024c0,0.641,0.504,0.888,1.088,0.888c0.407,0,0.983-0.2,0.983-0.663
		c0-0.32-0.136-0.488-0.728-0.704l-1.312-0.472c-0.664-0.24-1.127-0.824-1.127-1.503c0-0.768,0.527-1.871,2.086-1.871
		c1.855,0,2.151,1.231,2.151,1.671L43.877,367.976z"/>
	<path fill="#2C2F7C" d="M47.878,367.464h-1.583v-1.07h4.365v1.07h-1.583v4.941h-1.199V367.464z"/>
	<path fill="#2C2F7C" d="M53.885,370.031h-0.703v2.374h-1.199v-6.012h2.246c1.264,0,1.983,0.791,1.983,1.791
		c0,0.631-0.344,1.455-1.119,1.687l1.398,2.534h-1.431L53.885,370.031z M53.98,369.056c0.824,0,1.032-0.439,1.032-0.824
		c0-0.432-0.208-0.814-1.072-0.814h-0.759v1.639H53.98z"/>
	<path fill="#2C2F7C" d="M57.782,366.394h1.199v6.012h-1.199V366.394z"/>
	<path fill="#2C2F7C" d="M60.774,366.394h2.135c1.279,0,1.942,0.655,1.942,1.631c0,0.664-0.376,1.039-0.808,1.239v0.016
		c0.536,0.128,1,0.616,1,1.367c0,1.104-0.848,1.759-2.087,1.759h-2.183V366.394z M62.701,368.864c0.567,0,0.951-0.256,0.951-0.736
		c0-0.496-0.368-0.711-0.848-0.711h-0.831v1.447H62.701z M62.765,371.382c0.76,0,1.031-0.336,1.031-0.76
		c0-0.383-0.239-0.783-0.936-0.783h-0.887v1.543H62.765z"/>
	<path fill="#2C2F7C" d="M70.261,366.394h1.199v3.518c0,1.879-1.191,2.606-2.503,2.606s-2.503-0.728-2.503-2.606v-3.518h1.199v3.525
		c0,1,0.448,1.527,1.304,1.527s1.304-0.527,1.304-1.527V366.394z"/>
	<path fill="#2C2F7C" d="M74.31,367.464h-1.583v-1.07h4.365v1.07h-1.583v4.941H74.31V367.464z"/>
	<path fill="#2C2F7C" d="M78.478,366.394h1.199v6.012h-1.199V366.394z"/>
	<path fill="#2C2F7C" d="M84.132,366.281c1.871,0,2.927,1.503,2.927,3.118s-1.056,3.118-2.927,3.118s-2.927-1.503-2.927-3.118
		S82.261,366.281,84.132,366.281z M84.132,367.353c-1.119,0-1.679,0.967-1.679,2.047s0.56,2.047,1.679,2.047
		s1.679-0.967,1.679-2.047S85.251,367.353,84.132,367.353z"/>
	<path fill="#2C2F7C" d="M89.693,368.304h-0.016v4.102h-1.151v-6.012h1.287l2.438,4.037h0.016v-4.037h1.151v6.012H92.18
		L89.693,368.304z"/>
</g>
<g>
	<path fill="#2C2F7C" d="M41.593,378.128c-0.176-0.775-0.703-1.176-1.392-1.176c-0.976,0-1.566,0.936-1.566,2.056
		c0,1.271,0.623,2.038,1.599,2.038c0.576,0,1.136-0.383,1.344-1.062l1.23,0.088c-0.415,1.343-1.391,2.047-2.622,2.047
		c-1.631,0-2.799-1.104-2.799-3.119c0-1.814,1.144-3.118,2.799-3.118c1.264,0,2.303,0.624,2.614,2.167L41.593,378.128z"/>
	<path fill="#2C2F7C" d="M44.268,375.993h1.199v4.894h2.311v1.119h-3.51V375.993z"/>
	<path fill="#2C2F7C" d="M52.409,380.751H50.21l-0.392,1.255h-1.295l2.19-6.013h1.264l2.158,6.013h-1.318L52.409,380.751z
		 M51.321,377.44h-0.016l-0.76,2.335h1.543L51.321,377.44z"/>
	<path fill="#2C2F7C" d="M58.193,377.576c0-0.416-0.4-0.672-0.88-0.672c-0.6,0-0.959,0.265-0.959,0.664
		c0,0.416,0.399,0.615,0.695,0.712l1.104,0.352c0.8,0.256,1.367,0.72,1.367,1.646c0,0.736-0.527,1.84-2.19,1.84
		c-2.087,0-2.279-1.352-2.279-1.888l1.199-0.023c0,0.64,0.504,0.888,1.088,0.888c0.407,0,0.983-0.2,0.983-0.664
		c0-0.319-0.136-0.487-0.728-0.703l-1.312-0.473c-0.664-0.239-1.127-0.823-1.127-1.503c0-0.768,0.527-1.871,2.086-1.871
		c1.855,0,2.151,1.231,2.151,1.672L58.193,377.576z"/>
	<path fill="#2C2F7C" d="M63.93,377.576c0-0.416-0.4-0.672-0.88-0.672c-0.6,0-0.959,0.265-0.959,0.664
		c0,0.416,0.399,0.615,0.695,0.712l1.104,0.352c0.8,0.256,1.367,0.72,1.367,1.646c0,0.736-0.527,1.84-2.19,1.84
		c-2.087,0-2.279-1.352-2.279-1.888l1.199-0.023c0,0.64,0.504,0.888,1.088,0.888c0.407,0,0.983-0.2,0.983-0.664
		c0-0.319-0.136-0.487-0.728-0.703l-1.312-0.473c-0.664-0.239-1.127-0.823-1.127-1.503c0-0.768,0.527-1.871,2.086-1.871
		c1.855,0,2.151,1.231,2.151,1.672L63.93,377.576z"/>
	<path fill="#2C2F7C" d="M66.818,375.993h1.199v6.013h-1.199V375.993z"/>
	<path fill="#2C2F7C" d="M74.071,381.687c-0.463,0.287-0.999,0.432-1.599,0.432c-1.871,0-2.927-1.504-2.927-3.119
		c0-1.614,1.056-3.118,2.927-3.118s2.927,1.504,2.927,3.118c0,0.712-0.225,1.439-0.616,1.976l0.728,0.623l-0.695,0.752
		L74.071,381.687z M73.312,379.711l0.552,0.472c0.191-0.319,0.287-0.76,0.287-1.184c0-1.079-0.56-2.047-1.679-2.047
		s-1.679,0.968-1.679,2.047c0,1.08,0.56,2.047,1.679,2.047c0.24,0,0.544-0.063,0.712-0.151l-0.528-0.464L73.312,379.711z"/>
	<path fill="#2C2F7C" d="M80.624,375.993h1.2v3.518c0,1.88-1.191,2.607-2.503,2.607s-2.503-0.728-2.503-2.607v-3.518h1.199v3.526
		c0,0.999,0.448,1.526,1.304,1.526s1.303-0.527,1.303-1.526V375.993z"/>
	<path fill="#2C2F7C" d="M83.491,375.993h3.838v1.071H84.69v1.367h2.566v1.071H84.69v1.432h2.639v1.071h-3.838V375.993z"/>
</g>
<g>
	<path fill="#2C2F7C" d="M204.163,371.193h1.199v3.519c0,1.879-1.191,2.606-2.503,2.606s-2.503-0.728-2.503-2.606v-3.519h1.199
		v3.526c0,0.999,0.448,1.527,1.304,1.527s1.304-0.528,1.304-1.527V371.193z"/>
	<path fill="#2C2F7C" d="M209.859,373.968h2.774c-0.048,2.23-1.279,3.351-2.935,3.351c-1.783,0-2.927-1.504-2.927-3.118
		c0-1.615,1.144-3.119,2.927-3.119c1.975,0,2.519,1.231,2.742,1.871l-1.255,0.08c-0.216-0.527-0.647-0.879-1.487-0.879
		c-0.943,0-1.679,0.768-1.679,2.047c0,1.079,0.68,2.047,1.759,2.047c0.968,0,1.415-0.688,1.519-1.256h-1.438V373.968z"/>
	<path fill="#2C2F7C" d="M214.093,371.193h1.959c0.943,0,2.086,0.432,2.086,1.911c0,1.383-1.031,1.902-1.99,1.902h-0.855v2.199
		h-1.199V371.193z M215.963,373.983c0.792,0,0.976-0.479,0.976-0.879c0-0.408-0.279-0.888-0.967-0.888h-0.68v1.767H215.963z"/>
	<path fill="#2C2F7C" d="M221.283,374.831h-0.703v2.375h-1.199v-6.013h2.246c1.264,0,1.983,0.792,1.983,1.791
		c0,0.632-0.344,1.455-1.119,1.688l1.398,2.534h-1.431L221.283,374.831z M221.379,373.855c0.824,0,1.032-0.439,1.032-0.823
		c0-0.432-0.208-0.815-1.072-0.815h-0.759v1.639H221.379z"/>
	<path fill="#2C2F7C" d="M227.779,371.081c1.871,0,2.927,1.504,2.927,3.119c0,1.614-1.056,3.118-2.927,3.118
		s-2.927-1.504-2.927-3.118C224.853,372.585,225.908,371.081,227.779,371.081z M227.779,372.153c-1.119,0-1.679,0.967-1.679,2.047
		c0,1.079,0.56,2.047,1.679,2.047s1.679-0.968,1.679-2.047C229.458,373.12,228.898,372.153,227.779,372.153z"/>
</g>
<g>
	<path fill="none" stroke="#2C2F7C" d="M61.959,316.63V63.723c0-1.559,1.275-2.834,2.835-2.834h68.801
		c1.56,0,2.835-1.275,2.835-2.834V27.78"/>
</g>
<path fill="#F9B447" d="M73.371,264.576c4.431,0,8.021-3.591,8.021-8.021c0-4.429-3.591-8.02-8.021-8.02
	c-4.43,0-8.021,3.591-8.021,8.02C65.351,260.985,68.941,264.576,73.371,264.576"/>
<circle fill="none" stroke="#2C2F7C" cx="73.371" cy="256.556" r="8.02"/>
<path fill="#2C2F7C" d="M76.59,258.872c-0.766,0.865-1.688,1.298-2.765,1.298c-0.991,0-1.831-0.344-2.521-1.033
	c-0.689-0.69-1.034-1.53-1.034-2.521c0-0.991,0.345-1.831,1.034-2.52s1.529-1.034,2.521-1.034c1.055,0,1.978,0.424,2.765,1.273
	l0.312-0.717c-0.845-0.845-1.87-1.267-3.076-1.267c-1.207,0-2.219,0.41-3.038,1.228c-0.817,0.819-1.227,1.831-1.227,3.037
	c0,1.207,0.409,2.219,1.227,3.038c0.819,0.818,1.831,1.227,3.038,1.227c1.098,0,2.021-0.321,2.765-0.963V258.872 M75.485,256.972
	H68.72l-0.311,0.711h6.766L75.485,256.972z M76.08,255.549h-7.36l-0.311,0.711h7.374L76.08,255.549z"/>
<polygon fill="none" stroke="#2C2F7C" stroke-width="0.25" points="76.08,255.549 68.72,255.549 68.409,256.26 75.783,256.26 "/>
<polygon fill="none" stroke="#2C2F7C" stroke-width="0.25" points="75.485,256.971 68.72,256.971 68.409,257.683 75.175,257.683 "/>
<path fill="none" stroke="#2C2F7C" stroke-width="0.25" d="M76.591,258.872c-0.768,0.866-1.689,1.299-2.767,1.299
	c-0.991,0-1.831-0.345-2.52-1.034c-0.689-0.689-1.034-1.529-1.034-2.52c0-0.991,0.345-1.831,1.034-2.521
	c0.688-0.689,1.528-1.034,2.52-1.034c1.056,0,1.979,0.425,2.767,1.274l0.31-0.718c-0.844-0.844-1.87-1.266-3.076-1.266
	s-2.219,0.409-3.037,1.227c-0.818,0.819-1.228,1.831-1.228,3.038c0,1.206,0.409,2.218,1.228,3.037
	c0.818,0.819,1.831,1.228,3.037,1.228c1.099,0,2.021-0.321,2.767-0.963V258.872z"/>
<path fill="#FAE683" d="M62.362,264.576c4.43,0,8.021-3.591,8.021-8.021c0-4.429-3.592-8.02-8.021-8.02s-8.021,3.591-8.021,8.02
	C54.342,260.985,57.933,264.576,62.362,264.576"/>
<circle fill="none" stroke="#2C2F7C" cx="62.362" cy="256.556" r="8.02"/>
<path fill="#2C2F7C" d="M65.581,258.872c-0.766,0.865-1.688,1.298-2.765,1.298c-0.991,0-1.831-0.344-2.521-1.033
	c-0.688-0.69-1.033-1.53-1.033-2.521c0-0.991,0.345-1.831,1.033-2.52c0.69-0.689,1.53-1.034,2.521-1.034
	c1.055,0,1.977,0.424,2.765,1.273l0.312-0.717c-0.846-0.845-1.87-1.267-3.076-1.267c-1.207,0-2.219,0.41-3.038,1.228
	c-0.818,0.819-1.227,1.831-1.227,3.037c0,1.207,0.408,2.219,1.227,3.038c0.819,0.818,1.831,1.227,3.038,1.227
	c1.098,0,2.02-0.321,2.765-0.963V258.872 M64.477,256.972H57.71l-0.31,0.711h6.766L64.477,256.972z M65.071,255.549H57.71
	l-0.31,0.711h7.374L65.071,255.549z"/>
<polygon fill="none" stroke="#2C2F7C" stroke-width="0.25" points="65.071,255.549 57.71,255.549 57.4,256.26 64.774,256.26 "/>
<polygon fill="none" stroke="#2C2F7C" stroke-width="0.25" points="64.477,256.971 57.71,256.971 57.4,257.683 64.166,257.683 "/>
<path fill="none" stroke="#2C2F7C" stroke-width="0.25" d="M65.581,258.872c-0.767,0.866-1.688,1.299-2.766,1.299
	c-0.991,0-1.831-0.345-2.521-1.034c-0.688-0.689-1.033-1.529-1.033-2.52c0-0.991,0.345-1.831,1.033-2.521
	c0.689-0.689,1.529-1.034,2.521-1.034c1.056,0,1.978,0.425,2.766,1.274l0.311-0.718c-0.845-0.844-1.87-1.266-3.076-1.266
	s-2.219,0.409-3.037,1.227c-0.819,0.819-1.228,1.831-1.228,3.038c0,1.206,0.408,2.218,1.228,3.037
	c0.818,0.819,1.831,1.228,3.037,1.228c1.099,0,2.021-0.321,2.766-0.963V258.872z"/>
<path fill="#F8F6C9" d="M51.354,264.576c4.43,0,8.021-3.591,8.021-8.021c0-4.429-3.591-8.02-8.021-8.02s-8.021,3.591-8.021,8.02
	C43.333,260.985,46.925,264.576,51.354,264.576"/>
<circle fill="none" stroke="#2C2F7C" cx="51.354" cy="256.556" r="8.02"/>
<path fill="#2C2F7C" d="M54.574,258.872c-0.767,0.865-1.688,1.298-2.766,1.298c-0.991,0-1.831-0.344-2.521-1.033
	c-0.688-0.69-1.034-1.53-1.034-2.521c0-0.991,0.346-1.831,1.034-2.52c0.69-0.689,1.53-1.034,2.521-1.034
	c1.055,0,1.977,0.424,2.766,1.273l0.311-0.717c-0.846-0.845-1.87-1.267-3.076-1.267c-1.207,0-2.22,0.41-3.038,1.228
	c-0.818,0.819-1.228,1.831-1.228,3.037c0,1.207,0.409,2.219,1.228,3.038c0.818,0.818,1.831,1.227,3.038,1.227
	c1.098,0,2.02-0.321,2.766-0.963V258.872 M53.469,256.972h-6.767l-0.31,0.711h6.766L53.469,256.972z M54.063,255.549h-7.361
	l-0.31,0.711h7.374L54.063,255.549z"/>
<polygon fill="none" stroke="#2C2F7C" stroke-width="0.25" points="54.063,255.549 46.702,255.549 46.393,256.26 53.767,256.26 "/>
<polygon fill="none" stroke="#2C2F7C" stroke-width="0.25" points="53.469,256.971 46.702,256.971 46.393,257.683 53.158,257.683 
	"/>
<path fill="none" stroke="#2C2F7C" stroke-width="0.25" d="M54.573,258.872c-0.767,0.866-1.688,1.299-2.766,1.299
	c-0.991,0-1.831-0.345-2.521-1.034c-0.688-0.689-1.034-1.529-1.034-2.52c0-0.991,0.346-1.831,1.034-2.521
	c0.689-0.689,1.529-1.034,2.521-1.034c1.056,0,1.978,0.425,2.766,1.274l0.311-0.718c-0.845-0.844-1.87-1.266-3.076-1.266
	s-2.22,0.409-3.037,1.227c-0.819,0.819-1.229,1.831-1.229,3.038c0,1.206,0.409,2.218,1.229,3.037
	c0.817,0.819,1.831,1.228,3.037,1.228c1.099,0,2.021-0.321,2.766-0.963V258.872z"/>
<g>
	<path fill="#2C2F7C" d="M235.851,83.338h-0.016c-0.384,0.503-0.928,0.647-1.407,0.647c-0.647,0-1.439-0.32-1.439-1.255
		c0-0.439,0.144-1.167,1.751-1.263l1.063-0.064v-0.192c0-0.488-0.304-0.728-0.808-0.728c-0.472,0-0.752,0.24-0.775,0.608h-1.104
		c0.04-0.632,0.487-1.439,1.927-1.439c1.016,0,1.863,0.384,1.863,1.327v2.383c0,0.216,0.023,0.36,0.056,0.512h-1.111V83.338z
		 M235.803,82.083l-0.96,0.088c-0.527,0.048-0.703,0.208-0.703,0.504c0,0.368,0.336,0.479,0.72,0.479c0.359,0,0.943-0.2,0.943-0.695
		V82.083z"/>
	<path fill="#2C2F7C" d="M241.115,83.338h-0.017c-0.344,0.496-0.751,0.647-1.215,0.647c-0.992,0-1.439-0.64-1.439-1.431v-2.791
		h1.151v2.503c0,0.591,0.359,0.792,0.72,0.792c0.464,0,0.751-0.4,0.751-0.959v-2.335h1.151v4.11h-1.103V83.338z"/>
	<path fill="#2C2F7C" d="M246.17,81.339c-0.023-0.576-0.359-0.711-0.663-0.711c-0.712,0-0.8,0.751-0.8,1.279
		c0,0.543,0.192,1.151,0.792,1.151c0.439,0,0.663-0.272,0.728-0.672l1.127,0.04c-0.176,0.903-0.72,1.559-1.823,1.559
		c-1.343,0-2.022-0.863-2.022-2.126c0-1.319,0.751-2.207,1.999-2.207c1.223,0,1.807,0.768,1.862,1.639L246.17,81.339z"/>
	<path fill="#2C2F7C" d="M251.243,83.338h-0.017c-0.344,0.496-0.751,0.647-1.215,0.647c-0.992,0-1.439-0.64-1.439-1.431v-2.791
		h1.151v2.503c0,0.591,0.359,0.792,0.72,0.792c0.464,0,0.751-0.4,0.751-0.959v-2.335h1.151v4.11h-1.103V83.338z"/>
	<path fill="#2C2F7C" d="M256.474,81.371c0-0.592-0.359-0.792-0.719-0.792c-0.464,0-0.752,0.399-0.752,0.959v2.335h-1.151v-4.11
		h1.104v0.536h0.016c0.344-0.496,0.752-0.647,1.216-0.647c0.991,0,1.438,0.64,1.438,1.431v2.791h-1.151V81.371z"/>
	<path fill="#2C2F7C" d="M260.115,82.146c0.048,0.48,0.344,0.959,0.96,0.959c0.352,0,0.663-0.168,0.823-0.488l1.119,0.088
		c-0.28,0.84-1.031,1.279-1.999,1.279c-1.239,0-2.103-0.847-2.103-2.159c0-1.327,0.863-2.175,2.103-2.175s2.104,0.848,2.104,2.175
		v0.32H260.115z M261.97,81.411c-0.039-0.399-0.344-0.879-0.895-0.879c-0.601,0-0.896,0.416-0.96,0.879H261.97z"/>
</g>
<g>
	<path fill="#2C2F7C" d="M239.97,88.227c0-0.32-0.177-0.647-0.616-0.647s-0.655,0.408-0.655,0.735v2.559h-1.151v-2.535
		c0-0.432-0.145-0.759-0.624-0.759c-0.472,0-0.647,0.399-0.647,0.799v2.495h-1.151v-4.11h1.104v0.536h0.016
		c0.368-0.543,0.768-0.647,1.239-0.647c0.272,0,0.815,0.072,1.104,0.64c0.408-0.544,0.863-0.64,1.207-0.64
		c0.704,0,1.328,0.408,1.328,1.271v2.95h-1.151V88.227z"/>
	<path fill="#2C2F7C" d="M245.322,90.338h-0.016c-0.384,0.503-0.928,0.647-1.407,0.647c-0.647,0-1.439-0.32-1.439-1.255
		c0-0.439,0.144-1.167,1.751-1.263l1.063-0.064v-0.192c0-0.488-0.304-0.728-0.808-0.728c-0.472,0-0.752,0.24-0.775,0.608h-1.104
		c0.04-0.632,0.487-1.439,1.927-1.439c1.016,0,1.863,0.384,1.863,1.327v2.383c0,0.216,0.023,0.36,0.056,0.512h-1.111V90.338z
		 M245.274,89.083l-0.959,0.088c-0.528,0.048-0.704,0.208-0.704,0.504c0,0.368,0.336,0.479,0.72,0.479
		c0.359,0,0.943-0.2,0.943-0.695V89.083z"/>
	<path fill="#2C2F7C" d="M247.908,86.764h1.104v0.792h0.016c0.216-0.583,0.64-0.903,1.184-0.903h0.16v1.119h-0.256
		c-0.592,0-1.056,0.36-1.056,1.088v2.015h-1.151V86.764z"/>
	<path fill="#2C2F7C" d="M254.475,86.764h1.103v4.046c0,1.239-0.896,1.935-2.206,1.935c-1.184,0-1.848-0.536-1.999-1.399h1.184
		c0.096,0.312,0.295,0.52,0.847,0.52c0.4,0,1-0.167,1.032-0.991l0.031-0.704l-0.016-0.016c-0.264,0.568-0.743,0.76-1.327,0.76
		c-1.031,0-1.919-0.808-1.919-2.143c0-1.151,0.8-2.119,1.967-2.119c0.624,0,1.088,0.32,1.287,0.76h0.017V86.764z M253.402,87.627
		c-0.615,0-0.999,0.512-0.999,1.143c0,0.992,0.68,1.215,1.039,1.215c0.305,0,1.016-0.144,1.016-1.175
		C254.458,88.059,254.082,87.627,253.402,87.627z"/>
	<path fill="#2C2F7C" d="M258.139,89.146c0.048,0.48,0.344,0.959,0.96,0.959c0.352,0,0.663-0.168,0.823-0.488l1.119,0.088
		c-0.28,0.84-1.031,1.279-1.999,1.279c-1.239,0-2.103-0.847-2.103-2.159c0-1.327,0.863-2.175,2.103-2.175s2.104,0.848,2.104,2.175
		v0.32H258.139z M259.993,88.411c-0.039-0.399-0.344-0.879-0.895-0.879c-0.601,0-0.896,0.416-0.96,0.879H259.993z"/>
</g>
<path fill="#F8F6C9" d="M57.033,167.591c4.43,0,8.021-3.591,8.021-8.021c0-4.429-3.591-8.02-8.021-8.02s-8.021,3.591-8.021,8.02
	C49.013,164,52.604,167.591,57.033,167.591"/>
<circle fill="none" stroke="#2C2F7C" cx="57.033" cy="159.571" r="8.021"/>
<path fill="#2C2F7C" d="M60.252,161.886c-0.766,0.866-1.688,1.299-2.765,1.299c-0.991,0-1.831-0.345-2.521-1.034
	c-0.689-0.69-1.034-1.53-1.034-2.521c0-0.991,0.345-1.831,1.034-2.52s1.529-1.034,2.521-1.034c1.055,0,1.977,0.424,2.765,1.273
	l0.312-0.717c-0.845-0.844-1.87-1.267-3.076-1.267c-1.207,0-2.219,0.41-3.038,1.228c-0.818,0.819-1.227,1.831-1.227,3.037
	c0,1.207,0.408,2.219,1.227,3.038c0.819,0.818,1.831,1.228,3.038,1.228c1.098,0,2.02-0.321,2.765-0.963V161.886 M59.147,159.986
	h-6.767l-0.31,0.711h6.766L59.147,159.986z M59.742,158.564h-7.361l-0.31,0.711h7.374L59.742,158.564z"/>
<polygon fill="none" stroke="#2C2F7C" stroke-width="0.25" points="59.742,158.564 52.381,158.564 52.071,159.275 59.445,159.275 
	"/>
<polygon fill="none" stroke="#2C2F7C" stroke-width="0.25" points="59.147,159.986 52.381,159.986 52.071,160.697 58.837,160.697 
	"/>
<path fill="none" stroke="#2C2F7C" stroke-width="0.25" d="M60.252,161.886c-0.767,0.866-1.688,1.299-2.766,1.299
	c-0.991,0-1.831-0.345-2.521-1.034c-0.688-0.689-1.033-1.529-1.033-2.52c0-0.991,0.345-1.831,1.033-2.521
	c0.689-0.689,1.529-1.034,2.521-1.034c1.056,0,1.978,0.425,2.766,1.273l0.311-0.717c-0.844-0.844-1.87-1.266-3.076-1.266
	s-2.219,0.409-3.037,1.227c-0.819,0.819-1.228,1.831-1.228,3.038c0,1.206,0.408,2.218,1.228,3.037
	c0.818,0.818,1.831,1.228,3.037,1.228c1.099,0,2.021-0.321,2.766-0.963V161.886z"/>
<g>
	<path fill="none" stroke="#2C2F7C" d="M215.836,291.295V63.723c0-1.559-1.275-2.834-2.835-2.834h-68.8
		c-1.56,0-2.835-1.275-2.835-2.834V27.78"/>
</g>
<path fill="#F8F6C9" d="M138.898,52.683c4.43,0,8.021-3.591,8.021-8.021c0-4.429-3.591-8.02-8.021-8.02
	c-4.431,0-8.021,3.591-8.021,8.02C130.877,49.092,134.468,52.683,138.898,52.683"/>
<circle fill="none" stroke="#2C2F7C" cx="138.898" cy="44.663" r="8.021"/>
<path fill="#2C2F7C" d="M142.117,46.978c-0.766,0.865-1.688,1.298-2.765,1.298c-0.991,0-1.831-0.344-2.521-1.034
	c-0.688-0.689-1.034-1.529-1.034-2.52c0-0.991,0.346-1.831,1.034-2.52c0.69-0.689,1.53-1.034,2.521-1.034
	c1.055,0,1.977,0.424,2.765,1.273l0.312-0.717c-0.846-0.845-1.87-1.267-3.076-1.267c-1.207,0-2.219,0.41-3.038,1.228
	c-0.818,0.819-1.228,1.831-1.228,3.037c0,1.207,0.409,2.219,1.228,3.037c0.819,0.819,1.831,1.228,3.038,1.228
	c1.098,0,2.02-0.321,2.765-0.963V46.978 M141.014,45.078h-6.767l-0.311,0.711h6.766L141.014,45.078z M141.607,43.656h-7.36
	l-0.311,0.711h7.374L141.607,43.656z"/>
<polygon fill="none" stroke="#2C2F7C" stroke-width="0.25" points="141.607,43.656 134.247,43.656 133.937,44.367 141.311,44.367 
	"/>
<polygon fill="none" stroke="#2C2F7C" stroke-width="0.25" points="141.014,45.078 134.247,45.078 133.938,45.789 140.703,45.789 
	"/>
<path fill="none" stroke="#2C2F7C" stroke-width="0.25" d="M142.118,46.978c-0.767,0.866-1.688,1.299-2.766,1.299
	c-0.991,0-1.831-0.345-2.521-1.034c-0.688-0.689-1.034-1.529-1.034-2.52c0-0.991,0.346-1.831,1.034-2.521
	c0.689-0.689,1.529-1.034,2.521-1.034c1.056,0,1.978,0.425,2.766,1.274l0.311-0.718c-0.845-0.844-1.87-1.266-3.076-1.266
	s-2.219,0.409-3.037,1.227c-0.819,0.819-1.229,1.831-1.229,3.038c0,1.206,0.409,2.218,1.229,3.037
	c0.818,0.818,1.831,1.228,3.037,1.228c1.099,0,2.021-0.321,2.766-0.963V46.978z"/>
<path fill="#FFFFFF" d="M0.5,194.47c0,9.115,0,18.231,0,27.346c41.24,0,82.484,0,123.725,0V194.47
	C82.984,194.47,41.74,194.47,0.5,194.47"/>
<g>
	<path fill="#2C2F7C" d="M30.839,205.36h2.263c1.822,0,2.894,1.071,2.894,3.006c0,1.919-1.327,3.006-2.862,3.006h-2.294V205.36z
		 M33.054,210.35c1.23,0,1.694-1.055,1.694-1.991c0-1.008-0.432-1.975-1.791-1.975h-0.919v3.966H33.054z"/>
	<path fill="#2C2F7C" d="M37.519,205.36h1.199v6.013h-1.199V205.36z"/>
	<path fill="#2C2F7C" d="M43.421,206.943c0-0.416-0.4-0.671-0.88-0.671c-0.6,0-0.959,0.264-0.959,0.664
		c0,0.416,0.399,0.616,0.695,0.711l1.104,0.352c0.8,0.256,1.367,0.719,1.367,1.647c0,0.735-0.527,1.839-2.19,1.839
		c-2.087,0-2.279-1.351-2.279-1.887l1.199-0.024c0,0.64,0.504,0.887,1.088,0.887c0.407,0,0.983-0.2,0.983-0.664
		c0-0.32-0.136-0.488-0.728-0.704l-1.312-0.472c-0.664-0.24-1.127-0.824-1.127-1.503c0-0.768,0.527-1.871,2.087-1.871
		c1.854,0,2.15,1.231,2.15,1.671L43.421,206.943z"/>
	<path fill="#2C2F7C" d="M47.422,206.432h-1.583v-1.071h4.365v1.071h-1.583v4.941h-1.199V206.432z"/>
	<path fill="#2C2F7C" d="M53.429,208.999h-0.703v2.375h-1.199v-6.013h2.246c1.264,0,1.983,0.792,1.983,1.791
		c0,0.632-0.344,1.455-1.12,1.687l1.399,2.535h-1.431L53.429,208.999z M53.524,208.023c0.824,0,1.032-0.44,1.032-0.824
		c0-0.432-0.208-0.815-1.071-0.815h-0.76v1.639H53.524z"/>
	<path fill="#2C2F7C" d="M57.326,205.36h1.199v6.013h-1.199V205.36z"/>
	<path fill="#2C2F7C" d="M60.318,205.36h2.135c1.279,0,1.942,0.656,1.942,1.631c0,0.664-0.376,1.039-0.808,1.239v0.016
		c0.536,0.128,1,0.616,1,1.367c0,1.104-0.848,1.759-2.087,1.759h-2.183V205.36z M62.245,207.831c0.567,0,0.951-0.256,0.951-0.736
		c0-0.496-0.368-0.711-0.848-0.711h-0.831v1.447H62.245z M62.309,210.35c0.76,0,1.031-0.336,1.031-0.76
		c0-0.384-0.239-0.783-0.935-0.783h-0.888v1.543H62.309z"/>
	<path fill="#2C2F7C" d="M69.804,205.36h1.2v3.518c0,1.879-1.191,2.606-2.503,2.606s-2.503-0.728-2.503-2.606v-3.518h1.199v3.526
		c0,1,0.448,1.527,1.304,1.527s1.303-0.528,1.303-1.527V205.36z"/>
	<path fill="#2C2F7C" d="M73.854,206.432h-1.583v-1.071h4.365v1.071h-1.583v4.941h-1.199V206.432z"/>
	<path fill="#2C2F7C" d="M77.958,205.36h3.838v1.071h-2.639v1.367h2.566v1.072h-2.566v1.431h2.639v1.071h-3.838V205.36z"/>
	<path fill="#2C2F7C" d="M86.995,205.36h1.2v3.518c0,1.879-1.191,2.606-2.503,2.606s-2.503-0.728-2.503-2.606v-3.518h1.199v3.526
		c0,1,0.448,1.527,1.304,1.527s1.303-0.528,1.303-1.527V205.36z"/>
	<path fill="#2C2F7C" d="M91.772,208.999h-0.703v2.375H89.87v-6.013h2.246c1.264,0,1.983,0.792,1.983,1.791
		c0,0.632-0.344,1.455-1.12,1.687l1.399,2.535h-1.431L91.772,208.999z M91.868,208.023c0.824,0,1.032-0.44,1.032-0.824
		c0-0.432-0.208-0.815-1.071-0.815h-0.76v1.639H91.868z"/>
</g>
<path fill="none" stroke="#2C2F7C" d="M0.5,194.47c0,9.115,0,18.231,0,27.346c41.24,0,82.484,0,123.725,0V194.47
	C82.984,194.47,41.74,194.47,0.5,194.47z"/>
<path fill="#FFFFFF" d="M0.5,291.295c0,9.115,0,18.231,0,27.346c41.24,0,82.484,0,123.725,0v-27.346
	C82.984,291.295,41.74,291.295,0.5,291.295"/>
<g>
	<path fill="#2C2F7C" d="M18.061,304.32c-0.176-0.775-0.704-1.175-1.392-1.175c-0.975,0-1.566,0.936-1.566,2.055
		c0,1.271,0.623,2.039,1.599,2.039c0.576,0,1.136-0.384,1.344-1.063l1.231,0.088c-0.416,1.343-1.392,2.047-2.623,2.047
		c-1.631,0-2.799-1.104-2.799-3.118c0-1.815,1.144-3.118,2.799-3.118c1.264,0,2.303,0.624,2.614,2.167L18.061,304.32z"/>
	<path fill="#2C2F7C" d="M23.397,302.074c1.871,0,2.927,1.503,2.927,3.118s-1.056,3.118-2.927,3.118s-2.927-1.503-2.927-3.118
		S21.526,302.074,23.397,302.074z M23.397,303.145c-1.119,0-1.679,0.967-1.679,2.047s0.56,2.047,1.679,2.047
		s1.679-0.967,1.679-2.047S24.517,303.145,23.397,303.145z"/>
	<path fill="#2C2F7C" d="M28.958,304.097h-0.016v4.102h-1.151v-6.013h1.287l2.438,4.038h0.016v-4.038h1.151v6.013h-1.239
		L28.958,304.097z"/>
	<path fill="#2C2F7C" d="M37.325,303.769c0-0.416-0.4-0.671-0.88-0.671c-0.6,0-0.959,0.264-0.959,0.664
		c0,0.416,0.399,0.616,0.695,0.711l1.104,0.352c0.8,0.256,1.367,0.719,1.367,1.647c0,0.735-0.527,1.839-2.19,1.839
		c-2.087,0-2.279-1.351-2.279-1.887l1.199-0.024c0,0.64,0.504,0.887,1.088,0.887c0.407,0,0.983-0.2,0.983-0.664
		c0-0.32-0.136-0.488-0.728-0.704l-1.312-0.472c-0.664-0.24-1.127-0.824-1.127-1.503c0-0.768,0.527-1.871,2.087-1.871
		c1.854,0,2.15,1.231,2.15,1.671L37.325,303.769z"/>
	<path fill="#2C2F7C" d="M42.813,302.074c1.871,0,2.927,1.503,2.927,3.118s-1.056,3.118-2.927,3.118s-2.927-1.503-2.927-3.118
		S40.942,302.074,42.813,302.074z M42.813,303.145c-1.119,0-1.679,0.967-1.679,2.047s0.56,2.047,1.679,2.047
		s1.679-0.967,1.679-2.047S43.933,303.145,42.813,303.145z"/>
	<path fill="#2C2F7C" d="M52.275,304.185H52.26l-1.607,4.014h-0.671l-1.607-3.934h-0.016v3.934h-1.151v-6.013h1.367l1.743,4.094
		l1.742-4.094h1.367v6.013h-1.151V304.185z"/>
	<path fill="#2C2F7C" d="M60.228,304.185h-0.016l-1.607,4.014h-0.671l-1.607-3.934h-0.016v3.934h-1.151v-6.013h1.367l1.742,4.094
		l1.743-4.094h1.367v6.013h-1.151V304.185z"/>
	<path fill="#2C2F7C" d="M66.412,306.943h-2.199l-0.392,1.255h-1.295l2.19-6.013h1.264l2.159,6.013H66.82L66.412,306.943z
		 M65.325,303.633h-0.017l-0.76,2.334h1.544L65.325,303.633z"/>
	<path fill="#2C2F7C" d="M69.877,303.257h-1.583v-1.071h4.365v1.071h-1.583v4.941h-1.199V303.257z"/>
	<path fill="#2C2F7C" d="M73.982,302.186h3.838v1.071h-2.639v1.367h2.566v1.072h-2.566v1.431h2.639v1.071h-3.838V302.186z"/>
	<path fill="#2C2F7C" d="M83.013,302.186h1.199v3.518c0,1.879-1.191,2.606-2.503,2.606s-2.503-0.728-2.503-2.606v-3.518h1.199v3.526
		c0,1,0.448,1.527,1.304,1.527s1.304-0.528,1.304-1.527V302.186z"/>
	<path fill="#2C2F7C" d="M87.789,305.824h-0.703v2.375h-1.199v-6.013h2.246c1.264,0,1.983,0.792,1.983,1.791
		c0,0.632-0.344,1.455-1.119,1.687l1.398,2.535h-1.431L87.789,305.824z M87.885,304.848c0.824,0,1.032-0.44,1.032-0.824
		c0-0.432-0.208-0.815-1.072-0.815h-0.759v1.639H87.885z"/>
	<path fill="#2C2F7C" d="M94.238,302.186h1.958c0.944,0,2.087,0.432,2.087,1.911c0,1.383-1.031,1.903-1.99,1.903h-0.855v2.199
		h-1.199V302.186z M96.108,304.976c0.792,0,0.976-0.48,0.976-0.879c0-0.408-0.279-0.888-0.967-0.888h-0.68v1.767H96.108z"/>
	<path fill="#2C2F7C" d="M101.429,305.824h-0.703v2.375h-1.199v-6.013h2.246c1.264,0,1.983,0.792,1.983,1.791
		c0,0.632-0.344,1.455-1.12,1.687l1.399,2.535h-1.431L101.429,305.824z M101.524,304.848c0.824,0,1.032-0.44,1.032-0.824
		c0-0.432-0.208-0.815-1.071-0.815h-0.76v1.639H101.524z"/>
	<path fill="#2C2F7C" d="M107.924,302.074c1.871,0,2.927,1.503,2.927,3.118s-1.056,3.118-2.927,3.118s-2.927-1.503-2.927-3.118
		S106.053,302.074,107.924,302.074z M107.924,303.145c-1.119,0-1.679,0.967-1.679,2.047s0.56,2.047,1.679,2.047
		s1.679-0.967,1.679-2.047S109.043,303.145,107.924,303.145z"/>
</g>
<path fill="none" stroke="#2C2F7C" d="M0.5,291.295c0,9.115,0,18.231,0,27.346c41.24,0,82.484,0,123.725,0v-27.346
	C82.984,291.295,41.74,291.295,0.5,291.295z"/>
<path fill="#FFFFFF" d="M0.5,97.325c0,9.115,0,18.231,0,27.346c41.24,0,82.484,0,123.725,0V97.325
	C82.984,97.325,41.74,97.325,0.5,97.325"/>
<g>
	<path fill="#2C2F7C" d="M24.893,111.726h-2.494v2.502h-1.199v-6.013h1.199v2.438h2.494v-2.438h1.199v6.013h-1.199V111.726z"/>
	<path fill="#2C2F7C" d="M30.478,108.104c1.871,0,2.927,1.503,2.927,3.118s-1.056,3.118-2.927,3.118s-2.927-1.503-2.927-3.118
		S28.606,108.104,30.478,108.104z M30.478,109.175c-1.119,0-1.679,0.967-1.679,2.047s0.56,2.047,1.679,2.047
		s1.679-0.967,1.679-2.047S31.597,109.175,30.478,109.175z"/>
	<path fill="#2C2F7C" d="M34.871,108.216h1.199v4.893h2.311v1.12h-3.51V108.216z"/>
	<path fill="#2C2F7C" d="M39.719,108.216h2.263c1.822,0,2.895,1.071,2.895,3.006c0,1.919-1.328,3.006-2.863,3.006h-2.294V108.216z
		 M41.933,113.205c1.231,0,1.695-1.055,1.695-1.991c0-1.008-0.432-1.975-1.791-1.975h-0.919v3.966H41.933z"/>
	<path fill="#2C2F7C" d="M46.398,108.216h1.199v6.013h-1.199V108.216z"/>
	<path fill="#2C2F7C" d="M50.558,110.127h-0.016v4.102h-1.151v-6.013h1.287l2.438,4.038h0.016v-4.038h1.151v6.013h-1.239
		L50.558,110.127z"/>
	<path fill="#2C2F7C" d="M58.829,110.99h2.774c-0.048,2.231-1.279,3.35-2.935,3.35c-1.783,0-2.927-1.503-2.927-3.118
		s1.144-3.118,2.927-3.118c1.975,0,2.519,1.231,2.742,1.871l-1.255,0.08c-0.216-0.528-0.647-0.879-1.487-0.879
		c-0.943,0-1.679,0.768-1.679,2.047c0,1.08,0.68,2.047,1.759,2.047c0.968,0,1.415-0.688,1.52-1.255h-1.439V110.99z"/>
	<path fill="#2C2F7C" d="M65.687,108.216h2.263c1.822,0,2.894,1.071,2.894,3.006c0,1.919-1.327,3.006-2.862,3.006h-2.294V108.216z
		 M67.901,113.205c1.23,0,1.694-1.055,1.694-1.991c0-1.008-0.432-1.975-1.791-1.975h-0.919v3.966H67.901z"/>
	<path fill="#2C2F7C" d="M73.59,108.44l-0.92,2.11l-0.743-0.224l0.591-2.223L73.59,108.44z"/>
	<path fill="#2C2F7C" d="M78.229,112.973h-2.199l-0.392,1.255h-1.295l2.19-6.013h1.264l2.159,6.013h-1.319L78.229,112.973z
		 M77.142,109.663h-0.017l-0.76,2.334h1.544L77.142,109.663z"/>
	<path fill="#2C2F7C" d="M85.044,110.351c-0.176-0.775-0.703-1.175-1.392-1.175c-0.976,0-1.566,0.936-1.566,2.055
		c0,1.271,0.623,2.039,1.599,2.039c0.576,0,1.136-0.384,1.344-1.063l1.23,0.088c-0.415,1.343-1.391,2.047-2.622,2.047
		c-1.631,0-2.799-1.104-2.799-3.118c0-1.815,1.144-3.118,2.799-3.118c1.264,0,2.303,0.624,2.614,2.167L85.044,110.351z"/>
	<path fill="#2C2F7C" d="M91.412,111.726h-2.494v2.502h-1.199v-6.013h1.199v2.438h2.494v-2.438h1.199v6.013h-1.199V111.726z"/>
	<path fill="#2C2F7C" d="M97.645,112.973h-2.199l-0.392,1.255h-1.295l2.19-6.013h1.264l2.159,6.013h-1.319L97.645,112.973z
		 M96.558,109.663h-0.017l-0.76,2.334h1.544L96.558,109.663z"/>
	<path fill="#2C2F7C" d="M101.109,109.287h-1.583v-1.071h4.365v1.071h-1.583v4.941h-1.199V109.287z"/>
</g>
<path fill="none" stroke="#2C2F7C" d="M0.5,97.325c0,9.115,0,18.231,0,27.346c41.24,0,82.484,0,123.725,0V97.325
	C82.984,97.325,41.74,97.325,0.5,97.325z"/>
<path fill="#FAE683" d="M93.561,105.392c4.43,0,8.021-3.591,8.021-8.02c0-4.43-3.591-8.021-8.021-8.021
	c-4.431,0-8.021,3.591-8.021,8.021C85.539,101.801,89.13,105.392,93.561,105.392"/>
<circle fill="none" stroke="#2C2F7C" cx="93.561" cy="97.372" r="8.021"/>
<path fill="#2C2F7C" d="M96.78,99.687c-0.767,0.865-1.689,1.298-2.766,1.298c-0.991,0-1.831-0.344-2.521-1.034
	c-0.688-0.689-1.034-1.529-1.034-2.52c0-0.991,0.346-1.831,1.034-2.52c0.69-0.689,1.53-1.034,2.521-1.034
	c1.055,0,1.977,0.424,2.766,1.273l0.311-0.717c-0.846-0.845-1.87-1.267-3.076-1.267c-1.207,0-2.22,0.41-3.038,1.228
	c-0.818,0.819-1.228,1.831-1.228,3.037c0,1.207,0.409,2.219,1.228,3.038c0.818,0.818,1.831,1.227,3.038,1.227
	c1.098,0,2.02-0.321,2.766-0.963V99.687 M95.675,97.787h-6.766l-0.311,0.711h6.766L95.675,97.787z M96.27,96.365h-7.36l-0.311,0.711
	h7.374L96.27,96.365z"/>
<polygon fill="none" stroke="#2C2F7C" stroke-width="0.25" points="96.27,96.365 88.909,96.365 88.599,97.076 95.973,97.076 "/>
<polygon fill="none" stroke="#2C2F7C" stroke-width="0.25" points="95.675,97.787 88.908,97.787 88.599,98.498 95.364,98.498 "/>
<path fill="none" stroke="#2C2F7C" stroke-width="0.25" d="M96.779,99.687c-0.767,0.866-1.688,1.299-2.766,1.299
	c-0.991,0-1.831-0.345-2.521-1.034c-0.688-0.689-1.034-1.529-1.034-2.52c0-0.991,0.346-1.831,1.034-2.521
	c0.689-0.689,1.529-1.034,2.521-1.034c1.056,0,1.978,0.425,2.766,1.274l0.31-0.718c-0.844-0.844-1.869-1.266-3.075-1.266
	s-2.22,0.409-3.037,1.227c-0.819,0.819-1.229,1.831-1.229,3.038c0,1.206,0.409,2.219,1.229,3.037
	c0.817,0.819,1.831,1.228,3.037,1.228c1.099,0,2.021-0.321,2.766-0.963V99.687z"/>
<g>
	<path fill="#2C2F7C" d="M73.853,79.854h0.831v1.607h1.607v0.832h-1.607v1.607h-0.831v-1.607h-1.607v-0.832h1.607V79.854z"/>
	<path fill="#2C2F7C" d="M85.083,81.253c0-0.32-0.177-0.648-0.616-0.648s-0.655,0.408-0.655,0.736v2.559H82.66v-2.535
		c0-0.432-0.145-0.76-0.624-0.76c-0.472,0-0.647,0.4-0.647,0.8v2.495h-1.151v-4.11h1.104v0.536h0.016
		c0.368-0.543,0.768-0.647,1.239-0.647c0.272,0,0.815,0.072,1.104,0.64c0.408-0.543,0.863-0.64,1.207-0.64
		c0.704,0,1.328,0.408,1.328,1.271v2.95h-1.151V81.253z"/>
	<path fill="#2C2F7C" d="M90.435,83.364h-0.016c-0.384,0.504-0.928,0.647-1.407,0.647c-0.647,0-1.439-0.32-1.439-1.255
		c0-0.439,0.144-1.167,1.751-1.263l1.063-0.064v-0.192c0-0.488-0.304-0.728-0.808-0.728c-0.472,0-0.752,0.24-0.775,0.607H87.7
		c0.04-0.631,0.487-1.439,1.927-1.439c1.016,0,1.863,0.384,1.863,1.327v2.383c0,0.216,0.023,0.36,0.056,0.512h-1.111V83.364z
		 M90.387,82.108l-0.96,0.088c-0.527,0.048-0.703,0.208-0.703,0.504c0,0.368,0.336,0.479,0.72,0.479c0.359,0,0.943-0.2,0.943-0.695
		V82.108z"/>
	<path fill="#2C2F7C" d="M93.021,79.79h1.104v0.792h0.016c0.216-0.583,0.64-0.903,1.184-0.903h0.16v1.12h-0.256
		c-0.592,0-1.056,0.359-1.056,1.087v2.015h-1.151V79.79z"/>
	<path fill="#2C2F7C" d="M99.587,79.79h1.103v4.046c0,1.239-0.896,1.935-2.206,1.935c-1.184,0-1.848-0.536-1.999-1.399h1.184
		c0.096,0.312,0.296,0.52,0.847,0.52c0.4,0,1-0.168,1.032-0.992l0.031-0.704l-0.016-0.016c-0.264,0.568-0.743,0.76-1.327,0.76
		c-1.031,0-1.919-0.808-1.919-2.143c0-1.151,0.8-2.119,1.967-2.119c0.624,0,1.087,0.32,1.287,0.76h0.017V79.79z M98.515,80.653
		c-0.615,0-0.999,0.512-0.999,1.143c0,0.992,0.68,1.215,1.039,1.215c0.304,0,1.016-0.144,1.016-1.175
		C99.57,81.085,99.194,80.653,98.515,80.653z"/>
	<path fill="#2C2F7C" d="M103.252,82.172c0.048,0.479,0.344,0.959,0.96,0.959c0.352,0,0.663-0.168,0.823-0.488l1.119,0.088
		c-0.28,0.84-1.031,1.279-1.999,1.279c-1.239,0-2.103-0.848-2.103-2.159c0-1.327,0.863-2.175,2.103-2.175s2.104,0.848,2.104,2.175
		v0.32H103.252z M105.106,81.437c-0.039-0.4-0.344-0.88-0.895-0.88c-0.601,0-0.896,0.416-0.96,0.88H105.106z"/>
</g>
<g>
	<path fill="#2C2F7C" d="M111.618,80.082c-0.319,0.224-0.768,0.512-1.327,0.751v-1.079c0.376-0.208,1.12-0.608,1.592-1.167h0.888
		v6.013h-1.152V80.082z"/>
</g>
<rect x="77.615" y="101.359" fill="#FFFFFF" width="31.89" height="6.011"/>
<line fill="none" stroke="#2C2F7C" x1="83.372" y1="101.359" x2="103.748" y2="101.359"/>
<path fill="#F9B447" d="M93.561,202.538c4.43,0,8.021-3.591,8.021-8.021c0-4.429-3.591-8.02-8.021-8.02
	c-4.431,0-8.021,3.591-8.021,8.02C85.539,198.946,89.13,202.538,93.561,202.538"/>
<circle fill="none" stroke="#2C2F7C" cx="93.561" cy="194.517" r="8.021"/>
<path fill="#2C2F7C" d="M96.78,196.833c-0.767,0.866-1.689,1.299-2.766,1.299c-0.991,0-1.831-0.345-2.521-1.034
	c-0.688-0.69-1.034-1.53-1.034-2.521c0-0.991,0.346-1.831,1.034-2.521c0.69-0.688,1.53-1.034,2.521-1.034
	c1.055,0,1.977,0.424,2.766,1.273l0.311-0.717c-0.846-0.844-1.87-1.267-3.076-1.267c-1.207,0-2.22,0.41-3.038,1.228
	c-0.818,0.819-1.228,1.831-1.228,3.037c0,1.207,0.409,2.219,1.228,3.038c0.818,0.818,1.831,1.227,3.038,1.227
	c1.098,0,2.02-0.321,2.766-0.962V196.833 M95.675,194.933h-6.766l-0.311,0.711h6.766L95.675,194.933z M96.27,193.51h-7.36
	l-0.311,0.711h7.374L96.27,193.51z"/>
<polygon fill="none" stroke="#2C2F7C" stroke-width="0.25" points="96.27,193.51 88.909,193.51 88.599,194.221 95.973,194.221 "/>
<polygon fill="none" stroke="#2C2F7C" stroke-width="0.25" points="95.675,194.932 88.908,194.932 88.599,195.644 95.364,195.644 
	"/>
<path fill="none" stroke="#2C2F7C" stroke-width="0.25" d="M96.779,196.833c-0.767,0.866-1.688,1.299-2.766,1.299
	c-0.991,0-1.831-0.345-2.521-1.034c-0.688-0.688-1.034-1.529-1.034-2.52c0-0.991,0.346-1.831,1.034-2.521
	c0.689-0.689,1.529-1.034,2.521-1.034c1.056,0,1.978,0.425,2.766,1.274l0.31-0.718c-0.844-0.844-1.869-1.266-3.075-1.266
	s-2.22,0.409-3.037,1.227c-0.819,0.819-1.229,1.831-1.229,3.038c0,1.206,0.409,2.218,1.229,3.037
	c0.817,0.818,1.831,1.228,3.037,1.228c1.099,0,2.021-0.321,2.766-0.963V196.833z"/>
<g>
	<path fill="#2C2F7C" d="M73.853,176.998h0.831v1.607h1.607v0.832h-1.607v1.607h-0.831v-1.607h-1.607v-0.832h1.607V176.998z"/>
	<path fill="#2C2F7C" d="M85.083,178.397c0-0.32-0.177-0.648-0.616-0.648s-0.655,0.408-0.655,0.736v2.559H82.66v-2.535
		c0-0.432-0.145-0.76-0.624-0.76c-0.472,0-0.647,0.4-0.647,0.8v2.495h-1.151v-4.11h1.104v0.536h0.016
		c0.368-0.543,0.768-0.647,1.239-0.647c0.272,0,0.815,0.072,1.104,0.64c0.408-0.543,0.863-0.64,1.207-0.64
		c0.704,0,1.328,0.408,1.328,1.271v2.95h-1.151V178.397z"/>
	<path fill="#2C2F7C" d="M90.435,180.508h-0.016c-0.384,0.504-0.928,0.647-1.407,0.647c-0.647,0-1.439-0.32-1.439-1.255
		c0-0.439,0.144-1.167,1.751-1.263l1.063-0.064v-0.192c0-0.488-0.304-0.728-0.808-0.728c-0.472,0-0.752,0.24-0.775,0.607H87.7
		c0.04-0.631,0.487-1.439,1.927-1.439c1.016,0,1.863,0.384,1.863,1.327v2.383c0,0.216,0.023,0.36,0.056,0.512h-1.111V180.508z
		 M90.387,179.253l-0.96,0.088c-0.527,0.048-0.703,0.208-0.703,0.504c0,0.368,0.336,0.479,0.72,0.479c0.359,0,0.943-0.2,0.943-0.695
		V179.253z"/>
	<path fill="#2C2F7C" d="M93.021,176.934h1.104v0.792h0.016c0.216-0.583,0.64-0.903,1.184-0.903h0.16v1.12h-0.256
		c-0.592,0-1.056,0.359-1.056,1.087v2.015h-1.151V176.934z"/>
	<path fill="#2C2F7C" d="M99.587,176.934h1.103v4.046c0,1.239-0.896,1.935-2.206,1.935c-1.184,0-1.848-0.536-1.999-1.399h1.184
		c0.096,0.312,0.296,0.52,0.847,0.52c0.4,0,1-0.168,1.032-0.992l0.031-0.704l-0.016-0.016c-0.264,0.568-0.743,0.76-1.327,0.76
		c-1.031,0-1.919-0.808-1.919-2.143c0-1.151,0.8-2.119,1.967-2.119c0.624,0,1.087,0.32,1.287,0.76h0.017V176.934z M98.515,177.798
		c-0.615,0-0.999,0.512-0.999,1.143c0,0.992,0.68,1.215,1.039,1.215c0.304,0,1.016-0.144,1.016-1.175
		C99.57,178.229,99.194,177.798,98.515,177.798z"/>
	<path fill="#2C2F7C" d="M103.252,179.317c0.048,0.479,0.344,0.959,0.96,0.959c0.352,0,0.663-0.168,0.823-0.488l1.119,0.088
		c-0.28,0.84-1.031,1.279-1.999,1.279c-1.239,0-2.103-0.848-2.103-2.159c0-1.327,0.863-2.175,2.103-2.175s2.104,0.848,2.104,2.175
		v0.32H103.252z M105.106,178.582c-0.039-0.4-0.344-0.88-0.895-0.88c-0.601,0-0.896,0.416-0.96,0.88H105.106z"/>
</g>
<g>
	<path fill="#2C2F7C" d="M109.884,180.84l2.167-2.319c0.415-0.456,0.52-0.744,0.52-1.047c0-0.352-0.24-0.72-0.712-0.72
		c-0.487,0-0.783,0.336-0.783,1.071h-1.104v-0.128c0-1.447,1.071-1.967,1.887-1.967c1.128,0,1.911,0.735,1.911,1.711
		c0,0.752-0.32,1.255-1.319,2.247l-1.023,1.031h2.406v1.023h-3.949V180.84z"/>
</g>
<rect x="77.615" y="198.503" fill="#FFFFFF" width="31.89" height="6.011"/>
<line fill="none" stroke="#2C2F7C" x1="83.372" y1="198.503" x2="103.748" y2="198.503"/>
<rect x="153.071" y="96.826" fill="#2C2F7C" width="124.724" height="28.346"/>
<g>
	<path fill="#FFFFFF" d="M204.163,108.216h1.2v3.518c0,1.879-1.191,2.606-2.503,2.606s-2.503-0.728-2.503-2.606v-3.518h1.199v3.526
		c0,1,0.448,1.527,1.304,1.527s1.303-0.528,1.303-1.527V108.216z"/>
	<path fill="#FFFFFF" d="M209.86,110.99h2.774c-0.048,2.231-1.279,3.35-2.935,3.35c-1.783,0-2.927-1.503-2.927-3.118
		s1.144-3.118,2.927-3.118c1.975,0,2.519,1.231,2.742,1.871l-1.255,0.08c-0.216-0.528-0.647-0.879-1.487-0.879
		c-0.943,0-1.679,0.768-1.679,2.047c0,1.08,0.68,2.047,1.759,2.047c0.968,0,1.415-0.688,1.52-1.255h-1.439V110.99z"/>
	<path fill="#FFFFFF" d="M214.094,108.216h1.958c0.944,0,2.087,0.432,2.087,1.911c0,1.383-1.031,1.903-1.99,1.903h-0.855v2.199
		h-1.199V108.216z M215.964,111.006c0.792,0,0.976-0.48,0.976-0.879c0-0.408-0.279-0.888-0.967-0.888h-0.68v1.767H215.964z"/>
	<path fill="#FFFFFF" d="M221.284,111.854h-0.703v2.375h-1.199v-6.013h2.246c1.264,0,1.983,0.792,1.983,1.791
		c0,0.632-0.344,1.455-1.12,1.687l1.399,2.535h-1.431L221.284,111.854z M221.38,110.878c0.824,0,1.032-0.44,1.032-0.824
		c0-0.432-0.208-0.815-1.071-0.815h-0.76v1.639H221.38z"/>
	<path fill="#FFFFFF" d="M227.78,108.104c1.871,0,2.927,1.503,2.927,3.118s-1.056,3.118-2.927,3.118s-2.927-1.503-2.927-3.118
		S225.909,108.104,227.78,108.104z M227.78,109.175c-1.119,0-1.679,0.967-1.679,2.047s0.56,2.047,1.679,2.047
		s1.679-0.967,1.679-2.047S228.899,109.175,227.78,109.175z"/>
</g>
<path fill="#FFFFFF" d="M153.571,291.295c0,9.115,0,18.231,0,27.346c41.24,0,82.485,0,123.724,0v-27.346
	C236.057,291.295,194.812,291.295,153.571,291.295"/>
<g>
	<path fill="#2C2F7C" d="M171.132,304.32c-0.176-0.775-0.703-1.175-1.392-1.175c-0.976,0-1.566,0.936-1.566,2.055
		c0,1.271,0.623,2.039,1.599,2.039c0.576,0,1.136-0.384,1.344-1.063l1.23,0.088c-0.415,1.343-1.391,2.047-2.622,2.047
		c-1.631,0-2.799-1.104-2.799-3.118c0-1.815,1.144-3.118,2.799-3.118c1.264,0,2.303,0.624,2.614,2.167L171.132,304.32z"/>
	<path fill="#2C2F7C" d="M176.477,302.074c1.871,0,2.927,1.503,2.927,3.118s-1.056,3.118-2.927,3.118s-2.927-1.503-2.927-3.118
		S174.605,302.074,176.477,302.074z M176.477,303.145c-1.119,0-1.679,0.967-1.679,2.047s0.56,2.047,1.679,2.047
		s1.679-0.967,1.679-2.047S177.596,303.145,176.477,303.145z"/>
	<path fill="#2C2F7C" d="M182.037,304.097h-0.016v4.102h-1.151v-6.013h1.287l2.438,4.038h0.016v-4.038h1.151v6.013h-1.239
		L182.037,304.097z"/>
	<path fill="#2C2F7C" d="M190.404,303.769c0-0.416-0.4-0.671-0.88-0.671c-0.6,0-0.959,0.264-0.959,0.664
		c0,0.416,0.399,0.616,0.695,0.711l1.104,0.352c0.8,0.256,1.367,0.719,1.367,1.647c0,0.735-0.527,1.839-2.19,1.839
		c-2.087,0-2.279-1.351-2.279-1.887l1.199-0.024c0,0.64,0.504,0.887,1.088,0.887c0.407,0,0.983-0.2,0.983-0.664
		c0-0.32-0.136-0.488-0.728-0.704l-1.312-0.472c-0.664-0.24-1.127-0.824-1.127-1.503c0-0.768,0.527-1.871,2.086-1.871
		c1.855,0,2.151,1.231,2.151,1.671L190.404,303.769z"/>
	<path fill="#2C2F7C" d="M195.893,302.074c1.871,0,2.927,1.503,2.927,3.118s-1.056,3.118-2.927,3.118s-2.927-1.503-2.927-3.118
		S194.021,302.074,195.893,302.074z M195.893,303.145c-1.119,0-1.679,0.967-1.679,2.047s0.56,2.047,1.679,2.047
		s1.679-0.967,1.679-2.047S197.012,303.145,195.893,303.145z"/>
	<path fill="#2C2F7C" d="M205.354,304.185h-0.016l-1.607,4.014h-0.671l-1.607-3.934h-0.016v3.934h-1.151v-6.013h1.367l1.742,4.094
		l1.743-4.094h1.367v6.013h-1.151V304.185z"/>
	<path fill="#2C2F7C" d="M213.307,304.185h-0.016l-1.607,4.014h-0.671l-1.607-3.934h-0.016v3.934h-1.151v-6.013h1.367l1.743,4.094
		l1.742-4.094h1.367v6.013h-1.151V304.185z"/>
	<path fill="#2C2F7C" d="M219.491,306.943h-2.199l-0.392,1.255h-1.295l2.19-6.013h1.264l2.158,6.013h-1.318L219.491,306.943z
		 M218.403,303.633h-0.016l-0.76,2.334h1.543L218.403,303.633z"/>
	<path fill="#2C2F7C" d="M222.957,303.257h-1.583v-1.071h4.365v1.071h-1.583v4.941h-1.199V303.257z"/>
	<path fill="#2C2F7C" d="M227.062,302.186h3.838v1.071h-2.639v1.367h2.566v1.072h-2.566v1.431h2.639v1.071h-3.838V302.186z"/>
	<path fill="#2C2F7C" d="M236.099,302.186h1.2v3.518c0,1.879-1.191,2.606-2.503,2.606s-2.503-0.728-2.503-2.606v-3.518h1.199v3.526
		c0,1,0.448,1.527,1.304,1.527s1.303-0.528,1.303-1.527V302.186z"/>
	<path fill="#2C2F7C" d="M240.868,305.824h-0.703v2.375h-1.199v-6.013h2.246c1.264,0,1.983,0.792,1.983,1.791
		c0,0.632-0.344,1.455-1.12,1.687l1.399,2.535h-1.431L240.868,305.824z M240.964,304.848c0.824,0,1.032-0.44,1.032-0.824
		c0-0.432-0.208-0.815-1.071-0.815h-0.76v1.639H240.964z"/>
	<path fill="#2C2F7C" d="M247.325,302.186h1.959c0.943,0,2.086,0.432,2.086,1.911c0,1.383-1.031,1.903-1.99,1.903h-0.855v2.199
		h-1.199V302.186z M249.195,304.976c0.792,0,0.976-0.48,0.976-0.879c0-0.408-0.279-0.888-0.967-0.888h-0.68v1.767H249.195z"/>
	<path fill="#2C2F7C" d="M254.508,305.824h-0.703v2.375h-1.199v-6.013h2.246c1.264,0,1.983,0.792,1.983,1.791
		c0,0.632-0.344,1.455-1.119,1.687l1.398,2.535h-1.431L254.508,305.824z M254.604,304.848c0.824,0,1.032-0.44,1.032-0.824
		c0-0.432-0.208-0.815-1.072-0.815h-0.759v1.639H254.604z"/>
	<path fill="#2C2F7C" d="M261.004,302.074c1.871,0,2.927,1.503,2.927,3.118s-1.056,3.118-2.927,3.118s-2.927-1.503-2.927-3.118
		S259.133,302.074,261.004,302.074z M261.004,303.145c-1.119,0-1.679,0.967-1.679,2.047s0.56,2.047,1.679,2.047
		s1.679-0.967,1.679-2.047S262.123,303.145,261.004,303.145z"/>
</g>
<path fill="none" stroke="#2C2F7C" d="M153.571,291.295c0,9.115,0,18.231,0,27.346c41.24,0,82.485,0,123.724,0v-27.346
	C236.057,291.295,194.812,291.295,153.571,291.295z"/>
<path fill="#F8F6C9" d="M215.434,264.576c4.43,0,8.021-3.591,8.021-8.021c0-4.429-3.591-8.02-8.021-8.02
	c-4.431,0-8.021,3.591-8.021,8.02C207.412,260.985,211.003,264.576,215.434,264.576"/>
<circle fill="none" stroke="#2C2F7C" cx="215.434" cy="256.556" r="8.02"/>
<path fill="#2C2F7C" d="M218.652,258.872c-0.766,0.865-1.688,1.298-2.765,1.298c-0.991,0-1.831-0.344-2.521-1.033
	c-0.688-0.69-1.034-1.53-1.034-2.521c0-0.991,0.346-1.831,1.034-2.52c0.69-0.689,1.53-1.034,2.521-1.034
	c1.055,0,1.977,0.424,2.765,1.273l0.311-0.717c-0.845-0.845-1.869-1.267-3.075-1.267c-1.207,0-2.22,0.41-3.038,1.228
	c-0.818,0.819-1.228,1.831-1.228,3.037c0,1.207,0.409,2.219,1.228,3.038c0.818,0.818,1.831,1.227,3.038,1.227
	c1.098,0,2.02-0.321,2.765-0.963V258.872 M217.548,256.972h-6.766l-0.311,0.711h6.766L217.548,256.972z M218.143,255.549h-7.36
	l-0.311,0.711h7.374L218.143,255.549z"/>
<polygon fill="none" stroke="#2C2F7C" stroke-width="0.25" points="218.143,255.549 210.782,255.549 210.472,256.26 217.846,256.26 
	"/>
<polygon fill="none" stroke="#2C2F7C" stroke-width="0.25" points="217.548,256.971 210.782,256.971 210.473,257.683 
	217.238,257.683 "/>
<path fill="none" stroke="#2C2F7C" stroke-width="0.25" d="M218.653,258.872c-0.767,0.866-1.689,1.299-2.766,1.299
	c-0.991,0-1.831-0.345-2.521-1.034c-0.688-0.689-1.034-1.529-1.034-2.52c0-0.991,0.346-1.831,1.034-2.521
	c0.689-0.689,1.529-1.034,2.521-1.034c1.056,0,1.978,0.425,2.766,1.274l0.31-0.718c-0.844-0.844-1.87-1.266-3.075-1.266
	c-1.206,0-2.22,0.409-3.037,1.227c-0.819,0.819-1.229,1.831-1.229,3.038c0,1.206,0.409,2.219,1.229,3.037
	c0.817,0.819,1.831,1.228,3.037,1.228c1.099,0,2.021-0.321,2.766-0.963V258.872z"/>
</svg>
