<?xml version="1.0" encoding="utf-8"?>
<!-- Generator: Adobe Illustrator 16.0.4, SVG Export Plug-In . SVG Version: 6.00 Build 0)  -->
<!DOCTYPE svg PUBLIC "-//W3C//DTD SVG 1.1//EN" "http://www.w3.org/Graphics/SVG/1.1/DTD/svg11.dtd">
<svg version="1.1" id="Calque_1" xmlns="http://www.w3.org/2000/svg" xmlns:xlink="http://www.w3.org/1999/xlink" x="0px" y="0px"
	 width="277.795px" height="383.243px" viewBox="0 11.802 277.795 383.243" enable-background="new 0 11.802 277.795 383.243"
	 xml:space="preserve">
<rect x="25.511" y="333.15" fill="#EFF0F9" width="226.771" height="50.031"/>
<rect y="12.5" fill="#EFF0F9" width="124.724" height="354.858"/>
<rect x="153.069" y="12.5" fill="#EFF0F9" width="124.726" height="354.858"/>
<path fill="#FFFFFF" d="M277.295,394.02c0-9.115,0-18.23,0-27.346c-92.271,0-184.524,0-276.795,0v27.346
	C92.771,394.02,185.024,394.02,277.295,394.02"/>
<g>
	<path fill="#2C2F7C" d="M110.784,376.885h3.525v1.071h-2.326v1.367h2.271v1.071h-2.271v2.502h-1.199V376.885L110.784,376.885z"/>
	<path fill="#2C2F7C" d="M118.791,381.642h-2.199l-0.393,1.255h-1.295l2.189-6.013h1.265l2.159,6.013h-1.319L118.791,381.642z
		 M117.703,378.332h-0.017l-0.761,2.334h1.545L117.703,378.332z"/>
	<path fill="#2C2F7C" d="M121.664,376.885h2.135c1.279,0,1.942,0.656,1.942,1.631c0,0.664-0.376,1.039-0.808,1.239v0.016
		c0.535,0.129,1,0.616,1,1.367c0,1.104-0.848,1.759-2.088,1.759h-2.182V376.885L121.664,376.885z M123.59,379.355
		c0.567,0,0.951-0.256,0.951-0.735c0-0.496-0.367-0.711-0.848-0.711h-0.831v1.446H123.59z M123.654,381.874
		c0.76,0,1.031-0.336,1.031-0.76c0-0.385-0.239-0.783-0.936-0.783h-0.888v1.543H123.654z"/>
	<path fill="#2C2F7C" d="M129.303,380.523H128.6v2.375H127.4v-6.013h2.246c1.264,0,1.982,0.792,1.982,1.791
		c0,0.632-0.344,1.455-1.119,1.688l1.398,2.534h-1.431L129.303,380.523z M129.398,379.547c0.824,0,1.031-0.44,1.031-0.824
		c0-0.432-0.207-0.814-1.07-0.814h-0.76v1.639H129.398z"/>
	<path fill="#2C2F7C" d="M133.199,376.885h1.199v6.013h-1.199V376.885z"/>
	<path fill="#2C2F7C" d="M140.453,382.577c-0.464,0.288-1,0.432-1.6,0.432c-1.871,0-2.928-1.503-2.928-3.118
		c0-1.614,1.057-3.118,2.928-3.118s2.927,1.504,2.927,3.118c0,0.711-0.226,1.439-0.616,1.976l0.729,0.624l-0.695,0.751
		L140.453,382.577z M139.693,380.602l0.552,0.473c0.191-0.32,0.287-0.761,0.287-1.185c0-1.08-0.56-2.047-1.679-2.047
		s-1.68,0.967-1.68,2.047s0.561,2.047,1.68,2.047c0.24,0,0.544-0.063,0.712-0.151l-0.528-0.464L139.693,380.602z"/>
	<path fill="#2C2F7C" d="M146.998,376.885h1.199v3.519c0,1.879-1.191,2.605-2.503,2.605s-2.503-0.728-2.503-2.605v-3.519h1.199
		v3.526c0,1,0.447,1.526,1.304,1.526s1.304-0.527,1.304-1.526V376.885z"/>
	<path fill="#2C2F7C" d="M153.174,381.642h-2.199l-0.393,1.255h-1.295l2.19-6.013h1.264l2.158,6.013h-1.317L153.174,381.642z
		 M152.086,378.332h-0.016l-0.76,2.334h1.543L152.086,378.332z"/>
	<path fill="#2C2F7C" d="M157.215,378.796h-0.017v4.102h-1.151v-6.013h1.287l2.438,4.038h0.017v-4.038h1.15v6.013H159.7
		L157.215,378.796z"/>
	<path fill="#2C2F7C" d="M163.84,377.956h-1.584v-1.071h4.365v1.071h-1.582v4.94h-1.199V377.956L163.84,377.956z"/>
</g>
<path fill="none" stroke="#2C2F7C" d="M277.295,394.02c0-9.115,0-18.23,0-27.346c-92.271,0-184.524,0-276.795,0v27.346
	C92.771,394.02,185.024,394.02,277.295,394.02z"/>
<line fill="none" stroke="#2C2F7C" x1="124.724" y1="12.5" x2="0" y2="12.5"/>
<line fill="none" stroke="#2C2F7C" x1="277.795" y1="12.5" x2="153.069" y2="12.5"/>
<g>
	<path fill="#2C2F7C" d="M204.551,29.313h1.199v3.52c0,1.879-1.191,2.605-2.504,2.605c-1.312,0-2.502-0.728-2.502-2.605v-3.52h1.199
		v3.526c0,0.999,0.447,1.527,1.303,1.527c0.856,0,1.305-0.528,1.305-1.527V29.313z"/>
	<path fill="#2C2F7C" d="M210.246,32.088h2.774c-0.048,2.23-1.278,3.351-2.935,3.351c-1.783,0-2.928-1.504-2.928-3.117
		c0-1.615,1.145-3.119,2.928-3.119c1.975,0,2.519,1.23,2.742,1.871l-1.256,0.08c-0.215-0.527-0.646-0.88-1.486-0.88
		c-0.943,0-1.68,0.769-1.68,2.048c0,1.078,0.681,2.047,1.76,2.047c0.968,0,1.414-0.688,1.519-1.256h-1.438V32.088z"/>
	<path fill="#2C2F7C" d="M214.48,29.313h1.959c0.943,0,2.086,0.433,2.086,1.911c0,1.383-1.031,1.902-1.99,1.902h-0.854v2.199h-1.198
		v-6.013H214.48z M216.351,32.103c0.792,0,0.976-0.479,0.976-0.879c0-0.408-0.278-0.888-0.967-0.888h-0.68v1.767H216.351z"/>
	<path fill="#2C2F7C" d="M221.671,32.951h-0.703v2.375h-1.199v-6.014h2.246c1.265,0,1.983,0.792,1.983,1.791
		c0,0.633-0.344,1.455-1.119,1.688l1.398,2.534h-1.432L221.671,32.951z M221.767,31.975c0.824,0,1.032-0.438,1.032-0.822
		c0-0.433-0.208-0.815-1.072-0.815h-0.759v1.639L221.767,31.975L221.767,31.975z"/>
	<path fill="#2C2F7C" d="M228.166,29.201c1.871,0,2.928,1.504,2.928,3.119c0,1.613-1.057,3.117-2.928,3.117
		c-1.87,0-2.926-1.504-2.926-3.117C225.24,30.705,226.296,29.201,228.166,29.201z M228.166,30.273c-1.118,0-1.678,0.968-1.678,2.048
		c0,1.078,0.56,2.047,1.678,2.047c1.119,0,1.68-0.969,1.68-2.047C229.846,31.24,229.285,30.273,228.166,30.273z"/>
</g>
<g>
	<g>
		<g>
			<path fill="none" stroke="#2C2F7C" d="M215.836,271.823v58.975c0,1.559-1.274,2.834-2.835,2.834H144.2
				c-1.561,0-2.836,1.274-2.836,2.834v27.315"/>
			<g>
				<polygon fill="#2C2F7C" points="139.883,362.656 141.364,363.286 142.846,362.656 141.364,366.168 				"/>
			</g>
		</g>
	</g>
	<g>
		<g>
			<line fill="none" stroke="#2C2F7C" x1="215.836" y1="77.89" x2="215.836" y2="266.96"/>
			<g>
				<polygon fill="#2C2F7C" points="214.354,265.836 215.836,266.466 217.317,265.836 215.836,269.348 				"/>
			</g>
		</g>
	</g>
</g>
<g>
	<g>
		<g>
			<path fill="none" stroke="#2C2F7C" d="M61.959,273.686v57.111c0,1.559,1.274,2.834,2.835,2.834h68.8
				c1.56,0,2.835,1.274,2.835,2.834v27.315"/>
			<g>
				<polygon fill="#2C2F7C" points="134.947,362.656 136.429,363.286 137.91,362.656 136.429,366.168 				"/>
			</g>
		</g>
	</g>
	<g>
		<g>
			<line fill="none" stroke="#2C2F7C" x1="61.959" y1="176.002" x2="61.959" y2="266.964"/>
			<g>
				<polygon fill="#2C2F7C" points="60.478,265.84 61.959,266.47 63.44,265.84 61.959,269.352 				"/>
			</g>
		</g>
	</g>
	<g>
		<g>
			<line fill="none" stroke="#2C2F7C" x1="61.959" y1="103.225" x2="61.959" y2="169.753"/>
			<g>
				<polygon fill="#2C2F7C" points="60.478,168.63 61.959,169.259 63.44,168.63 61.959,172.141 				"/>
			</g>
		</g>
	</g>
</g>
<path fill="#F8F6C9" d="M138.897,357.878c4.43,0,8.021-3.591,8.021-8.021s-3.591-8.021-8.021-8.021
	c-4.431,0-8.021,3.591-8.021,8.021S134.467,357.878,138.897,357.878"/>
<circle fill="none" stroke="#2C2F7C" cx="138.897" cy="349.858" r="8.021"/>
<path fill="#2C2F7C" d="M142.116,352.173c-0.767,0.865-1.688,1.298-2.765,1.298c-0.992,0-1.832-0.344-2.521-1.033
	c-0.688-0.689-1.034-1.529-1.034-2.521s0.347-1.831,1.034-2.52c0.689-0.689,1.529-1.034,2.521-1.034
	c1.055,0,1.977,0.424,2.765,1.272l0.312-0.717c-0.846-0.845-1.869-1.267-3.076-1.267c-1.208,0-2.219,0.41-3.038,1.228
	c-0.818,0.819-1.229,1.831-1.229,3.037c0,1.207,0.409,2.219,1.229,3.037c0.818,0.819,1.83,1.228,3.038,1.228
	c1.098,0,2.02-0.32,2.765-0.963L142.116,352.173 M141.014,350.274h-6.768l-0.311,0.711h6.766L141.014,350.274z M141.605,348.852
	h-7.359l-0.311,0.711h7.373L141.605,348.852z"/>
<polygon fill="none" stroke="#2C2F7C" stroke-width="0.25" points="141.605,348.852 134.246,348.852 133.936,349.563 
	141.311,349.563 "/>
<polygon fill="none" stroke="#2C2F7C" stroke-width="0.25" points="141.014,350.274 134.246,350.274 133.938,350.985 
	140.702,350.985 "/>
<path fill="none" stroke="#2C2F7C" stroke-width="0.25" d="M142.117,352.173c-0.768,0.866-1.688,1.299-2.766,1.299
	c-0.992,0-1.832-0.345-2.521-1.033c-0.688-0.689-1.034-1.529-1.034-2.521s0.347-1.831,1.034-2.521
	c0.689-0.689,1.529-1.034,2.521-1.034c1.056,0,1.978,0.425,2.766,1.273l0.311-0.718c-0.845-0.844-1.869-1.266-3.076-1.266
	c-1.206,0-2.219,0.409-3.038,1.227c-0.818,0.819-1.229,1.831-1.229,3.038c0,1.206,0.409,2.218,1.229,3.037
	c0.818,0.818,1.832,1.228,3.038,1.228c1.099,0,2.021-0.32,2.766-0.963L142.117,352.173L142.117,352.173z"/>
<g>
	<g>
		<g>
			<path fill="#2C2F7C" d="M233.129,255.928h-0.016c-0.384,0.503-0.927,0.646-1.405,0.646c-0.648,0-1.439-0.319-1.439-1.255
				c0-0.438,0.143-1.167,1.75-1.263l1.063-0.064v-0.191c0-0.488-0.304-0.729-0.808-0.729c-0.473,0-0.752,0.24-0.775,0.608h-1.104
				c0.039-0.632,0.486-1.439,1.926-1.439c1.017,0,1.863,0.385,1.863,1.327v2.383c0,0.217,0.022,0.36,0.056,0.513h-1.111V255.928
				L233.129,255.928z M233.082,254.673l-0.96,0.088c-0.527,0.048-0.703,0.208-0.703,0.504c0,0.368,0.336,0.479,0.721,0.479
				c0.357,0,0.942-0.199,0.942-0.694V254.673L233.082,254.673z"/>
			<path fill="#2C2F7C" d="M238.394,255.928h-0.017c-0.345,0.496-0.752,0.646-1.216,0.646c-0.991,0-1.438-0.64-1.438-1.431v-2.791
				h1.15v2.503c0,0.591,0.359,0.792,0.721,0.792c0.463,0,0.75-0.399,0.75-0.959v-2.335h1.151v4.11h-1.103L238.394,255.928
				L238.394,255.928z"/>
			<path fill="#2C2F7C" d="M243.448,253.929c-0.023-0.576-0.359-0.711-0.663-0.711c-0.712,0-0.8,0.751-0.8,1.279
				c0,0.543,0.192,1.15,0.792,1.15c0.438,0,0.663-0.271,0.728-0.672l1.127,0.04c-0.176,0.903-0.721,1.559-1.823,1.559
				c-1.342,0-2.021-0.862-2.021-2.126c0-1.318,0.752-2.207,1.999-2.207c1.223,0,1.807,0.769,1.861,1.64L243.448,253.929z"/>
			<path fill="#2C2F7C" d="M248.521,255.928h-0.018c-0.344,0.496-0.75,0.646-1.215,0.646c-0.992,0-1.439-0.64-1.439-1.431v-2.791
				h1.152v2.503c0,0.591,0.359,0.792,0.719,0.792c0.465,0,0.752-0.399,0.752-0.959v-2.335h1.15v4.11h-1.102V255.928L248.521,255.928
				z"/>
			<path fill="#2C2F7C" d="M253.751,253.961c0-0.593-0.359-0.792-0.719-0.792c-0.463,0-0.752,0.398-0.752,0.959v2.335h-1.15v-4.11
				h1.104v0.536h0.016c0.344-0.496,0.752-0.647,1.217-0.647c0.99,0,1.438,0.641,1.438,1.432v2.791h-1.15v-2.503H253.751z"/>
			<path fill="#2C2F7C" d="M257.392,254.736c0.049,0.48,0.345,0.959,0.961,0.959c0.352,0,0.662-0.168,0.822-0.487l1.119,0.088
				c-0.279,0.84-1.031,1.278-1.998,1.278c-1.24,0-2.104-0.847-2.104-2.158c0-1.327,0.863-2.176,2.104-2.176
				c1.239,0,2.104,0.849,2.104,2.176v0.319L257.392,254.736L257.392,254.736z M259.247,254.001
				c-0.039-0.399-0.344-0.879-0.895-0.879c-0.602,0-0.896,0.416-0.96,0.879H259.247z"/>
		</g>
		<g>
			<path fill="#2C2F7C" d="M237.248,260.817c0-0.319-0.177-0.646-0.615-0.646c-0.439,0-0.655,0.407-0.655,0.734v2.56h-1.151v-2.535
				c0-0.432-0.145-0.759-0.624-0.759c-0.472,0-0.647,0.398-0.647,0.799v2.495h-1.149v-4.11h1.103v0.536h0.017
				c0.368-0.543,0.769-0.647,1.239-0.647c0.271,0,0.814,0.072,1.104,0.641c0.408-0.544,0.863-0.641,1.207-0.641
				c0.704,0,1.328,0.408,1.328,1.271v2.95h-1.15v-2.647H237.248z"/>
			<path fill="#2C2F7C" d="M242.6,262.928h-0.016c-0.384,0.503-0.928,0.646-1.406,0.646c-0.647,0-1.439-0.319-1.439-1.255
				c0-0.438,0.145-1.167,1.751-1.263l1.063-0.064v-0.191c0-0.488-0.305-0.729-0.809-0.729c-0.472,0-0.752,0.24-0.775,0.608h-1.104
				c0.04-0.632,0.487-1.439,1.928-1.439c1.016,0,1.862,0.385,1.862,1.327v2.383c0,0.217,0.021,0.36,0.055,0.513h-1.109
				L242.6,262.928L242.6,262.928z M242.553,261.673l-0.959,0.088c-0.528,0.048-0.705,0.208-0.705,0.504
				c0,0.368,0.336,0.479,0.721,0.479c0.359,0,0.943-0.199,0.943-0.694V261.673z"/>
			<path fill="#2C2F7C" d="M245.187,259.354h1.104v0.792h0.016c0.217-0.583,0.641-0.903,1.184-0.903h0.16v1.119h-0.256
				c-0.592,0-1.057,0.36-1.057,1.088v2.016h-1.15V259.354L245.187,259.354z"/>
			<path fill="#2C2F7C" d="M251.753,259.354h1.104v4.046c0,1.239-0.896,1.936-2.207,1.936c-1.184,0-1.848-0.536-1.998-1.399h1.184
				c0.096,0.312,0.295,0.521,0.846,0.521c0.4,0,1-0.167,1.033-0.991l0.031-0.704l-0.016-0.017c-0.266,0.568-0.744,0.761-1.328,0.761
				c-1.031,0-1.918-0.809-1.918-2.144c0-1.15,0.799-2.119,1.967-2.119c0.623,0,1.088,0.32,1.287,0.761h0.016V259.354
				L251.753,259.354z M250.679,260.217c-0.613,0-0.998,0.512-0.998,1.143c0,0.992,0.68,1.215,1.039,1.215
				c0.305,0,1.016-0.144,1.016-1.175C251.735,260.649,251.36,260.217,250.679,260.217z"/>
			<path fill="#2C2F7C" d="M255.417,261.736c0.047,0.48,0.344,0.959,0.959,0.959c0.353,0,0.664-0.168,0.823-0.487l1.119,0.088
				c-0.28,0.84-1.031,1.278-1.999,1.278c-1.238,0-2.104-0.847-2.104-2.158c0-1.327,0.863-2.176,2.104-2.176s2.104,0.849,2.104,2.176
				v0.319L255.417,261.736L255.417,261.736z M257.271,261.001c-0.039-0.399-0.344-0.879-0.895-0.879
				c-0.602,0-0.896,0.416-0.961,0.879H257.271z"/>
		</g>
	</g>
	<rect x="153.069" y="269.348" fill="#2C2F7C" width="124.725" height="28.346"/>
	<g>
		<path fill="#FFFFFF" d="M203.964,280.292h1.199v3.518c0,1.879-1.189,2.606-2.502,2.606s-2.504-0.729-2.504-2.606v-3.518h1.199
			v3.526c0,1,0.449,1.526,1.305,1.526s1.303-0.527,1.303-1.526V280.292L203.964,280.292z"/>
		<path fill="#FFFFFF" d="M209.661,283.067h2.773c-0.047,2.23-1.279,3.35-2.934,3.35c-1.783,0-2.928-1.503-2.928-3.118
			s1.145-3.118,2.928-3.118c1.975,0,2.518,1.231,2.74,1.871l-1.254,0.08c-0.217-0.528-0.646-0.879-1.486-0.879
			c-0.943,0-1.68,0.768-1.68,2.047c0,1.08,0.68,2.047,1.758,2.047c0.969,0,1.416-0.688,1.521-1.255h-1.439V283.067L209.661,283.067z
			"/>
		<path fill="#FFFFFF" d="M213.896,280.292h1.957c0.945,0,2.088,0.432,2.088,1.911c0,1.383-1.031,1.903-1.99,1.903h-0.855v2.198
			h-1.199V280.292L213.896,280.292z M215.765,283.082c0.793,0,0.977-0.48,0.977-0.879c0-0.408-0.279-0.888-0.967-0.888h-0.68v1.767
			H215.765z"/>
		<path fill="#FFFFFF" d="M221.085,283.93h-0.703v2.375h-1.199v-6.013h2.246c1.264,0,1.982,0.792,1.982,1.791
			c0,0.632-0.344,1.455-1.119,1.687l1.398,2.535h-1.43L221.085,283.93z M221.181,282.954c0.824,0,1.033-0.44,1.033-0.824
			c0-0.432-0.209-0.814-1.072-0.814h-0.76v1.639H221.181z"/>
		<path fill="#FFFFFF" d="M227.581,280.18c1.871,0,2.928,1.503,2.928,3.118s-1.057,3.118-2.928,3.118s-2.928-1.503-2.928-3.118
			S225.71,280.18,227.581,280.18z M227.581,281.251c-1.119,0-1.68,0.967-1.68,2.047s0.561,2.047,1.68,2.047s1.68-0.967,1.68-2.047
			S228.7,281.251,227.581,281.251z"/>
	</g>
	<path fill="#FFFFFF" d="M277.294,103.225c0-9.115,0-18.23,0-27.346c-41.24,0-82.484,0-123.725,0v27.346
		C194.808,103.225,236.054,103.225,277.294,103.225"/>
	<g>
		<path fill="#2C2F7C" d="M171.14,88.455c-0.176-0.774-0.703-1.175-1.391-1.175c-0.977,0-1.566,0.937-1.566,2.056
			c0,1.271,0.623,2.039,1.598,2.039c0.576,0,1.137-0.385,1.346-1.063l1.229,0.088c-0.414,1.343-1.391,2.047-2.621,2.047
			c-1.631,0-2.799-1.104-2.799-3.118c0-1.814,1.143-3.117,2.799-3.117c1.264,0,2.303,0.624,2.613,2.167L171.14,88.455z"/>
		<path fill="#2C2F7C" d="M176.485,86.21c1.871,0,2.926,1.503,2.926,3.117c0,1.615-1.055,3.118-2.926,3.118
			s-2.928-1.503-2.928-3.118C173.558,87.713,174.612,86.21,176.485,86.21z M176.485,87.281c-1.119,0-1.68,0.967-1.68,2.047
			s0.561,2.047,1.68,2.047s1.678-0.967,1.678-2.047S177.604,87.281,176.485,87.281z"/>
		<path fill="#2C2F7C" d="M182.046,88.233h-0.018v4.103h-1.15v-6.014h1.287l2.438,4.038h0.016v-4.038h1.152v6.014h-1.24
			L182.046,88.233z"/>
		<path fill="#2C2F7C" d="M190.411,87.905c0-0.416-0.398-0.671-0.879-0.671c-0.6,0-0.959,0.265-0.959,0.664
			c0,0.416,0.398,0.616,0.695,0.711l1.104,0.353c0.801,0.256,1.367,0.719,1.367,1.646c0,0.735-0.527,1.839-2.189,1.839
			c-2.088,0-2.279-1.351-2.279-1.887l1.199-0.024c0,0.641,0.504,0.888,1.088,0.888c0.406,0,0.982-0.2,0.982-0.664
			c0-0.32-0.137-0.488-0.729-0.704l-1.311-0.472c-0.664-0.24-1.127-0.824-1.127-1.504c0-0.768,0.525-1.87,2.086-1.87
			c1.854,0,2.15,1.23,2.15,1.671L190.411,87.905z"/>
		<path fill="#2C2F7C" d="M195.901,86.21c1.871,0,2.926,1.503,2.926,3.117c0,1.615-1.055,3.118-2.926,3.118
			s-2.928-1.503-2.928-3.118C192.974,87.713,194.028,86.21,195.901,86.21z M195.901,87.281c-1.119,0-1.68,0.967-1.68,2.047
			s0.561,2.047,1.68,2.047s1.678-0.967,1.678-2.047S197.021,87.281,195.901,87.281z"/>
		<path fill="#2C2F7C" d="M205.362,88.321h-0.016l-1.607,4.015h-0.672l-1.605-3.935h-0.018v3.935h-1.15v-6.014h1.367l1.742,4.094
			l1.742-4.094h1.367v6.014h-1.15V88.321z"/>
		<path fill="#2C2F7C" d="M213.315,88.321H213.3l-1.607,4.015h-0.672l-1.607-3.935h-0.016v3.935h-1.15v-6.014h1.367l1.742,4.094
			l1.742-4.094h1.367v6.014h-1.15V88.321z"/>
		<path fill="#2C2F7C" d="M219.499,91.078H217.3l-0.393,1.256h-1.295l2.191-6.014h1.264l2.158,6.014h-1.318L219.499,91.078z
			 M218.411,87.769h-0.016l-0.76,2.334h1.543L218.411,87.769z"/>
		<path fill="#2C2F7C" d="M222.966,87.393h-1.584v-1.071h4.365v1.071h-1.582v4.941h-1.199V87.393L222.966,87.393z"/>
		<path fill="#2C2F7C" d="M227.069,86.322h3.838v1.071h-2.639v1.367h2.566v1.071h-2.566v1.432h2.639v1.071h-3.838V86.322z"/>
		<path fill="#2C2F7C" d="M236.106,86.322h1.201v3.519c0,1.879-1.191,2.605-2.504,2.605s-2.502-0.728-2.502-2.605v-3.519h1.199
			v3.526c0,1,0.447,1.527,1.303,1.527s1.303-0.528,1.303-1.527V86.322L236.106,86.322z"/>
		<path fill="#2C2F7C" d="M240.876,89.96h-0.703v2.375h-1.199v-6.014h2.246c1.264,0,1.982,0.792,1.982,1.791
			c0,0.632-0.344,1.455-1.119,1.688l1.398,2.535h-1.43L240.876,89.96z M240.972,88.984c0.824,0,1.033-0.439,1.033-0.824
			c0-0.432-0.209-0.814-1.072-0.814h-0.76v1.639H240.972z"/>
		<path fill="#2C2F7C" d="M247.333,86.322h1.959c0.943,0,2.086,0.433,2.086,1.911c0,1.383-1.031,1.903-1.99,1.903h-0.855v2.199
			h-1.197v-6.014H247.333z M249.202,89.112c0.793,0,0.977-0.479,0.977-0.879c0-0.408-0.279-0.888-0.967-0.888h-0.68v1.767H249.202z"
			/>
		<path fill="#2C2F7C" d="M254.517,89.96h-0.703v2.375h-1.199v-6.014h2.246c1.264,0,1.982,0.792,1.982,1.791
			c0,0.632-0.344,1.455-1.119,1.688l1.398,2.535h-1.432L254.517,89.96z M254.612,88.984c0.824,0,1.031-0.439,1.031-0.824
			c0-0.432-0.207-0.814-1.072-0.814h-0.758v1.639H254.612z"/>
		<path fill="#2C2F7C" d="M261.013,86.21c1.871,0,2.926,1.503,2.926,3.117c0,1.615-1.055,3.118-2.926,3.118
			s-2.928-1.503-2.928-3.118C258.085,87.713,259.142,86.21,261.013,86.21z M261.013,87.281c-1.119,0-1.68,0.967-1.68,2.047
			s0.561,2.047,1.68,2.047s1.678-0.967,1.678-2.047S262.132,87.281,261.013,87.281z"/>
	</g>
	<path fill="none" stroke="#2C2F7C" d="M277.294,103.225c0-9.115,0-18.23,0-27.346c-41.24,0-82.484,0-123.725,0v27.346
		C194.808,103.225,236.054,103.225,277.294,103.225z"/>
	<path fill="#F8F6C9" d="M215.431,145.985c4.43,0,8.021-3.592,8.021-8.021c0-4.429-3.592-8.02-8.021-8.02
		c-4.432,0-8.021,3.591-8.021,8.02C207.409,142.393,210.999,145.985,215.431,145.985"/>
	<circle fill="none" stroke="#2C2F7C" cx="215.431" cy="137.965" r="8.02"/>
	<path fill="#2C2F7C" d="M218.647,140.281c-0.766,0.864-1.688,1.298-2.764,1.298c-0.992,0-1.832-0.344-2.521-1.033
		c-0.688-0.689-1.033-1.53-1.033-2.521c0-0.991,0.346-1.831,1.033-2.521c0.689-0.688,1.529-1.034,2.521-1.034
		c1.055,0,1.977,0.424,2.764,1.273l0.312-0.717c-0.846-0.846-1.869-1.268-3.076-1.268s-2.219,0.41-3.037,1.229
		s-1.229,1.831-1.229,3.037c0,1.207,0.408,2.219,1.229,3.038c0.818,0.817,1.83,1.227,3.037,1.227c1.098,0,2.021-0.321,2.766-0.963
		v-1.046 M217.544,138.38h-6.766l-0.311,0.711h6.766L217.544,138.38z M218.14,136.957h-7.359l-0.312,0.711h7.375L218.14,136.957z"/>
	<polygon fill="none" stroke="#2C2F7C" stroke-width="0.25" points="218.14,136.957 210.778,136.957 210.468,137.668 
		217.843,137.668 	"/>
	<polygon fill="none" stroke="#2C2F7C" stroke-width="0.25" points="217.544,138.379 210.778,138.379 210.47,139.091 
		217.233,139.091 	"/>
	<path fill="none" stroke="#2C2F7C" stroke-width="0.25" d="M218.649,140.281c-0.768,0.866-1.689,1.299-2.766,1.299
		c-0.992,0-1.832-0.345-2.521-1.034c-0.688-0.688-1.033-1.529-1.033-2.52c0-0.991,0.346-1.831,1.033-2.521
		c0.689-0.688,1.529-1.034,2.521-1.034c1.055,0,1.977,0.426,2.766,1.274l0.311-0.718c-0.844-0.845-1.871-1.267-3.076-1.267
		s-2.219,0.409-3.037,1.228s-1.229,1.831-1.229,3.038c0,1.206,0.408,2.219,1.229,3.037c0.818,0.818,1.832,1.228,3.037,1.228
		c1.1,0,2.021-0.321,2.766-0.963V140.281L218.649,140.281z"/>
</g>
<g>
	<path fill="#FAE683" d="M67.55,242.97c4.43,0,8.021-3.591,8.021-8.021c0-4.429-3.591-8.02-8.021-8.02s-8.021,3.591-8.021,8.02
		C59.529,239.379,63.12,242.97,67.55,242.97"/>
	<circle fill="none" stroke="#2C2F7C" cx="67.55" cy="234.95" r="8.021"/>
	<path fill="#2C2F7C" d="M70.769,237.265c-0.766,0.866-1.688,1.299-2.766,1.299c-0.99,0-1.83-0.345-2.521-1.034
		c-0.688-0.689-1.034-1.529-1.034-2.521s0.346-1.831,1.034-2.521c0.69-0.688,1.53-1.033,2.521-1.033
		c1.056,0,1.978,0.424,2.766,1.272l0.312-0.717c-0.847-0.844-1.871-1.267-3.076-1.267c-1.207,0-2.221,0.409-3.039,1.228
		c-0.817,0.819-1.228,1.831-1.228,3.037c0,1.207,0.409,2.219,1.228,3.038c0.818,0.817,1.832,1.228,3.039,1.228
		c1.098,0,2.02-0.32,2.765-0.963L70.769,237.265 M69.665,235.365h-6.767l-0.312,0.712h6.767L69.665,235.365z M70.259,233.943h-7.36
		l-0.312,0.711h7.375L70.259,233.943z"/>
	<polygon fill="none" stroke="#2C2F7C" stroke-width="0.25" points="70.259,233.943 62.898,233.943 62.587,234.654 69.962,234.654 	
		"/>
	<polygon fill="none" stroke="#2C2F7C" stroke-width="0.25" points="69.665,235.365 62.898,235.365 62.589,236.076 69.354,236.076 	
		"/>
	<path fill="none" stroke="#2C2F7C" stroke-width="0.25" d="M70.77,237.265c-0.767,0.866-1.688,1.299-2.767,1.299
		c-0.99,0-1.83-0.345-2.521-1.034c-0.688-0.688-1.033-1.528-1.033-2.52s0.345-1.831,1.033-2.521
		c0.688-0.688,1.528-1.033,2.521-1.033c1.057,0,1.979,0.425,2.767,1.272l0.312-0.717c-0.846-0.844-1.871-1.266-3.076-1.266
		c-1.207,0-2.221,0.408-3.037,1.227c-0.819,0.819-1.229,1.831-1.229,3.038c0,1.206,0.409,2.218,1.229,3.037
		c0.816,0.817,1.83,1.228,3.037,1.228c1.099,0,2.021-0.32,2.766-0.963L70.77,237.265L70.77,237.265z"/>
	<path fill="#F9B447" d="M73.229,145.985c4.431,0,8.021-3.592,8.021-8.021c0-4.429-3.591-8.02-8.021-8.02
		c-4.431,0-8.021,3.591-8.021,8.02C65.208,142.393,68.798,145.985,73.229,145.985"/>
	<circle fill="none" stroke="#2C2F7C" cx="73.229" cy="137.965" r="8.02"/>
	<path fill="#2C2F7C" d="M76.447,140.281c-0.766,0.864-1.688,1.298-2.765,1.298c-0.991,0-1.831-0.344-2.521-1.033
		c-0.688-0.689-1.033-1.53-1.033-2.521c0-0.991,0.345-1.831,1.033-2.521c0.689-0.688,1.529-1.034,2.521-1.034
		c1.055,0,1.979,0.424,2.765,1.273l0.312-0.717c-0.844-0.846-1.869-1.268-3.075-1.268c-1.207,0-2.22,0.41-3.038,1.229
		c-0.816,0.818-1.227,1.831-1.227,3.037c0,1.207,0.408,2.219,1.227,3.038c0.818,0.817,1.831,1.227,3.038,1.227
		c1.098,0,2.021-0.321,2.765-0.963L76.447,140.281 M75.343,138.38h-6.766l-0.311,0.711h6.766L75.343,138.38z M75.938,136.957h-7.36
		l-0.311,0.711h7.374L75.938,136.957z"/>
	<polygon fill="none" stroke="#2C2F7C" stroke-width="0.25" points="75.938,136.957 68.577,136.957 68.267,137.668 75.641,137.668 	
		"/>
	<polygon fill="none" stroke="#2C2F7C" stroke-width="0.25" points="75.343,138.379 68.577,138.379 68.267,139.091 75.032,139.091 	
		"/>
	<path fill="none" stroke="#2C2F7C" stroke-width="0.25" d="M76.448,140.281c-0.768,0.866-1.689,1.299-2.767,1.299
		c-0.991,0-1.831-0.345-2.521-1.034c-0.688-0.688-1.033-1.529-1.033-2.52c0-0.991,0.345-1.831,1.033-2.521
		c0.688-0.688,1.528-1.034,2.521-1.034c1.056,0,1.979,0.426,2.767,1.274l0.311-0.718c-0.844-0.845-1.871-1.267-3.076-1.267
		c-1.206,0-2.219,0.409-3.037,1.228s-1.229,1.831-1.229,3.038c0,1.206,0.41,2.218,1.229,3.037c0.818,0.818,1.831,1.228,3.037,1.228
		c1.099,0,2.021-0.321,2.767-0.963L76.448,140.281L76.448,140.281z"/>
	<path fill="#FAE683" d="M62.22,145.985c4.43,0,8.021-3.592,8.021-8.021c0-4.429-3.592-8.02-8.021-8.02
		c-4.43,0-8.021,3.591-8.021,8.02C54.199,142.393,57.79,145.985,62.22,145.985"/>
	<circle fill="none" stroke="#2C2F7C" cx="62.22" cy="137.965" r="8.02"/>
	<path fill="#2C2F7C" d="M65.438,140.281c-0.766,0.864-1.688,1.298-2.766,1.298c-0.99,0-1.83-0.344-2.521-1.033
		c-0.688-0.689-1.032-1.53-1.032-2.521c0-0.991,0.344-1.831,1.032-2.521c0.69-0.688,1.53-1.034,2.521-1.034
		c1.056,0,1.978,0.424,2.766,1.273l0.312-0.717c-0.847-0.846-1.871-1.268-3.076-1.268c-1.207,0-2.219,0.41-3.039,1.229
		c-0.817,0.818-1.227,1.831-1.227,3.037c0,1.207,0.408,2.219,1.227,3.038c0.82,0.817,1.832,1.227,3.039,1.227
		c1.098,0,2.02-0.321,2.765-0.963L65.438,140.281 M64.335,138.38h-6.768l-0.311,0.711h6.767L64.335,138.38z M64.929,136.957h-7.361
		l-0.311,0.711h7.375L64.929,136.957z"/>
	<polygon fill="none" stroke="#2C2F7C" stroke-width="0.25" points="64.929,136.957 57.567,136.957 57.257,137.668 64.632,137.668 	
		"/>
	<polygon fill="none" stroke="#2C2F7C" stroke-width="0.25" points="64.335,138.379 57.567,138.379 57.257,139.091 64.023,139.091 	
		"/>
	<path fill="none" stroke="#2C2F7C" stroke-width="0.25" d="M65.438,140.281c-0.768,0.866-1.688,1.299-2.766,1.299
		c-0.991,0-1.832-0.345-2.521-1.034c-0.688-0.688-1.033-1.529-1.033-2.52c0-0.991,0.346-1.831,1.033-2.521
		c0.689-0.688,1.529-1.034,2.521-1.034c1.056,0,1.978,0.426,2.766,1.274l0.311-0.718c-0.845-0.845-1.869-1.267-3.076-1.267
		c-1.205,0-2.219,0.409-3.037,1.228s-1.228,1.831-1.228,3.038c0,1.206,0.408,2.218,1.228,3.037c0.818,0.818,1.832,1.228,3.037,1.228
		c1.1,0,2.021-0.321,2.767-0.963L65.438,140.281L65.438,140.281z"/>
	<path fill="#F8F6C9" d="M51.212,145.985c4.43,0,8.021-3.592,8.021-8.021c0-4.429-3.591-8.02-8.021-8.02
		c-4.431,0-8.021,3.591-8.021,8.02C43.19,142.393,46.782,145.985,51.212,145.985"/>
	<circle fill="none" stroke="#2C2F7C" cx="51.212" cy="137.965" r="8.02"/>
	<path fill="#2C2F7C" d="M54.432,140.281c-0.767,0.864-1.688,1.298-2.767,1.298c-0.99,0-1.83-0.344-2.521-1.033
		c-0.688-0.689-1.034-1.53-1.034-2.521c0-0.991,0.346-1.831,1.034-2.521c0.69-0.688,1.53-1.034,2.521-1.034
		c1.055,0,1.978,0.424,2.767,1.273l0.311-0.717c-0.846-0.846-1.87-1.268-3.075-1.268c-1.207,0-2.221,0.41-3.039,1.229
		c-0.817,0.818-1.228,1.831-1.228,3.037c0,1.207,0.409,2.219,1.228,3.038c0.818,0.817,1.832,1.227,3.039,1.227
		c1.098,0,2.02-0.321,2.766-0.963L54.432,140.281 M53.327,138.38H46.56l-0.311,0.711h6.767L53.327,138.38z M53.921,136.957H46.56
		l-0.311,0.711h7.375L53.921,136.957z"/>
	<polygon fill="none" stroke="#2C2F7C" stroke-width="0.25" points="53.921,136.957 46.56,136.957 46.251,137.668 53.624,137.668 	
		"/>
	<polygon fill="none" stroke="#2C2F7C" stroke-width="0.25" points="53.327,138.379 46.56,138.379 46.251,139.091 53.016,139.091 	
		"/>
	<path fill="none" stroke="#2C2F7C" stroke-width="0.25" d="M54.431,140.281c-0.768,0.866-1.688,1.299-2.766,1.299
		c-0.992,0-1.832-0.345-2.521-1.034c-0.688-0.688-1.034-1.529-1.034-2.52c0-0.991,0.347-1.831,1.034-2.521
		c0.689-0.688,1.529-1.034,2.521-1.034c1.055,0,1.978,0.426,2.766,1.274l0.311-0.718c-0.845-0.845-1.869-1.267-3.076-1.267
		c-1.205,0-2.22,0.409-3.037,1.228c-0.818,0.818-1.229,1.831-1.229,3.038c0,1.206,0.409,2.218,1.229,3.037
		c0.817,0.818,1.832,1.228,3.037,1.228c1.1,0,2.021-0.321,2.767-0.963L54.431,140.281L54.431,140.281z"/>
	<path fill="#F8F6C9" d="M56.891,242.97c4.43,0,8.021-3.591,8.021-8.021c0-4.429-3.591-8.02-8.021-8.02
		c-4.431,0-8.021,3.591-8.021,8.02C48.87,239.379,52.462,242.97,56.891,242.97"/>
	<circle fill="none" stroke="#2C2F7C" cx="56.891" cy="234.95" r="8.021"/>
	<path fill="#2C2F7C" d="M60.109,237.265c-0.767,0.866-1.688,1.299-2.765,1.299c-0.991,0-1.832-0.345-2.521-1.034
		S53.79,236,53.79,235.009s0.344-1.831,1.033-2.521c0.689-0.688,1.529-1.033,2.521-1.033c1.055,0,1.977,0.424,2.765,1.272
		l0.312-0.717c-0.844-0.844-1.869-1.267-3.076-1.267s-2.219,0.409-3.037,1.228c-0.818,0.819-1.227,1.831-1.227,3.037
		c0,1.207,0.407,2.219,1.227,3.038c0.818,0.817,1.83,1.228,3.037,1.228c1.099,0,2.021-0.32,2.766-0.963L60.109,237.265
		 M59.005,235.365h-6.768l-0.311,0.712h6.767L59.005,235.365z M59.6,233.943h-7.361l-0.31,0.711h7.373L59.6,233.943z"/>
	<polygon fill="none" stroke="#2C2F7C" stroke-width="0.25" points="59.6,233.943 52.238,233.943 51.929,234.654 59.302,234.654 	
		"/>
	<polygon fill="none" stroke="#2C2F7C" stroke-width="0.25" points="59.005,235.365 52.238,235.365 51.929,236.076 58.694,236.076 	
		"/>
	<path fill="none" stroke="#2C2F7C" stroke-width="0.25" d="M60.109,237.265c-0.767,0.866-1.688,1.299-2.767,1.299
		c-0.99,0-1.83-0.345-2.521-1.034c-0.688-0.688-1.032-1.528-1.032-2.52s0.344-1.831,1.032-2.521
		c0.688-0.688,1.529-1.033,2.521-1.033c1.057,0,1.979,0.425,2.767,1.272l0.312-0.717c-0.844-0.844-1.871-1.266-3.076-1.266
		c-1.207,0-2.219,0.408-3.037,1.227c-0.819,0.819-1.229,1.831-1.229,3.038c0,1.206,0.408,2.218,1.229,3.037
		c0.818,0.817,1.83,1.228,3.037,1.228c1.099,0,2.021-0.32,2.766-0.963L60.109,237.265L60.109,237.265z"/>
	<path fill="#FFFFFF" d="M124.082,200.05c0-9.115,0-18.231,0-27.346c-41.24,0-82.483,0-123.726,0v27.346
		C41.599,200.05,82.842,200.05,124.082,200.05"/>
	<g>
		<path fill="#2C2F7C" d="M30.204,183.148h2.264c1.821,0,2.894,1.071,2.894,3.007c0,1.919-1.327,3.006-2.862,3.006h-2.294
			L30.204,183.148L30.204,183.148z M32.419,188.138c1.23,0,1.694-1.055,1.694-1.991c0-1.008-0.433-1.975-1.791-1.975h-0.919v3.966
			H32.419z"/>
		<path fill="#2C2F7C" d="M36.884,183.148h1.199v6.014h-1.199V183.148z"/>
		<path fill="#2C2F7C" d="M42.786,184.731c0-0.416-0.4-0.671-0.88-0.671c-0.601,0-0.959,0.265-0.959,0.664
			c0,0.416,0.399,0.616,0.694,0.711l1.104,0.353c0.8,0.256,1.367,0.719,1.367,1.646c0,0.735-0.526,1.839-2.19,1.839
			c-2.086,0-2.279-1.351-2.279-1.887l1.199-0.023c0,0.64,0.504,0.887,1.088,0.887c0.408,0,0.983-0.2,0.983-0.664
			c0-0.32-0.136-0.488-0.728-0.704l-1.312-0.472c-0.664-0.24-1.127-0.824-1.127-1.503c0-0.769,0.527-1.871,2.088-1.871
			c1.854,0,2.149,1.23,2.149,1.671L42.786,184.731z"/>
		<path fill="#2C2F7C" d="M46.787,184.22h-1.583v-1.071h4.365v1.071h-1.583v4.941h-1.199V184.22z"/>
		<path fill="#2C2F7C" d="M52.794,186.787h-0.703v2.375h-1.199v-6.014h2.246c1.265,0,1.983,0.792,1.983,1.791
			c0,0.633-0.344,1.455-1.12,1.688l1.399,2.535H53.97L52.794,186.787z M52.89,185.811c0.824,0,1.031-0.439,1.031-0.823
			c0-0.433-0.207-0.815-1.07-0.815h-0.76v1.639H52.89z"/>
		<path fill="#2C2F7C" d="M56.691,183.148h1.198v6.014h-1.198V183.148z"/>
		<path fill="#2C2F7C" d="M59.683,183.148h2.136c1.278,0,1.942,0.656,1.942,1.632c0,0.664-0.377,1.039-0.809,1.238v0.017
			c0.536,0.128,1,0.615,1,1.367c0,1.104-0.848,1.759-2.087,1.759h-2.183V183.148L59.683,183.148z M61.61,185.619
			c0.566,0,0.951-0.256,0.951-0.736c0-0.496-0.368-0.711-0.848-0.711h-0.832v1.447H61.61z M61.675,188.138
			c0.76,0,1.03-0.336,1.03-0.76c0-0.384-0.239-0.783-0.935-0.783h-0.889v1.543H61.675z"/>
		<path fill="#2C2F7C" d="M69.169,183.148h1.2v3.519c0,1.879-1.19,2.605-2.503,2.605s-2.503-0.728-2.503-2.605v-3.519h1.198v3.526
			c0,1,0.449,1.527,1.305,1.527s1.303-0.528,1.303-1.527V183.148z"/>
		<path fill="#2C2F7C" d="M73.22,184.22h-1.584v-1.071h4.365v1.071h-1.582v4.941H73.22V184.22z"/>
		<path fill="#2C2F7C" d="M77.323,183.148h3.838v1.071h-2.639v1.367h2.566v1.072h-2.566v1.431h2.639v1.071h-3.838V183.148z"/>
		<path fill="#2C2F7C" d="M86.36,183.148h1.199v3.519c0,1.879-1.19,2.605-2.502,2.605c-1.312,0-2.504-0.728-2.504-2.605v-3.519
			h1.199v3.526c0,1,0.448,1.527,1.305,1.527c0.855,0,1.303-0.528,1.303-1.527V183.148z"/>
		<path fill="#2C2F7C" d="M91.138,186.787h-0.703v2.375h-1.199v-6.014h2.246c1.264,0,1.982,0.792,1.982,1.791
			c0,0.633-0.344,1.455-1.119,1.688l1.398,2.535h-1.432L91.138,186.787z M91.233,185.811c0.824,0,1.031-0.439,1.031-0.823
			c0-0.433-0.207-0.815-1.07-0.815h-0.76v1.639H91.233z"/>
	</g>
	<path fill="none" stroke="#2C2F7C" d="M124.082,200.05c0-9.115,0-18.231,0-27.346c-41.24,0-82.483,0-123.726,0v27.346
		C41.599,200.05,82.842,200.05,124.082,200.05z"/>
	<path fill="#FFFFFF" d="M124.082,103.225c0-9.115,0-18.23,0-27.346c-41.24,0-82.483,0-123.726,0v27.346
		C41.599,103.225,82.842,103.225,124.082,103.225"/>
	<g>
		<path fill="#2C2F7C" d="M17.938,88.455c-0.177-0.774-0.705-1.175-1.393-1.175c-0.975,0-1.566,0.937-1.566,2.056
			c0,1.271,0.623,2.039,1.6,2.039c0.576,0,1.136-0.385,1.344-1.063l1.23,0.088c-0.416,1.343-1.392,2.047-2.623,2.047
			c-1.631,0-2.799-1.104-2.799-3.118c0-1.814,1.145-3.117,2.799-3.117c1.265,0,2.304,0.624,2.615,2.167L17.938,88.455z"/>
		<path fill="#2C2F7C" d="M23.274,86.21c1.871,0,2.927,1.503,2.927,3.117c0,1.615-1.056,3.118-2.927,3.118s-2.928-1.503-2.928-3.118
			C20.347,87.713,21.403,86.21,23.274,86.21z M23.274,87.281c-1.119,0-1.68,0.967-1.68,2.047s0.561,2.047,1.68,2.047
			s1.679-0.967,1.679-2.047S24.394,87.281,23.274,87.281z"/>
		<path fill="#2C2F7C" d="M28.835,88.233h-0.016v4.103h-1.151v-6.014h1.287l2.438,4.038h0.016v-4.038h1.15v6.014h-1.238
			L28.835,88.233z"/>
		<path fill="#2C2F7C" d="M37.202,87.905c0-0.416-0.4-0.671-0.881-0.671c-0.6,0-0.959,0.265-0.959,0.664
			c0,0.416,0.399,0.616,0.695,0.711l1.104,0.353c0.8,0.256,1.366,0.719,1.366,1.646c0,0.735-0.526,1.839-2.189,1.839
			c-2.087,0-2.279-1.351-2.279-1.887l1.199-0.024c0,0.641,0.504,0.888,1.088,0.888c0.407,0,0.983-0.2,0.983-0.664
			c0-0.32-0.136-0.488-0.728-0.704l-1.312-0.472c-0.664-0.24-1.127-0.824-1.127-1.504c0-0.768,0.527-1.87,2.087-1.87
			c1.854,0,2.149,1.23,2.149,1.671L37.202,87.905z"/>
		<path fill="#2C2F7C" d="M42.69,86.21c1.871,0,2.927,1.503,2.927,3.117c0,1.615-1.056,3.118-2.927,3.118s-2.928-1.503-2.928-3.118
			C39.763,87.713,40.819,86.21,42.69,86.21z M42.69,87.281c-1.119,0-1.68,0.967-1.68,2.047s0.561,2.047,1.68,2.047
			s1.679-0.967,1.679-2.047S43.81,87.281,42.69,87.281z"/>
		<path fill="#2C2F7C" d="M52.151,88.321h-0.015l-1.606,4.015h-0.672l-1.606-3.935h-0.017v3.935h-1.15v-6.014h1.367l1.742,4.094
			l1.742-4.094h1.367v6.014h-1.15v-4.015H52.151z"/>
		<path fill="#2C2F7C" d="M60.104,88.321h-0.016l-1.607,4.015h-0.67l-1.607-3.935h-0.016v3.935h-1.151v-6.014h1.366l1.742,4.094
			l1.744-4.094h1.366v6.014h-1.151V88.321z"/>
		<path fill="#2C2F7C" d="M66.289,91.078H64.09l-0.392,1.256h-1.295l2.189-6.014h1.264l2.16,6.014h-1.32L66.289,91.078z
			 M65.202,87.769h-0.018l-0.76,2.334h1.544L65.202,87.769z"/>
		<path fill="#2C2F7C" d="M69.754,87.393h-1.583v-1.071h4.365v1.071h-1.583v4.941h-1.199V87.393z"/>
		<path fill="#2C2F7C" d="M73.858,86.322h3.838v1.071h-2.639v1.367h2.566v1.071h-2.566v1.432h2.639v1.071h-3.838V86.322z"/>
		<path fill="#2C2F7C" d="M82.89,86.322h1.199v3.519c0,1.879-1.191,2.605-2.503,2.605s-2.503-0.728-2.503-2.605v-3.519h1.199v3.526
			c0,1,0.447,1.527,1.304,1.527s1.304-0.528,1.304-1.527V86.322z"/>
		<path fill="#2C2F7C" d="M87.666,89.96h-0.703v2.375h-1.198v-6.014h2.245c1.265,0,1.983,0.792,1.983,1.791
			c0,0.632-0.344,1.455-1.119,1.688l1.398,2.535h-1.432L87.666,89.96z M87.762,88.984c0.824,0,1.032-0.439,1.032-0.824
			c0-0.432-0.208-0.814-1.072-0.814h-0.759v1.639H87.762z"/>
		<path fill="#2C2F7C" d="M94.114,86.322h1.959c0.943,0,2.087,0.433,2.087,1.911c0,1.383-1.031,1.903-1.99,1.903h-0.854v2.199
			h-1.199v-6.014H94.114z M95.985,89.112c0.791,0,0.976-0.479,0.976-0.879c0-0.408-0.278-0.888-0.967-0.888h-0.681v1.767H95.985z"/>
		<path fill="#2C2F7C" d="M101.306,89.96h-0.703v2.375h-1.199v-6.014h2.246c1.265,0,1.983,0.792,1.983,1.791
			c0,0.632-0.344,1.455-1.12,1.688l1.399,2.535h-1.431L101.306,89.96z M101.401,88.984c0.824,0,1.031-0.439,1.031-0.824
			c0-0.432-0.207-0.814-1.07-0.814h-0.76v1.639H101.401z"/>
		<path fill="#2C2F7C" d="M107.801,86.21c1.871,0,2.927,1.503,2.927,3.117c0,1.615-1.056,3.118-2.927,3.118
			c-1.87,0-2.927-1.503-2.927-3.118C104.874,87.713,105.931,86.21,107.801,86.21z M107.801,87.281c-1.118,0-1.679,0.967-1.679,2.047
			s0.561,2.047,1.679,2.047c1.119,0,1.679-0.967,1.679-2.047S108.92,87.281,107.801,87.281z"/>
	</g>
	<path fill="none" stroke="#2C2F7C" d="M124.082,103.225c0-9.115,0-18.23,0-27.346c-41.24,0-82.483,0-123.726,0v27.346
		C41.599,103.225,82.842,103.225,124.082,103.225z"/>
	<path fill="#FFFFFF" d="M124.082,297.195c0-9.114,0-18.23,0-27.346c-41.24,0-82.483,0-123.726,0v27.346
		C41.599,297.195,82.842,297.195,124.082,297.195"/>
	<g>
		<path fill="#2C2F7C" d="M24.384,283.8H21.89v2.502H20.69v-6.013h1.199v2.438h2.494v-2.438h1.198v6.013h-1.198V283.8z"/>
		<path fill="#2C2F7C" d="M29.968,280.178c1.871,0,2.928,1.503,2.928,3.118s-1.057,3.118-2.928,3.118s-2.927-1.503-2.927-3.118
			S28.097,280.178,29.968,280.178z M29.968,281.249c-1.119,0-1.679,0.967-1.679,2.047s0.56,2.047,1.679,2.047s1.68-0.967,1.68-2.047
			S31.087,281.249,29.968,281.249z"/>
		<path fill="#2C2F7C" d="M34.361,280.29h1.198v4.893h2.312v1.12h-3.51V280.29z"/>
		<path fill="#2C2F7C" d="M39.21,280.29h2.262c1.822,0,2.896,1.071,2.896,3.006c0,1.919-1.328,3.006-2.862,3.006H39.21V280.29
			L39.21,280.29z M41.423,285.28c1.231,0,1.695-1.056,1.695-1.991c0-1.008-0.432-1.975-1.791-1.975h-0.919v3.966H41.423z"/>
		<path fill="#2C2F7C" d="M45.888,280.29h1.199v6.013h-1.199V280.29z"/>
		<path fill="#2C2F7C" d="M50.048,282.201h-0.016v4.102h-1.15v-6.013h1.287l2.438,4.038h0.016v-4.038h1.151v6.013h-1.239
			L50.048,282.201z"/>
		<path fill="#2C2F7C" d="M58.319,283.065h2.773c-0.047,2.23-1.278,3.35-2.935,3.35c-1.783,0-2.927-1.503-2.927-3.118
			s1.144-3.118,2.927-3.118c1.976,0,2.519,1.231,2.742,1.871l-1.255,0.08c-0.217-0.528-0.647-0.879-1.487-0.879
			c-0.942,0-1.679,0.768-1.679,2.047c0,1.08,0.68,2.047,1.759,2.047c0.968,0,1.415-0.688,1.521-1.255h-1.439V283.065z"/>
		<path fill="#2C2F7C" d="M65.177,280.29h2.264c1.822,0,2.895,1.071,2.895,3.006c0,1.919-1.328,3.006-2.863,3.006h-2.293v-6.012
			H65.177z M67.392,285.28c1.229,0,1.693-1.056,1.693-1.991c0-1.008-0.432-1.975-1.791-1.975h-0.919v3.966H67.392z"/>
		<path fill="#2C2F7C" d="M73.08,280.514l-0.92,2.11l-0.743-0.224l0.592-2.224L73.08,280.514z"/>
		<path fill="#2C2F7C" d="M77.72,285.047h-2.199l-0.393,1.255h-1.295l2.19-6.013h1.264l2.159,6.013h-1.318L77.72,285.047z
			 M76.632,281.738h-0.017l-0.76,2.334h1.544L76.632,281.738z"/>
		<path fill="#2C2F7C" d="M84.534,282.425c-0.176-0.774-0.703-1.175-1.393-1.175c-0.976,0-1.565,0.936-1.565,2.055
			c0,1.271,0.623,2.039,1.599,2.039c0.576,0,1.137-0.384,1.344-1.062l1.23,0.088c-0.414,1.343-1.391,2.047-2.621,2.047
			c-1.632,0-2.8-1.104-2.8-3.118c0-1.814,1.144-3.118,2.8-3.118c1.264,0,2.303,0.624,2.613,2.167L84.534,282.425z"/>
		<path fill="#2C2F7C" d="M90.902,283.8h-2.494v2.502H87.21v-6.013h1.198v2.438h2.494v-2.438h1.198v6.013h-1.198V283.8z"/>
		<path fill="#2C2F7C" d="M97.136,285.047h-2.199l-0.393,1.255h-1.295l2.19-6.013h1.264l2.159,6.013h-1.318L97.136,285.047z
			 M96.048,281.738h-0.017l-0.761,2.334h1.545L96.048,281.738z"/>
		<path fill="#2C2F7C" d="M100.599,281.362h-1.582v-1.071h4.365v1.071h-1.584v4.94h-1.199V281.362z"/>
	</g>
	<path fill="none" stroke="#2C2F7C" d="M124.082,297.195c0-9.114,0-18.23,0-27.346c-41.24,0-82.483,0-123.726,0v27.346
		C41.599,297.195,82.842,297.195,124.082,297.195z"/>
	<g>
		<path fill="#FAE683" d="M97.132,277.951c4.43,0,8.021-3.591,8.021-8.02c0-4.431-3.591-8.021-8.021-8.021
			c-4.432,0-8.021,3.591-8.021,8.021C89.109,274.361,92.7,277.951,97.132,277.951"/>
		<circle fill="none" stroke="#2C2F7C" cx="97.132" cy="269.931" r="8.021"/>
		<path fill="#2C2F7C" d="M100.351,272.246c-0.768,0.865-1.689,1.298-2.766,1.298c-0.992,0-1.832-0.344-2.521-1.033
			c-0.688-0.689-1.034-1.529-1.034-2.521s0.347-1.831,1.034-2.52c0.689-0.689,1.529-1.034,2.521-1.034
			c1.055,0,1.977,0.424,2.766,1.272l0.311-0.717c-0.846-0.845-1.869-1.267-3.076-1.267s-2.22,0.41-3.037,1.228
			c-0.818,0.819-1.229,1.831-1.229,3.037c0,1.207,0.409,2.219,1.229,3.038c0.817,0.818,1.83,1.227,3.037,1.227
			c1.098,0,2.021-0.32,2.766-0.963V272.246 M99.245,270.347h-6.766l-0.311,0.711h6.766L99.245,270.347z M99.841,268.925h-7.36
			l-0.312,0.711h7.375L99.841,268.925z"/>
		<polygon fill="none" stroke="#2C2F7C" stroke-width="0.25" points="99.841,268.925 92.479,268.925 92.169,269.636 99.544,269.636 
					"/>
		<polygon fill="none" stroke="#2C2F7C" stroke-width="0.25" points="99.245,270.347 92.479,270.347 92.169,271.058 98.935,271.058 
					"/>
		<path fill="none" stroke="#2C2F7C" stroke-width="0.25" d="M100.349,272.246c-0.766,0.866-1.688,1.299-2.766,1.299
			c-0.99,0-1.83-0.345-2.521-1.033c-0.688-0.689-1.034-1.529-1.034-2.521s0.346-1.831,1.034-2.521s1.528-1.034,2.521-1.034
			c1.057,0,1.979,0.425,2.766,1.273l0.311-0.718c-0.844-0.844-1.869-1.266-3.074-1.266c-1.207,0-2.221,0.409-3.037,1.227
			c-0.819,0.819-1.229,1.831-1.229,3.038c0,1.206,0.409,2.219,1.229,3.037c0.816,0.819,1.83,1.229,3.037,1.229
			c1.098,0,2.021-0.321,2.766-0.964v-1.047H100.349z"/>
		<g>
			<path fill="#2C2F7C" d="M85.653,253.813c0-0.32-0.178-0.648-0.616-0.648s-0.655,0.408-0.655,0.736v2.559H83.23v-2.534
				c0-0.433-0.146-0.761-0.624-0.761c-0.473,0-0.646,0.4-0.646,0.8v2.495h-1.152v-4.109h1.104v0.536h0.017
				c0.367-0.543,0.768-0.647,1.238-0.647c0.272,0,0.815,0.072,1.104,0.64c0.407-0.543,0.862-0.64,1.207-0.64
				c0.704,0,1.327,0.408,1.327,1.271v2.949h-1.15v-2.646H85.653z"/>
			<path fill="#2C2F7C" d="M91.005,255.924h-0.016c-0.384,0.504-0.928,0.646-1.406,0.646c-0.647,0-1.439-0.32-1.439-1.255
				c0-0.439,0.144-1.167,1.751-1.263l1.063-0.064v-0.192c0-0.487-0.305-0.728-0.809-0.728c-0.473,0-0.752,0.24-0.775,0.607h-1.104
				c0.04-0.632,0.486-1.439,1.927-1.439c1.017,0,1.863,0.384,1.863,1.327v2.383c0,0.216,0.022,0.36,0.056,0.512h-1.111V255.924z
				 M90.958,254.667l-0.961,0.088c-0.527,0.049-0.703,0.208-0.703,0.505c0,0.367,0.336,0.479,0.721,0.479
				c0.359,0,0.943-0.2,0.943-0.695V254.667z"/>
			<path fill="#2C2F7C" d="M93.591,252.35h1.104v0.792h0.017c0.215-0.583,0.639-0.903,1.184-0.903h0.16v1.12H95.8
				c-0.592,0-1.057,0.359-1.057,1.087v2.015h-1.15v-4.11H93.591z"/>
			<path fill="#2C2F7C" d="M100.157,252.35h1.104v4.046c0,1.239-0.896,1.935-2.207,1.935c-1.184,0-1.848-0.536-1.998-1.398h1.184
				c0.096,0.312,0.296,0.52,0.848,0.52c0.399,0,1-0.168,1.031-0.992l0.031-0.704l-0.016-0.016c-0.265,0.568-0.744,0.76-1.328,0.76
				c-1.03,0-1.918-0.808-1.918-2.143c0-1.151,0.8-2.119,1.967-2.119c0.624,0,1.087,0.32,1.287,0.76h0.017L100.157,252.35
				L100.157,252.35z M99.085,253.212c-0.615,0-0.998,0.513-0.998,1.144c0,0.992,0.68,1.215,1.039,1.215
				c0.303,0,1.016-0.144,1.016-1.175C100.14,253.645,99.765,253.212,99.085,253.212z"/>
			<path fill="#2C2F7C" d="M103.822,254.732c0.048,0.479,0.345,0.959,0.96,0.959c0.352,0,0.663-0.168,0.823-0.488l1.118,0.088
				c-0.279,0.84-1.03,1.279-1.998,1.279c-1.239,0-2.104-0.848-2.104-2.159c0-1.327,0.863-2.175,2.104-2.175s2.104,0.848,2.104,2.175
				v0.32L103.822,254.732L103.822,254.732z M105.677,253.996c-0.039-0.399-0.344-0.88-0.896-0.88c-0.601,0-0.896,0.416-0.96,0.88
				H105.677z"/>
		</g>
		<g>
			<g>
				<path fill="#2C2F7C" d="M110.859,256.257l2.167-2.318c0.415-0.457,0.521-0.744,0.521-1.047c0-0.352-0.24-0.721-0.713-0.721
					c-0.486,0-0.782,0.336-0.782,1.072h-1.104v-0.129c0-1.447,1.071-1.967,1.887-1.967c1.129,0,1.912,0.734,1.912,1.711
					c0,0.752-0.32,1.254-1.319,2.246l-1.022,1.031h2.405v1.023h-3.948v-0.902H110.859z"/>
			</g>
		</g>
		<rect x="81.186" y="273.918" fill="#FFFFFF" width="31.89" height="6.012"/>
		<line fill="none" stroke="#2C2F7C" x1="86.942" y1="273.918" x2="107.318" y2="273.918"/>
	</g>
	<g>
		<path fill="#F9B447" d="M96.069,180.814c4.43,0,8.021-3.591,8.021-8.021c0-4.429-3.591-8.02-8.021-8.02
			c-4.432,0-8.021,3.591-8.021,8.02C88.047,177.221,91.638,180.814,96.069,180.814"/>
		<circle fill="none" stroke="#2C2F7C" cx="96.069" cy="172.793" r="8.021"/>
		<path fill="#2C2F7C" d="M99.288,175.109c-0.768,0.866-1.689,1.299-2.766,1.299c-0.992,0-1.832-0.345-2.521-1.034
			c-0.688-0.689-1.034-1.53-1.034-2.521c0-0.991,0.347-1.831,1.034-2.521c0.689-0.688,1.529-1.034,2.521-1.034
			c1.055,0,1.977,0.424,2.766,1.273l0.311-0.717c-0.846-0.845-1.869-1.268-3.076-1.268s-2.22,0.41-3.037,1.229
			c-0.818,0.818-1.229,1.831-1.229,3.037c0,1.207,0.409,2.219,1.229,3.038c0.817,0.817,1.83,1.226,3.037,1.226
			c1.098,0,2.021-0.321,2.766-0.961V175.109 M98.183,173.209h-6.766l-0.311,0.711h6.766L98.183,173.209z M98.778,171.786h-7.36
			l-0.312,0.711h7.375L98.778,171.786z"/>
		<polygon fill="none" stroke="#2C2F7C" stroke-width="0.25" points="98.778,171.786 91.417,171.786 91.106,172.497 98.481,172.497 
					"/>
		<polygon fill="none" stroke="#2C2F7C" stroke-width="0.25" points="98.183,173.208 91.416,173.208 91.106,173.92 97.872,173.92 		
			"/>
		<path fill="none" stroke="#2C2F7C" stroke-width="0.25" d="M99.286,175.109c-0.766,0.866-1.688,1.299-2.766,1.299
			c-0.99,0-1.83-0.345-2.521-1.034c-0.688-0.688-1.034-1.529-1.034-2.52c0-0.991,0.346-1.831,1.034-2.521
			c0.688-0.688,1.528-1.034,2.521-1.034c1.057,0,1.979,0.426,2.766,1.274l0.311-0.718c-0.844-0.845-1.869-1.267-3.074-1.267
			c-1.207,0-2.221,0.409-3.037,1.228c-0.819,0.818-1.229,1.831-1.229,3.038c0,1.206,0.409,2.218,1.229,3.037
			c0.816,0.817,1.83,1.227,3.037,1.227c1.098,0,2.021-0.321,2.766-0.962v-1.047H99.286z"/>
		<g>
			<path fill="#2C2F7C" d="M84.591,156.673c0-0.319-0.178-0.647-0.616-0.647s-0.655,0.408-0.655,0.735v2.56h-1.151v-2.535
				c0-0.432-0.146-0.76-0.624-0.76c-0.473,0-0.646,0.399-0.646,0.8v2.495h-1.152v-4.11h1.104v0.536h0.017
				c0.367-0.543,0.768-0.646,1.238-0.646c0.272,0,0.815,0.071,1.104,0.64c0.407-0.543,0.862-0.64,1.207-0.64
				c0.704,0,1.327,0.407,1.327,1.271v2.95h-1.15v-2.647H84.591z"/>
			<path fill="#2C2F7C" d="M89.942,158.784h-0.016c-0.384,0.504-0.928,0.647-1.406,0.647c-0.647,0-1.439-0.32-1.439-1.256
				c0-0.438,0.144-1.167,1.751-1.263l1.063-0.063v-0.192c0-0.488-0.305-0.729-0.809-0.729c-0.473,0-0.752,0.24-0.775,0.607h-1.104
				c0.04-0.631,0.486-1.439,1.927-1.439c1.017,0,1.863,0.385,1.863,1.327v2.384c0,0.216,0.022,0.359,0.056,0.512h-1.111V158.784z
				 M89.896,157.529l-0.961,0.088c-0.527,0.048-0.703,0.208-0.703,0.504c0,0.368,0.336,0.479,0.721,0.479
				c0.359,0,0.943-0.2,0.943-0.695V157.529z"/>
			<path fill="#2C2F7C" d="M92.528,155.21h1.104v0.792h0.017c0.215-0.583,0.639-0.902,1.184-0.902h0.16v1.119h-0.256
				c-0.592,0-1.057,0.359-1.057,1.088v2.015h-1.15v-4.111H92.528z"/>
			<path fill="#2C2F7C" d="M99.095,155.21h1.104v4.046c0,1.239-0.896,1.936-2.207,1.936c-1.184,0-1.848-0.536-1.998-1.399h1.184
				c0.096,0.312,0.296,0.521,0.848,0.521c0.399,0,1-0.168,1.031-0.992l0.031-0.704l-0.016-0.016c-0.265,0.567-0.744,0.76-1.328,0.76
				c-1.03,0-1.918-0.809-1.918-2.144c0-1.15,0.8-2.118,1.967-2.118c0.624,0,1.087,0.319,1.287,0.76h0.017L99.095,155.21
				L99.095,155.21z M98.022,156.074c-0.615,0-0.998,0.512-0.998,1.143c0,0.992,0.68,1.216,1.039,1.216
				c0.303,0,1.016-0.145,1.016-1.176C99.077,156.505,98.702,156.074,98.022,156.074z"/>
			<path fill="#2C2F7C" d="M102.76,157.593c0.048,0.479,0.345,0.959,0.96,0.959c0.352,0,0.663-0.168,0.823-0.487l1.118,0.088
				c-0.279,0.84-1.03,1.279-1.998,1.279c-1.239,0-2.104-0.849-2.104-2.159c0-1.327,0.863-2.176,2.104-2.176s2.104,0.849,2.104,2.176
				v0.319L102.76,157.593L102.76,157.593z M104.614,156.858c-0.039-0.4-0.344-0.88-0.896-0.88c-0.601,0-0.896,0.416-0.96,0.88
				H104.614z"/>
		</g>
		<rect x="80.123" y="176.779" fill="#FFFFFF" width="31.89" height="6.011"/>
		<line fill="none" stroke="#2C2F7C" x1="85.88" y1="176.779" x2="106.256" y2="176.779"/>
		<g>
			<path fill="#2C2F7C" d="M110.842,155.5c-0.319,0.224-0.768,0.512-1.327,0.751v-1.079c0.376-0.208,1.12-0.608,1.592-1.167h0.888
				v6.013h-1.151L110.842,155.5L110.842,155.5z"/>
		</g>
	</g>
</g>
<g>
	<path fill="#2C2F7C" d="M30.756,24.281h2.263c1.822,0,2.896,1.07,2.896,3.006c0,1.919-1.328,3.007-2.863,3.007h-2.294
		L30.756,24.281L30.756,24.281z M32.97,29.27c1.231,0,1.695-1.055,1.695-1.99c0-1.008-0.432-1.975-1.791-1.975h-0.919v3.965H32.97z"
		/>
	<path fill="#2C2F7C" d="M37.437,24.281h1.198v6.013h-1.198V24.281z"/>
	<path fill="#2C2F7C" d="M43.338,25.864c0-0.415-0.399-0.671-0.88-0.671c-0.6,0-0.959,0.264-0.959,0.663
		c0,0.416,0.398,0.616,0.695,0.712l1.104,0.354c0.801,0.256,1.367,0.719,1.367,1.646c0,0.735-0.527,1.839-2.189,1.839
		c-2.088,0-2.279-1.351-2.279-1.887l1.199-0.024c0,0.642,0.504,0.889,1.088,0.889c0.406,0,0.982-0.2,0.982-0.663
		c0-0.32-0.136-0.488-0.729-0.704l-1.312-0.472c-0.664-0.24-1.127-0.824-1.127-1.504c0-0.768,0.527-1.87,2.086-1.87
		c1.854,0,2.151,1.23,2.151,1.671L43.338,25.864z"/>
	<path fill="#2C2F7C" d="M47.339,25.352h-1.583v-1.07h4.365v1.07h-1.583v4.94h-1.199V25.352z"/>
	<path fill="#2C2F7C" d="M53.346,27.919h-0.702v2.373h-1.199v-6.012h2.246c1.264,0,1.982,0.791,1.982,1.791
		c0,0.631-0.344,1.455-1.119,1.688l1.398,2.533h-1.432L53.346,27.919z M53.44,26.944c0.824,0,1.033-0.438,1.033-0.824
		c0-0.432-0.209-0.813-1.072-0.813h-0.76v1.639L53.44,26.944L53.44,26.944z"/>
	<path fill="#2C2F7C" d="M57.243,24.281h1.199v6.013h-1.199V24.281z"/>
	<path fill="#2C2F7C" d="M60.235,24.281h2.135c1.279,0,1.941,0.655,1.941,1.631c0,0.664-0.375,1.039-0.808,1.239v0.017
		c0.536,0.128,1,0.615,1,1.366c0,1.104-0.849,1.76-2.087,1.76h-2.184v-6.013H60.235z M62.162,26.752c0.567,0,0.95-0.257,0.95-0.736
		c0-0.496-0.367-0.711-0.848-0.711h-0.83v1.447H62.162z M62.226,29.27c0.76,0,1.031-0.336,1.031-0.76
		c0-0.384-0.238-0.783-0.936-0.783h-0.887v1.543H62.226z"/>
	<path fill="#2C2F7C" d="M69.722,24.281h1.199V27.8c0,1.879-1.191,2.605-2.503,2.605s-2.503-0.728-2.503-2.605v-3.519h1.199v3.525
		c0,1,0.447,1.526,1.304,1.526s1.304-0.526,1.304-1.526V24.281z"/>
	<path fill="#2C2F7C" d="M73.771,25.352h-1.582v-1.07h4.364v1.07H74.97v4.94h-1.199V25.352z"/>
	<path fill="#2C2F7C" d="M77.938,24.281h1.199v6.013h-1.199V24.281z"/>
	<path fill="#2C2F7C" d="M83.593,24.169c1.871,0,2.928,1.503,2.928,3.117c0,1.615-1.057,3.118-2.928,3.118s-2.927-1.503-2.927-3.118
		C80.666,25.672,81.722,24.169,83.593,24.169z M83.593,25.24c-1.119,0-1.679,0.967-1.679,2.047s0.56,2.047,1.679,2.047
		s1.68-0.967,1.68-2.047S84.712,25.24,83.593,25.24z"/>
	<path fill="#2C2F7C" d="M89.153,26.192h-0.016v4.102h-1.15v-6.012h1.287l2.438,4.037h0.016v-4.037h1.151v6.012h-1.237
		L89.153,26.192z"/>
</g>
<g>
	<path fill="#2C2F7C" d="M41.054,36.016c-0.176-0.775-0.703-1.176-1.392-1.176c-0.976,0-1.566,0.936-1.566,2.056
		c0,1.271,0.623,2.038,1.599,2.038c0.576,0,1.137-0.383,1.345-1.062l1.229,0.088c-0.414,1.344-1.391,2.048-2.621,2.048
		c-1.631,0-2.799-1.104-2.799-3.119c0-1.814,1.143-3.118,2.799-3.118c1.264,0,2.303,0.624,2.613,2.167L41.054,36.016z"/>
	<path fill="#2C2F7C" d="M43.729,33.881h1.198v4.894h2.312v1.119h-3.51V33.881z"/>
	<path fill="#2C2F7C" d="M51.87,38.639h-2.199l-0.393,1.255h-1.295l2.19-6.013h1.265l2.157,6.013h-1.317L51.87,38.639z
		 M50.782,35.327h-0.016l-0.761,2.335h1.543L50.782,35.327z"/>
	<path fill="#2C2F7C" d="M57.653,35.464c0-0.416-0.399-0.673-0.879-0.673c-0.601,0-0.959,0.266-0.959,0.664
		c0,0.416,0.398,0.615,0.694,0.712l1.104,0.353c0.8,0.256,1.367,0.72,1.367,1.646c0,0.736-0.527,1.841-2.19,1.841
		c-2.087,0-2.279-1.353-2.279-1.889l1.199-0.022c0,0.64,0.504,0.888,1.088,0.888c0.407,0,0.983-0.2,0.983-0.664
		c0-0.319-0.137-0.487-0.729-0.703l-1.312-0.473c-0.663-0.239-1.127-0.823-1.127-1.503c0-0.769,0.527-1.871,2.087-1.871
		c1.854,0,2.151,1.23,2.151,1.672L57.653,35.464z"/>
	<path fill="#2C2F7C" d="M63.392,35.464c0-0.416-0.4-0.673-0.881-0.673c-0.6,0-0.959,0.266-0.959,0.664
		c0,0.416,0.399,0.615,0.695,0.712l1.104,0.353c0.801,0.256,1.367,0.72,1.367,1.646c0,0.736-0.527,1.841-2.189,1.841
		c-2.088,0-2.279-1.353-2.279-1.889l1.199-0.022c0,0.64,0.504,0.888,1.088,0.888c0.406,0,0.982-0.2,0.982-0.664
		c0-0.319-0.136-0.487-0.728-0.703l-1.312-0.473c-0.664-0.239-1.127-0.823-1.127-1.503c0-0.769,0.526-1.871,2.086-1.871
		c1.854,0,2.15,1.23,2.15,1.672L63.392,35.464z"/>
	<path fill="#2C2F7C" d="M66.278,33.881h1.199v6.013h-1.199V33.881z"/>
	<path fill="#2C2F7C" d="M73.532,39.574c-0.463,0.287-1,0.433-1.6,0.433c-1.871,0-2.927-1.504-2.927-3.119
		c0-1.614,1.056-3.118,2.927-3.118s2.928,1.504,2.928,3.118c0,0.712-0.226,1.438-0.616,1.976l0.728,0.623l-0.695,0.752
		L73.532,39.574z M72.772,37.599l0.553,0.472c0.191-0.319,0.287-0.76,0.287-1.184c0-1.079-0.561-2.047-1.68-2.047
		s-1.679,0.968-1.679,2.047c0,1.08,0.56,2.047,1.679,2.047c0.24,0,0.545-0.063,0.713-0.151l-0.529-0.464L72.772,37.599z"/>
	<path fill="#2C2F7C" d="M80.085,33.881h1.2v3.518c0,1.88-1.191,2.607-2.503,2.607c-1.312,0-2.504-0.729-2.504-2.607v-3.518h1.199
		v3.525c0,0.999,0.448,1.526,1.305,1.526c0.855,0,1.303-0.527,1.303-1.526V33.881z"/>
	<path fill="#2C2F7C" d="M82.952,33.881h3.838v1.07h-2.639v1.367h2.565v1.071h-2.565v1.432h2.639v1.071h-3.838V33.881z"/>
</g>
</svg>
